%TF.GenerationSoftware,KiCad,Pcbnew,7.0.8*%
%TF.CreationDate,2024-03-05T18:55:30+01:00*%
%TF.ProjectId,Hacheur 4Q,48616368-6575-4722-9034-512e6b696361,rev?*%
%TF.SameCoordinates,Original*%
%TF.FileFunction,Drillmap*%
%TF.FilePolarity,Positive*%
%FSLAX45Y45*%
G04 Gerber Fmt 4.5, Leading zero omitted, Abs format (unit mm)*
G04 Created by KiCad (PCBNEW 7.0.8) date 2024-03-05 18:55:30*
%MOMM*%
%LPD*%
G01*
G04 APERTURE LIST*
%ADD10C,0.100000*%
%ADD11C,0.200000*%
%ADD12C,0.040000*%
%ADD13C,0.080000*%
%ADD14C,0.130000*%
G04 APERTURE END LIST*
D10*
X10500000Y-2100000D02*
X21325000Y-2100000D01*
X18400000Y-3575000D02*
X16825000Y-3575000D01*
X16825000Y-3275000D01*
X18400000Y-3275000D01*
X18400000Y-3575000D01*
X18400000Y-8400000D02*
X17350000Y-8400000D01*
X17350000Y-8100000D01*
X18400000Y-8100000D01*
X18400000Y-8400000D01*
X21325000Y-14700000D02*
X10500000Y-14700000D01*
X10500000Y-14700000D02*
X10500000Y-2100000D01*
X21325000Y-2100000D02*
X21325000Y-14700000D01*
D11*
D12*
X12680000Y-10780000D02*
X12720000Y-10820000D01*
X12720000Y-10780000D02*
X12680000Y-10820000D01*
X13180000Y-12680000D02*
X13220000Y-12720000D01*
X13220000Y-12680000D02*
X13180000Y-12720000D01*
X13530000Y-11130000D02*
X13570000Y-11170000D01*
X13570000Y-11130000D02*
X13530000Y-11170000D01*
X13730000Y-10805000D02*
X13770000Y-10845000D01*
X13770000Y-10805000D02*
X13730000Y-10845000D01*
X14180000Y-10105000D02*
X14220000Y-10145000D01*
X14220000Y-10105000D02*
X14180000Y-10145000D01*
X14633000Y-12680000D02*
X14673000Y-12720000D01*
X14673000Y-12680000D02*
X14633000Y-12720000D01*
X14755000Y-10455000D02*
X14795000Y-10495000D01*
X14795000Y-10455000D02*
X14755000Y-10495000D01*
X15005000Y-12105000D02*
X15045000Y-12145000D01*
X15045000Y-12105000D02*
X15005000Y-12145000D01*
X15155000Y-9870000D02*
X15195000Y-9910000D01*
X15195000Y-9870000D02*
X15155000Y-9910000D01*
X15280000Y-11005000D02*
X15320000Y-11045000D01*
X15320000Y-11005000D02*
X15280000Y-11045000D01*
X15405000Y-12530000D02*
X15445000Y-12570000D01*
X15445000Y-12530000D02*
X15405000Y-12570000D01*
X15522000Y-9355000D02*
X15562000Y-9395000D01*
X15562000Y-9355000D02*
X15522000Y-9395000D01*
X15522000Y-10555000D02*
X15562000Y-10595000D01*
X15562000Y-10555000D02*
X15522000Y-10595000D01*
X15649000Y-12680000D02*
X15689000Y-12720000D01*
X15689000Y-12680000D02*
X15649000Y-12720000D01*
X15905000Y-12455000D02*
X15945000Y-12495000D01*
X15945000Y-12455000D02*
X15905000Y-12495000D01*
X16031993Y-10581993D02*
X16071993Y-10621993D01*
X16071993Y-10581993D02*
X16031993Y-10621993D01*
X16280000Y-10030000D02*
X16320000Y-10070000D01*
X16320000Y-10030000D02*
X16280000Y-10070000D01*
X16544950Y-11605000D02*
X16584950Y-11645000D01*
X16584950Y-11605000D02*
X16544950Y-11645000D01*
X16655000Y-12955000D02*
X16695000Y-12995000D01*
X16695000Y-12955000D02*
X16655000Y-12995000D01*
X16755000Y-9605000D02*
X16795000Y-9645000D01*
X16795000Y-9605000D02*
X16755000Y-9645000D01*
X16755000Y-10080000D02*
X16795000Y-10120000D01*
X16795000Y-10080000D02*
X16755000Y-10120000D01*
X16955000Y-11180000D02*
X16995000Y-11220000D01*
X16995000Y-11180000D02*
X16955000Y-11220000D01*
X17355000Y-13330000D02*
X17395000Y-13370000D01*
X17395000Y-13330000D02*
X17355000Y-13370000D01*
X18905000Y-6830000D02*
X18945000Y-6870000D01*
X18945000Y-6830000D02*
X18905000Y-6870000D01*
X19130000Y-7080000D02*
X19170000Y-7120000D01*
X19170000Y-7080000D02*
X19130000Y-7120000D01*
X19505000Y-8755000D02*
X19545000Y-8795000D01*
X19545000Y-8755000D02*
X19505000Y-8795000D01*
X19680000Y-7605000D02*
X19720000Y-7645000D01*
X19720000Y-7605000D02*
X19680000Y-7645000D01*
X19880000Y-6980000D02*
X19920000Y-7020000D01*
X19920000Y-6980000D02*
X19880000Y-7020000D01*
X19955000Y-7655000D02*
X19995000Y-7695000D01*
X19995000Y-7655000D02*
X19955000Y-7695000D01*
X20430000Y-7005000D02*
X20470000Y-7045000D01*
X20470000Y-7005000D02*
X20430000Y-7045000D01*
X20630000Y-5580000D02*
X20670000Y-5620000D01*
X20670000Y-5580000D02*
X20630000Y-5620000D01*
D13*
X18490000Y-12650000D02*
G75*
G03*
X18490000Y-12650000I-40000J0D01*
G01*
X18565000Y-14075000D02*
G75*
G03*
X18565000Y-14075000I-40000J0D01*
G01*
X18840000Y-12650000D02*
G75*
G03*
X18840000Y-12650000I-40000J0D01*
G01*
X18915000Y-14075000D02*
G75*
G03*
X18915000Y-14075000I-40000J0D01*
G01*
X19165000Y-11650000D02*
G75*
G03*
X19165000Y-11650000I-40000J0D01*
G01*
X19365000Y-11650000D02*
G75*
G03*
X19365000Y-11650000I-40000J0D01*
G01*
D10*
X13782000Y-8201000D02*
X13782000Y-8301000D01*
X13732000Y-8251000D02*
X13832000Y-8251000D01*
X14036000Y-8201000D02*
X14036000Y-8301000D01*
X13986000Y-8251000D02*
X14086000Y-8251000D01*
X14290000Y-8201000D02*
X14290000Y-8301000D01*
X14240000Y-8251000D02*
X14340000Y-8251000D01*
X14399000Y-11708000D02*
X14399000Y-11808000D01*
X14349000Y-11758000D02*
X14449000Y-11758000D01*
X14526000Y-11200000D02*
X14526000Y-11300000D01*
X14476000Y-11250000D02*
X14576000Y-11250000D01*
X14544000Y-8201000D02*
X14544000Y-8301000D01*
X14494000Y-8251000D02*
X14594000Y-8251000D01*
X14653000Y-11708000D02*
X14653000Y-11808000D01*
X14603000Y-11758000D02*
X14703000Y-11758000D01*
X14696000Y-3375000D02*
X14696000Y-3475000D01*
X14646000Y-3425000D02*
X14746000Y-3425000D01*
X14780000Y-11200000D02*
X14780000Y-11300000D01*
X14730000Y-11250000D02*
X14830000Y-11250000D01*
X14798000Y-8201000D02*
X14798000Y-8301000D01*
X14748000Y-8251000D02*
X14848000Y-8251000D01*
X14907000Y-11708000D02*
X14907000Y-11808000D01*
X14857000Y-11758000D02*
X14957000Y-11758000D01*
X14950000Y-3375000D02*
X14950000Y-3475000D01*
X14900000Y-3425000D02*
X15000000Y-3425000D01*
X15034000Y-11200000D02*
X15034000Y-11300000D01*
X14984000Y-11250000D02*
X15084000Y-11250000D01*
X15052000Y-8201000D02*
X15052000Y-8301000D01*
X15002000Y-8251000D02*
X15102000Y-8251000D01*
X15161000Y-11708000D02*
X15161000Y-11808000D01*
X15111000Y-11758000D02*
X15211000Y-11758000D01*
X15204000Y-3375000D02*
X15204000Y-3475000D01*
X15154000Y-3425000D02*
X15254000Y-3425000D01*
X15288000Y-11200000D02*
X15288000Y-11300000D01*
X15238000Y-11250000D02*
X15338000Y-11250000D01*
X15306000Y-8201000D02*
X15306000Y-8301000D01*
X15256000Y-8251000D02*
X15356000Y-8251000D01*
X15415000Y-11708000D02*
X15415000Y-11808000D01*
X15365000Y-11758000D02*
X15465000Y-11758000D01*
X15458000Y-3375000D02*
X15458000Y-3475000D01*
X15408000Y-3425000D02*
X15508000Y-3425000D01*
X15542000Y-11200000D02*
X15542000Y-11300000D01*
X15492000Y-11250000D02*
X15592000Y-11250000D01*
X15560000Y-8201000D02*
X15560000Y-8301000D01*
X15510000Y-8251000D02*
X15610000Y-8251000D01*
X15669000Y-11708000D02*
X15669000Y-11808000D01*
X15619000Y-11758000D02*
X15719000Y-11758000D01*
X15712000Y-3375000D02*
X15712000Y-3475000D01*
X15662000Y-3425000D02*
X15762000Y-3425000D01*
X15796000Y-11200000D02*
X15796000Y-11300000D01*
X15746000Y-11250000D02*
X15846000Y-11250000D01*
X15814000Y-8201000D02*
X15814000Y-8301000D01*
X15764000Y-8251000D02*
X15864000Y-8251000D01*
X15923000Y-11708000D02*
X15923000Y-11808000D01*
X15873000Y-11758000D02*
X15973000Y-11758000D01*
X15966000Y-3375000D02*
X15966000Y-3475000D01*
X15916000Y-3425000D02*
X16016000Y-3425000D01*
X16050000Y-11200000D02*
X16050000Y-11300000D01*
X16000000Y-11250000D02*
X16100000Y-11250000D01*
X16068000Y-8201000D02*
X16068000Y-8301000D01*
X16018000Y-8251000D02*
X16118000Y-8251000D01*
X16177000Y-11708000D02*
X16177000Y-11808000D01*
X16127000Y-11758000D02*
X16227000Y-11758000D01*
X16220000Y-3375000D02*
X16220000Y-3475000D01*
X16170000Y-3425000D02*
X16270000Y-3425000D01*
X16474000Y-3375000D02*
X16474000Y-3475000D01*
X16424000Y-3425000D02*
X16524000Y-3425000D01*
X16474000Y-8201000D02*
X16474000Y-8301000D01*
X16424000Y-8251000D02*
X16524000Y-8251000D01*
X16728000Y-8201000D02*
X16728000Y-8301000D01*
X16678000Y-8251000D02*
X16778000Y-8251000D01*
X16982000Y-3375000D02*
X16982000Y-3475000D01*
X16932000Y-3425000D02*
X17032000Y-3425000D01*
X16982000Y-8201000D02*
X16982000Y-8301000D01*
X16932000Y-8251000D02*
X17032000Y-8251000D01*
X17236000Y-3375000D02*
X17236000Y-3475000D01*
X17186000Y-3425000D02*
X17286000Y-3425000D01*
X17236000Y-8201000D02*
X17236000Y-8301000D01*
X17186000Y-8251000D02*
X17286000Y-8251000D01*
X17490000Y-3375000D02*
X17490000Y-3475000D01*
X17440000Y-3425000D02*
X17540000Y-3425000D01*
X17490000Y-8201000D02*
X17490000Y-8301000D01*
X17440000Y-8251000D02*
X17540000Y-8251000D01*
X17744000Y-3375000D02*
X17744000Y-3475000D01*
X17694000Y-3425000D02*
X17794000Y-3425000D01*
X17744000Y-8201000D02*
X17744000Y-8301000D01*
X17694000Y-8251000D02*
X17794000Y-8251000D01*
X17998000Y-3375000D02*
X17998000Y-3475000D01*
X17948000Y-3425000D02*
X18048000Y-3425000D01*
X17998000Y-8201000D02*
X17998000Y-8301000D01*
X17948000Y-8251000D02*
X18048000Y-8251000D01*
X18252000Y-3375000D02*
X18252000Y-3475000D01*
X18202000Y-3425000D02*
X18302000Y-3425000D01*
X18252000Y-8201000D02*
X18252000Y-8301000D01*
X18202000Y-8251000D02*
X18302000Y-8251000D01*
D14*
X11945962Y-9597962D02*
X11945962Y-9506038D01*
X11854038Y-9506038D01*
X11854038Y-9597962D01*
X11945962Y-9597962D01*
X11945962Y-10105962D02*
X11945962Y-10014038D01*
X11854038Y-10014038D01*
X11854038Y-10105962D01*
X11945962Y-10105962D01*
X11945962Y-10613962D02*
X11945962Y-10522038D01*
X11854038Y-10522038D01*
X11854038Y-10613962D01*
X11945962Y-10613962D01*
X11945962Y-11121962D02*
X11945962Y-11030038D01*
X11854038Y-11030038D01*
X11854038Y-11121962D01*
X11945962Y-11121962D01*
X11945962Y-11629962D02*
X11945962Y-11538038D01*
X11854038Y-11538038D01*
X11854038Y-11629962D01*
X11945962Y-11629962D01*
X11945962Y-12137962D02*
X11945962Y-12046038D01*
X11854038Y-12046038D01*
X11854038Y-12137962D01*
X11945962Y-12137962D01*
X11945962Y-12645962D02*
X11945962Y-12554038D01*
X11854038Y-12554038D01*
X11854038Y-12645962D01*
X11945962Y-12645962D01*
X11945962Y-13153962D02*
X11945962Y-13062038D01*
X11854038Y-13062038D01*
X11854038Y-13153962D01*
X11945962Y-13153962D01*
D11*
X10755777Y-15016484D02*
X10755777Y-14816484D01*
X10755777Y-14816484D02*
X10803396Y-14816484D01*
X10803396Y-14816484D02*
X10831967Y-14826008D01*
X10831967Y-14826008D02*
X10851015Y-14845055D01*
X10851015Y-14845055D02*
X10860539Y-14864103D01*
X10860539Y-14864103D02*
X10870063Y-14902198D01*
X10870063Y-14902198D02*
X10870063Y-14930769D01*
X10870063Y-14930769D02*
X10860539Y-14968865D01*
X10860539Y-14968865D02*
X10851015Y-14987912D01*
X10851015Y-14987912D02*
X10831967Y-15006960D01*
X10831967Y-15006960D02*
X10803396Y-15016484D01*
X10803396Y-15016484D02*
X10755777Y-15016484D01*
X10955777Y-15016484D02*
X10955777Y-14883150D01*
X10955777Y-14921246D02*
X10965301Y-14902198D01*
X10965301Y-14902198D02*
X10974824Y-14892674D01*
X10974824Y-14892674D02*
X10993872Y-14883150D01*
X10993872Y-14883150D02*
X11012920Y-14883150D01*
X11079586Y-15016484D02*
X11079586Y-14883150D01*
X11079586Y-14816484D02*
X11070063Y-14826008D01*
X11070063Y-14826008D02*
X11079586Y-14835531D01*
X11079586Y-14835531D02*
X11089110Y-14826008D01*
X11089110Y-14826008D02*
X11079586Y-14816484D01*
X11079586Y-14816484D02*
X11079586Y-14835531D01*
X11203396Y-15016484D02*
X11184348Y-15006960D01*
X11184348Y-15006960D02*
X11174824Y-14987912D01*
X11174824Y-14987912D02*
X11174824Y-14816484D01*
X11308158Y-15016484D02*
X11289110Y-15006960D01*
X11289110Y-15006960D02*
X11279586Y-14987912D01*
X11279586Y-14987912D02*
X11279586Y-14816484D01*
X11536729Y-15016484D02*
X11536729Y-14816484D01*
X11536729Y-14816484D02*
X11603396Y-14959341D01*
X11603396Y-14959341D02*
X11670062Y-14816484D01*
X11670062Y-14816484D02*
X11670062Y-15016484D01*
X11851015Y-15016484D02*
X11851015Y-14911722D01*
X11851015Y-14911722D02*
X11841491Y-14892674D01*
X11841491Y-14892674D02*
X11822443Y-14883150D01*
X11822443Y-14883150D02*
X11784348Y-14883150D01*
X11784348Y-14883150D02*
X11765301Y-14892674D01*
X11851015Y-15006960D02*
X11831967Y-15016484D01*
X11831967Y-15016484D02*
X11784348Y-15016484D01*
X11784348Y-15016484D02*
X11765301Y-15006960D01*
X11765301Y-15006960D02*
X11755777Y-14987912D01*
X11755777Y-14987912D02*
X11755777Y-14968865D01*
X11755777Y-14968865D02*
X11765301Y-14949817D01*
X11765301Y-14949817D02*
X11784348Y-14940293D01*
X11784348Y-14940293D02*
X11831967Y-14940293D01*
X11831967Y-14940293D02*
X11851015Y-14930769D01*
X11946253Y-14883150D02*
X11946253Y-15083150D01*
X11946253Y-14892674D02*
X11965301Y-14883150D01*
X11965301Y-14883150D02*
X12003396Y-14883150D01*
X12003396Y-14883150D02*
X12022443Y-14892674D01*
X12022443Y-14892674D02*
X12031967Y-14902198D01*
X12031967Y-14902198D02*
X12041491Y-14921246D01*
X12041491Y-14921246D02*
X12041491Y-14978388D01*
X12041491Y-14978388D02*
X12031967Y-14997436D01*
X12031967Y-14997436D02*
X12022443Y-15006960D01*
X12022443Y-15006960D02*
X12003396Y-15016484D01*
X12003396Y-15016484D02*
X11965301Y-15016484D01*
X11965301Y-15016484D02*
X11946253Y-15006960D01*
X12127205Y-14997436D02*
X12136729Y-15006960D01*
X12136729Y-15006960D02*
X12127205Y-15016484D01*
X12127205Y-15016484D02*
X12117682Y-15006960D01*
X12117682Y-15006960D02*
X12127205Y-14997436D01*
X12127205Y-14997436D02*
X12127205Y-15016484D01*
X12127205Y-14892674D02*
X12136729Y-14902198D01*
X12136729Y-14902198D02*
X12127205Y-14911722D01*
X12127205Y-14911722D02*
X12117682Y-14902198D01*
X12117682Y-14902198D02*
X12127205Y-14892674D01*
X12127205Y-14892674D02*
X12127205Y-14911722D01*
D12*
X10455000Y-15325000D02*
X10495000Y-15365000D01*
X10495000Y-15325000D02*
X10455000Y-15365000D01*
D11*
X10793872Y-15236484D02*
X10812920Y-15236484D01*
X10812920Y-15236484D02*
X10831967Y-15246008D01*
X10831967Y-15246008D02*
X10841491Y-15255531D01*
X10841491Y-15255531D02*
X10851015Y-15274579D01*
X10851015Y-15274579D02*
X10860539Y-15312674D01*
X10860539Y-15312674D02*
X10860539Y-15360293D01*
X10860539Y-15360293D02*
X10851015Y-15398388D01*
X10851015Y-15398388D02*
X10841491Y-15417436D01*
X10841491Y-15417436D02*
X10831967Y-15426960D01*
X10831967Y-15426960D02*
X10812920Y-15436484D01*
X10812920Y-15436484D02*
X10793872Y-15436484D01*
X10793872Y-15436484D02*
X10774824Y-15426960D01*
X10774824Y-15426960D02*
X10765301Y-15417436D01*
X10765301Y-15417436D02*
X10755777Y-15398388D01*
X10755777Y-15398388D02*
X10746253Y-15360293D01*
X10746253Y-15360293D02*
X10746253Y-15312674D01*
X10746253Y-15312674D02*
X10755777Y-15274579D01*
X10755777Y-15274579D02*
X10765301Y-15255531D01*
X10765301Y-15255531D02*
X10774824Y-15246008D01*
X10774824Y-15246008D02*
X10793872Y-15236484D01*
X10946253Y-15417436D02*
X10955777Y-15426960D01*
X10955777Y-15426960D02*
X10946253Y-15436484D01*
X10946253Y-15436484D02*
X10936729Y-15426960D01*
X10936729Y-15426960D02*
X10946253Y-15417436D01*
X10946253Y-15417436D02*
X10946253Y-15436484D01*
X11127205Y-15303150D02*
X11127205Y-15436484D01*
X11079586Y-15226960D02*
X11031967Y-15369817D01*
X11031967Y-15369817D02*
X11155777Y-15369817D01*
X11270062Y-15236484D02*
X11289110Y-15236484D01*
X11289110Y-15236484D02*
X11308158Y-15246008D01*
X11308158Y-15246008D02*
X11317682Y-15255531D01*
X11317682Y-15255531D02*
X11327205Y-15274579D01*
X11327205Y-15274579D02*
X11336729Y-15312674D01*
X11336729Y-15312674D02*
X11336729Y-15360293D01*
X11336729Y-15360293D02*
X11327205Y-15398388D01*
X11327205Y-15398388D02*
X11317682Y-15417436D01*
X11317682Y-15417436D02*
X11308158Y-15426960D01*
X11308158Y-15426960D02*
X11289110Y-15436484D01*
X11289110Y-15436484D02*
X11270062Y-15436484D01*
X11270062Y-15436484D02*
X11251015Y-15426960D01*
X11251015Y-15426960D02*
X11241491Y-15417436D01*
X11241491Y-15417436D02*
X11231967Y-15398388D01*
X11231967Y-15398388D02*
X11222443Y-15360293D01*
X11222443Y-15360293D02*
X11222443Y-15312674D01*
X11222443Y-15312674D02*
X11231967Y-15274579D01*
X11231967Y-15274579D02*
X11241491Y-15255531D01*
X11241491Y-15255531D02*
X11251015Y-15246008D01*
X11251015Y-15246008D02*
X11270062Y-15236484D01*
X11460539Y-15236484D02*
X11479586Y-15236484D01*
X11479586Y-15236484D02*
X11498634Y-15246008D01*
X11498634Y-15246008D02*
X11508158Y-15255531D01*
X11508158Y-15255531D02*
X11517682Y-15274579D01*
X11517682Y-15274579D02*
X11527205Y-15312674D01*
X11527205Y-15312674D02*
X11527205Y-15360293D01*
X11527205Y-15360293D02*
X11517682Y-15398388D01*
X11517682Y-15398388D02*
X11508158Y-15417436D01*
X11508158Y-15417436D02*
X11498634Y-15426960D01*
X11498634Y-15426960D02*
X11479586Y-15436484D01*
X11479586Y-15436484D02*
X11460539Y-15436484D01*
X11460539Y-15436484D02*
X11441491Y-15426960D01*
X11441491Y-15426960D02*
X11431967Y-15417436D01*
X11431967Y-15417436D02*
X11422443Y-15398388D01*
X11422443Y-15398388D02*
X11412920Y-15360293D01*
X11412920Y-15360293D02*
X11412920Y-15312674D01*
X11412920Y-15312674D02*
X11422443Y-15274579D01*
X11422443Y-15274579D02*
X11431967Y-15255531D01*
X11431967Y-15255531D02*
X11441491Y-15246008D01*
X11441491Y-15246008D02*
X11460539Y-15236484D01*
X11612920Y-15436484D02*
X11612920Y-15303150D01*
X11612920Y-15322198D02*
X11622443Y-15312674D01*
X11622443Y-15312674D02*
X11641491Y-15303150D01*
X11641491Y-15303150D02*
X11670063Y-15303150D01*
X11670063Y-15303150D02*
X11689110Y-15312674D01*
X11689110Y-15312674D02*
X11698634Y-15331722D01*
X11698634Y-15331722D02*
X11698634Y-15436484D01*
X11698634Y-15331722D02*
X11708158Y-15312674D01*
X11708158Y-15312674D02*
X11727205Y-15303150D01*
X11727205Y-15303150D02*
X11755777Y-15303150D01*
X11755777Y-15303150D02*
X11774824Y-15312674D01*
X11774824Y-15312674D02*
X11784348Y-15331722D01*
X11784348Y-15331722D02*
X11784348Y-15436484D01*
X11879586Y-15436484D02*
X11879586Y-15303150D01*
X11879586Y-15322198D02*
X11889110Y-15312674D01*
X11889110Y-15312674D02*
X11908158Y-15303150D01*
X11908158Y-15303150D02*
X11936729Y-15303150D01*
X11936729Y-15303150D02*
X11955777Y-15312674D01*
X11955777Y-15312674D02*
X11965301Y-15331722D01*
X11965301Y-15331722D02*
X11965301Y-15436484D01*
X11965301Y-15331722D02*
X11974824Y-15312674D01*
X11974824Y-15312674D02*
X11993872Y-15303150D01*
X11993872Y-15303150D02*
X12022443Y-15303150D01*
X12022443Y-15303150D02*
X12041491Y-15312674D01*
X12041491Y-15312674D02*
X12051015Y-15331722D01*
X12051015Y-15331722D02*
X12051015Y-15436484D01*
X12441491Y-15226960D02*
X12270063Y-15484103D01*
X12698634Y-15236484D02*
X12717682Y-15236484D01*
X12717682Y-15236484D02*
X12736729Y-15246008D01*
X12736729Y-15246008D02*
X12746253Y-15255531D01*
X12746253Y-15255531D02*
X12755777Y-15274579D01*
X12755777Y-15274579D02*
X12765301Y-15312674D01*
X12765301Y-15312674D02*
X12765301Y-15360293D01*
X12765301Y-15360293D02*
X12755777Y-15398388D01*
X12755777Y-15398388D02*
X12746253Y-15417436D01*
X12746253Y-15417436D02*
X12736729Y-15426960D01*
X12736729Y-15426960D02*
X12717682Y-15436484D01*
X12717682Y-15436484D02*
X12698634Y-15436484D01*
X12698634Y-15436484D02*
X12679586Y-15426960D01*
X12679586Y-15426960D02*
X12670063Y-15417436D01*
X12670063Y-15417436D02*
X12660539Y-15398388D01*
X12660539Y-15398388D02*
X12651015Y-15360293D01*
X12651015Y-15360293D02*
X12651015Y-15312674D01*
X12651015Y-15312674D02*
X12660539Y-15274579D01*
X12660539Y-15274579D02*
X12670063Y-15255531D01*
X12670063Y-15255531D02*
X12679586Y-15246008D01*
X12679586Y-15246008D02*
X12698634Y-15236484D01*
X12851015Y-15417436D02*
X12860539Y-15426960D01*
X12860539Y-15426960D02*
X12851015Y-15436484D01*
X12851015Y-15436484D02*
X12841491Y-15426960D01*
X12841491Y-15426960D02*
X12851015Y-15417436D01*
X12851015Y-15417436D02*
X12851015Y-15436484D01*
X12984348Y-15236484D02*
X13003396Y-15236484D01*
X13003396Y-15236484D02*
X13022444Y-15246008D01*
X13022444Y-15246008D02*
X13031967Y-15255531D01*
X13031967Y-15255531D02*
X13041491Y-15274579D01*
X13041491Y-15274579D02*
X13051015Y-15312674D01*
X13051015Y-15312674D02*
X13051015Y-15360293D01*
X13051015Y-15360293D02*
X13041491Y-15398388D01*
X13041491Y-15398388D02*
X13031967Y-15417436D01*
X13031967Y-15417436D02*
X13022444Y-15426960D01*
X13022444Y-15426960D02*
X13003396Y-15436484D01*
X13003396Y-15436484D02*
X12984348Y-15436484D01*
X12984348Y-15436484D02*
X12965301Y-15426960D01*
X12965301Y-15426960D02*
X12955777Y-15417436D01*
X12955777Y-15417436D02*
X12946253Y-15398388D01*
X12946253Y-15398388D02*
X12936729Y-15360293D01*
X12936729Y-15360293D02*
X12936729Y-15312674D01*
X12936729Y-15312674D02*
X12946253Y-15274579D01*
X12946253Y-15274579D02*
X12955777Y-15255531D01*
X12955777Y-15255531D02*
X12965301Y-15246008D01*
X12965301Y-15246008D02*
X12984348Y-15236484D01*
X13241491Y-15436484D02*
X13127206Y-15436484D01*
X13184348Y-15436484D02*
X13184348Y-15236484D01*
X13184348Y-15236484D02*
X13165301Y-15265055D01*
X13165301Y-15265055D02*
X13146253Y-15284103D01*
X13146253Y-15284103D02*
X13127206Y-15293627D01*
X13422444Y-15236484D02*
X13327206Y-15236484D01*
X13327206Y-15236484D02*
X13317682Y-15331722D01*
X13317682Y-15331722D02*
X13327206Y-15322198D01*
X13327206Y-15322198D02*
X13346253Y-15312674D01*
X13346253Y-15312674D02*
X13393872Y-15312674D01*
X13393872Y-15312674D02*
X13412920Y-15322198D01*
X13412920Y-15322198D02*
X13422444Y-15331722D01*
X13422444Y-15331722D02*
X13431967Y-15350769D01*
X13431967Y-15350769D02*
X13431967Y-15398388D01*
X13431967Y-15398388D02*
X13422444Y-15417436D01*
X13422444Y-15417436D02*
X13412920Y-15426960D01*
X13412920Y-15426960D02*
X13393872Y-15436484D01*
X13393872Y-15436484D02*
X13346253Y-15436484D01*
X13346253Y-15436484D02*
X13327206Y-15426960D01*
X13327206Y-15426960D02*
X13317682Y-15417436D01*
X13498634Y-15236484D02*
X13631967Y-15236484D01*
X13631967Y-15236484D02*
X13546253Y-15436484D01*
X13698634Y-15236484D02*
X13698634Y-15274579D01*
X13774825Y-15236484D02*
X13774825Y-15274579D01*
X14070063Y-15512674D02*
X14060539Y-15503150D01*
X14060539Y-15503150D02*
X14041491Y-15474579D01*
X14041491Y-15474579D02*
X14031968Y-15455531D01*
X14031968Y-15455531D02*
X14022444Y-15426960D01*
X14022444Y-15426960D02*
X14012920Y-15379341D01*
X14012920Y-15379341D02*
X14012920Y-15341246D01*
X14012920Y-15341246D02*
X14022444Y-15293627D01*
X14022444Y-15293627D02*
X14031968Y-15265055D01*
X14031968Y-15265055D02*
X14041491Y-15246008D01*
X14041491Y-15246008D02*
X14060539Y-15217436D01*
X14060539Y-15217436D02*
X14070063Y-15207912D01*
X14127206Y-15236484D02*
X14251015Y-15236484D01*
X14251015Y-15236484D02*
X14184348Y-15312674D01*
X14184348Y-15312674D02*
X14212920Y-15312674D01*
X14212920Y-15312674D02*
X14231968Y-15322198D01*
X14231968Y-15322198D02*
X14241491Y-15331722D01*
X14241491Y-15331722D02*
X14251015Y-15350769D01*
X14251015Y-15350769D02*
X14251015Y-15398388D01*
X14251015Y-15398388D02*
X14241491Y-15417436D01*
X14241491Y-15417436D02*
X14231968Y-15426960D01*
X14231968Y-15426960D02*
X14212920Y-15436484D01*
X14212920Y-15436484D02*
X14155777Y-15436484D01*
X14155777Y-15436484D02*
X14136729Y-15426960D01*
X14136729Y-15426960D02*
X14127206Y-15417436D01*
X14441491Y-15436484D02*
X14327206Y-15436484D01*
X14384348Y-15436484D02*
X14384348Y-15236484D01*
X14384348Y-15236484D02*
X14365301Y-15265055D01*
X14365301Y-15265055D02*
X14346253Y-15284103D01*
X14346253Y-15284103D02*
X14327206Y-15293627D01*
X14679587Y-15436484D02*
X14679587Y-15236484D01*
X14765301Y-15436484D02*
X14765301Y-15331722D01*
X14765301Y-15331722D02*
X14755777Y-15312674D01*
X14755777Y-15312674D02*
X14736730Y-15303150D01*
X14736730Y-15303150D02*
X14708158Y-15303150D01*
X14708158Y-15303150D02*
X14689110Y-15312674D01*
X14689110Y-15312674D02*
X14679587Y-15322198D01*
X14889110Y-15436484D02*
X14870063Y-15426960D01*
X14870063Y-15426960D02*
X14860539Y-15417436D01*
X14860539Y-15417436D02*
X14851015Y-15398388D01*
X14851015Y-15398388D02*
X14851015Y-15341246D01*
X14851015Y-15341246D02*
X14860539Y-15322198D01*
X14860539Y-15322198D02*
X14870063Y-15312674D01*
X14870063Y-15312674D02*
X14889110Y-15303150D01*
X14889110Y-15303150D02*
X14917682Y-15303150D01*
X14917682Y-15303150D02*
X14936730Y-15312674D01*
X14936730Y-15312674D02*
X14946253Y-15322198D01*
X14946253Y-15322198D02*
X14955777Y-15341246D01*
X14955777Y-15341246D02*
X14955777Y-15398388D01*
X14955777Y-15398388D02*
X14946253Y-15417436D01*
X14946253Y-15417436D02*
X14936730Y-15426960D01*
X14936730Y-15426960D02*
X14917682Y-15436484D01*
X14917682Y-15436484D02*
X14889110Y-15436484D01*
X15070063Y-15436484D02*
X15051015Y-15426960D01*
X15051015Y-15426960D02*
X15041491Y-15407912D01*
X15041491Y-15407912D02*
X15041491Y-15236484D01*
X15222444Y-15426960D02*
X15203396Y-15436484D01*
X15203396Y-15436484D02*
X15165301Y-15436484D01*
X15165301Y-15436484D02*
X15146253Y-15426960D01*
X15146253Y-15426960D02*
X15136730Y-15407912D01*
X15136730Y-15407912D02*
X15136730Y-15331722D01*
X15136730Y-15331722D02*
X15146253Y-15312674D01*
X15146253Y-15312674D02*
X15165301Y-15303150D01*
X15165301Y-15303150D02*
X15203396Y-15303150D01*
X15203396Y-15303150D02*
X15222444Y-15312674D01*
X15222444Y-15312674D02*
X15231968Y-15331722D01*
X15231968Y-15331722D02*
X15231968Y-15350769D01*
X15231968Y-15350769D02*
X15136730Y-15369817D01*
X15308158Y-15426960D02*
X15327206Y-15436484D01*
X15327206Y-15436484D02*
X15365301Y-15436484D01*
X15365301Y-15436484D02*
X15384349Y-15426960D01*
X15384349Y-15426960D02*
X15393872Y-15407912D01*
X15393872Y-15407912D02*
X15393872Y-15398388D01*
X15393872Y-15398388D02*
X15384349Y-15379341D01*
X15384349Y-15379341D02*
X15365301Y-15369817D01*
X15365301Y-15369817D02*
X15336730Y-15369817D01*
X15336730Y-15369817D02*
X15317682Y-15360293D01*
X15317682Y-15360293D02*
X15308158Y-15341246D01*
X15308158Y-15341246D02*
X15308158Y-15331722D01*
X15308158Y-15331722D02*
X15317682Y-15312674D01*
X15317682Y-15312674D02*
X15336730Y-15303150D01*
X15336730Y-15303150D02*
X15365301Y-15303150D01*
X15365301Y-15303150D02*
X15384349Y-15312674D01*
X15460539Y-15512674D02*
X15470063Y-15503150D01*
X15470063Y-15503150D02*
X15489111Y-15474579D01*
X15489111Y-15474579D02*
X15498634Y-15455531D01*
X15498634Y-15455531D02*
X15508158Y-15426960D01*
X15508158Y-15426960D02*
X15517682Y-15379341D01*
X15517682Y-15379341D02*
X15517682Y-15341246D01*
X15517682Y-15341246D02*
X15508158Y-15293627D01*
X15508158Y-15293627D02*
X15498634Y-15265055D01*
X15498634Y-15265055D02*
X15489111Y-15246008D01*
X15489111Y-15246008D02*
X15470063Y-15217436D01*
X15470063Y-15217436D02*
X15460539Y-15207912D01*
D13*
X10495000Y-15609000D02*
G75*
G03*
X10495000Y-15609000I-40000J0D01*
G01*
D11*
X10793872Y-15500484D02*
X10812920Y-15500484D01*
X10812920Y-15500484D02*
X10831967Y-15510008D01*
X10831967Y-15510008D02*
X10841491Y-15519531D01*
X10841491Y-15519531D02*
X10851015Y-15538579D01*
X10851015Y-15538579D02*
X10860539Y-15576674D01*
X10860539Y-15576674D02*
X10860539Y-15624293D01*
X10860539Y-15624293D02*
X10851015Y-15662388D01*
X10851015Y-15662388D02*
X10841491Y-15681436D01*
X10841491Y-15681436D02*
X10831967Y-15690960D01*
X10831967Y-15690960D02*
X10812920Y-15700484D01*
X10812920Y-15700484D02*
X10793872Y-15700484D01*
X10793872Y-15700484D02*
X10774824Y-15690960D01*
X10774824Y-15690960D02*
X10765301Y-15681436D01*
X10765301Y-15681436D02*
X10755777Y-15662388D01*
X10755777Y-15662388D02*
X10746253Y-15624293D01*
X10746253Y-15624293D02*
X10746253Y-15576674D01*
X10746253Y-15576674D02*
X10755777Y-15538579D01*
X10755777Y-15538579D02*
X10765301Y-15519531D01*
X10765301Y-15519531D02*
X10774824Y-15510008D01*
X10774824Y-15510008D02*
X10793872Y-15500484D01*
X10946253Y-15681436D02*
X10955777Y-15690960D01*
X10955777Y-15690960D02*
X10946253Y-15700484D01*
X10946253Y-15700484D02*
X10936729Y-15690960D01*
X10936729Y-15690960D02*
X10946253Y-15681436D01*
X10946253Y-15681436D02*
X10946253Y-15700484D01*
X11070063Y-15586198D02*
X11051015Y-15576674D01*
X11051015Y-15576674D02*
X11041491Y-15567150D01*
X11041491Y-15567150D02*
X11031967Y-15548103D01*
X11031967Y-15548103D02*
X11031967Y-15538579D01*
X11031967Y-15538579D02*
X11041491Y-15519531D01*
X11041491Y-15519531D02*
X11051015Y-15510008D01*
X11051015Y-15510008D02*
X11070063Y-15500484D01*
X11070063Y-15500484D02*
X11108158Y-15500484D01*
X11108158Y-15500484D02*
X11127205Y-15510008D01*
X11127205Y-15510008D02*
X11136729Y-15519531D01*
X11136729Y-15519531D02*
X11146253Y-15538579D01*
X11146253Y-15538579D02*
X11146253Y-15548103D01*
X11146253Y-15548103D02*
X11136729Y-15567150D01*
X11136729Y-15567150D02*
X11127205Y-15576674D01*
X11127205Y-15576674D02*
X11108158Y-15586198D01*
X11108158Y-15586198D02*
X11070063Y-15586198D01*
X11070063Y-15586198D02*
X11051015Y-15595722D01*
X11051015Y-15595722D02*
X11041491Y-15605246D01*
X11041491Y-15605246D02*
X11031967Y-15624293D01*
X11031967Y-15624293D02*
X11031967Y-15662388D01*
X11031967Y-15662388D02*
X11041491Y-15681436D01*
X11041491Y-15681436D02*
X11051015Y-15690960D01*
X11051015Y-15690960D02*
X11070063Y-15700484D01*
X11070063Y-15700484D02*
X11108158Y-15700484D01*
X11108158Y-15700484D02*
X11127205Y-15690960D01*
X11127205Y-15690960D02*
X11136729Y-15681436D01*
X11136729Y-15681436D02*
X11146253Y-15662388D01*
X11146253Y-15662388D02*
X11146253Y-15624293D01*
X11146253Y-15624293D02*
X11136729Y-15605246D01*
X11136729Y-15605246D02*
X11127205Y-15595722D01*
X11127205Y-15595722D02*
X11108158Y-15586198D01*
X11270062Y-15500484D02*
X11289110Y-15500484D01*
X11289110Y-15500484D02*
X11308158Y-15510008D01*
X11308158Y-15510008D02*
X11317682Y-15519531D01*
X11317682Y-15519531D02*
X11327205Y-15538579D01*
X11327205Y-15538579D02*
X11336729Y-15576674D01*
X11336729Y-15576674D02*
X11336729Y-15624293D01*
X11336729Y-15624293D02*
X11327205Y-15662388D01*
X11327205Y-15662388D02*
X11317682Y-15681436D01*
X11317682Y-15681436D02*
X11308158Y-15690960D01*
X11308158Y-15690960D02*
X11289110Y-15700484D01*
X11289110Y-15700484D02*
X11270062Y-15700484D01*
X11270062Y-15700484D02*
X11251015Y-15690960D01*
X11251015Y-15690960D02*
X11241491Y-15681436D01*
X11241491Y-15681436D02*
X11231967Y-15662388D01*
X11231967Y-15662388D02*
X11222443Y-15624293D01*
X11222443Y-15624293D02*
X11222443Y-15576674D01*
X11222443Y-15576674D02*
X11231967Y-15538579D01*
X11231967Y-15538579D02*
X11241491Y-15519531D01*
X11241491Y-15519531D02*
X11251015Y-15510008D01*
X11251015Y-15510008D02*
X11270062Y-15500484D01*
X11460539Y-15500484D02*
X11479586Y-15500484D01*
X11479586Y-15500484D02*
X11498634Y-15510008D01*
X11498634Y-15510008D02*
X11508158Y-15519531D01*
X11508158Y-15519531D02*
X11517682Y-15538579D01*
X11517682Y-15538579D02*
X11527205Y-15576674D01*
X11527205Y-15576674D02*
X11527205Y-15624293D01*
X11527205Y-15624293D02*
X11517682Y-15662388D01*
X11517682Y-15662388D02*
X11508158Y-15681436D01*
X11508158Y-15681436D02*
X11498634Y-15690960D01*
X11498634Y-15690960D02*
X11479586Y-15700484D01*
X11479586Y-15700484D02*
X11460539Y-15700484D01*
X11460539Y-15700484D02*
X11441491Y-15690960D01*
X11441491Y-15690960D02*
X11431967Y-15681436D01*
X11431967Y-15681436D02*
X11422443Y-15662388D01*
X11422443Y-15662388D02*
X11412920Y-15624293D01*
X11412920Y-15624293D02*
X11412920Y-15576674D01*
X11412920Y-15576674D02*
X11422443Y-15538579D01*
X11422443Y-15538579D02*
X11431967Y-15519531D01*
X11431967Y-15519531D02*
X11441491Y-15510008D01*
X11441491Y-15510008D02*
X11460539Y-15500484D01*
X11612920Y-15700484D02*
X11612920Y-15567150D01*
X11612920Y-15586198D02*
X11622443Y-15576674D01*
X11622443Y-15576674D02*
X11641491Y-15567150D01*
X11641491Y-15567150D02*
X11670063Y-15567150D01*
X11670063Y-15567150D02*
X11689110Y-15576674D01*
X11689110Y-15576674D02*
X11698634Y-15595722D01*
X11698634Y-15595722D02*
X11698634Y-15700484D01*
X11698634Y-15595722D02*
X11708158Y-15576674D01*
X11708158Y-15576674D02*
X11727205Y-15567150D01*
X11727205Y-15567150D02*
X11755777Y-15567150D01*
X11755777Y-15567150D02*
X11774824Y-15576674D01*
X11774824Y-15576674D02*
X11784348Y-15595722D01*
X11784348Y-15595722D02*
X11784348Y-15700484D01*
X11879586Y-15700484D02*
X11879586Y-15567150D01*
X11879586Y-15586198D02*
X11889110Y-15576674D01*
X11889110Y-15576674D02*
X11908158Y-15567150D01*
X11908158Y-15567150D02*
X11936729Y-15567150D01*
X11936729Y-15567150D02*
X11955777Y-15576674D01*
X11955777Y-15576674D02*
X11965301Y-15595722D01*
X11965301Y-15595722D02*
X11965301Y-15700484D01*
X11965301Y-15595722D02*
X11974824Y-15576674D01*
X11974824Y-15576674D02*
X11993872Y-15567150D01*
X11993872Y-15567150D02*
X12022443Y-15567150D01*
X12022443Y-15567150D02*
X12041491Y-15576674D01*
X12041491Y-15576674D02*
X12051015Y-15595722D01*
X12051015Y-15595722D02*
X12051015Y-15700484D01*
X12441491Y-15490960D02*
X12270063Y-15748103D01*
X12698634Y-15500484D02*
X12717682Y-15500484D01*
X12717682Y-15500484D02*
X12736729Y-15510008D01*
X12736729Y-15510008D02*
X12746253Y-15519531D01*
X12746253Y-15519531D02*
X12755777Y-15538579D01*
X12755777Y-15538579D02*
X12765301Y-15576674D01*
X12765301Y-15576674D02*
X12765301Y-15624293D01*
X12765301Y-15624293D02*
X12755777Y-15662388D01*
X12755777Y-15662388D02*
X12746253Y-15681436D01*
X12746253Y-15681436D02*
X12736729Y-15690960D01*
X12736729Y-15690960D02*
X12717682Y-15700484D01*
X12717682Y-15700484D02*
X12698634Y-15700484D01*
X12698634Y-15700484D02*
X12679586Y-15690960D01*
X12679586Y-15690960D02*
X12670063Y-15681436D01*
X12670063Y-15681436D02*
X12660539Y-15662388D01*
X12660539Y-15662388D02*
X12651015Y-15624293D01*
X12651015Y-15624293D02*
X12651015Y-15576674D01*
X12651015Y-15576674D02*
X12660539Y-15538579D01*
X12660539Y-15538579D02*
X12670063Y-15519531D01*
X12670063Y-15519531D02*
X12679586Y-15510008D01*
X12679586Y-15510008D02*
X12698634Y-15500484D01*
X12851015Y-15681436D02*
X12860539Y-15690960D01*
X12860539Y-15690960D02*
X12851015Y-15700484D01*
X12851015Y-15700484D02*
X12841491Y-15690960D01*
X12841491Y-15690960D02*
X12851015Y-15681436D01*
X12851015Y-15681436D02*
X12851015Y-15700484D01*
X12984348Y-15500484D02*
X13003396Y-15500484D01*
X13003396Y-15500484D02*
X13022444Y-15510008D01*
X13022444Y-15510008D02*
X13031967Y-15519531D01*
X13031967Y-15519531D02*
X13041491Y-15538579D01*
X13041491Y-15538579D02*
X13051015Y-15576674D01*
X13051015Y-15576674D02*
X13051015Y-15624293D01*
X13051015Y-15624293D02*
X13041491Y-15662388D01*
X13041491Y-15662388D02*
X13031967Y-15681436D01*
X13031967Y-15681436D02*
X13022444Y-15690960D01*
X13022444Y-15690960D02*
X13003396Y-15700484D01*
X13003396Y-15700484D02*
X12984348Y-15700484D01*
X12984348Y-15700484D02*
X12965301Y-15690960D01*
X12965301Y-15690960D02*
X12955777Y-15681436D01*
X12955777Y-15681436D02*
X12946253Y-15662388D01*
X12946253Y-15662388D02*
X12936729Y-15624293D01*
X12936729Y-15624293D02*
X12936729Y-15576674D01*
X12936729Y-15576674D02*
X12946253Y-15538579D01*
X12946253Y-15538579D02*
X12955777Y-15519531D01*
X12955777Y-15519531D02*
X12965301Y-15510008D01*
X12965301Y-15510008D02*
X12984348Y-15500484D01*
X13117682Y-15500484D02*
X13241491Y-15500484D01*
X13241491Y-15500484D02*
X13174825Y-15576674D01*
X13174825Y-15576674D02*
X13203396Y-15576674D01*
X13203396Y-15576674D02*
X13222444Y-15586198D01*
X13222444Y-15586198D02*
X13231967Y-15595722D01*
X13231967Y-15595722D02*
X13241491Y-15614769D01*
X13241491Y-15614769D02*
X13241491Y-15662388D01*
X13241491Y-15662388D02*
X13231967Y-15681436D01*
X13231967Y-15681436D02*
X13222444Y-15690960D01*
X13222444Y-15690960D02*
X13203396Y-15700484D01*
X13203396Y-15700484D02*
X13146253Y-15700484D01*
X13146253Y-15700484D02*
X13127206Y-15690960D01*
X13127206Y-15690960D02*
X13117682Y-15681436D01*
X13431967Y-15700484D02*
X13317682Y-15700484D01*
X13374825Y-15700484D02*
X13374825Y-15500484D01*
X13374825Y-15500484D02*
X13355777Y-15529055D01*
X13355777Y-15529055D02*
X13336729Y-15548103D01*
X13336729Y-15548103D02*
X13317682Y-15557627D01*
X13612920Y-15500484D02*
X13517682Y-15500484D01*
X13517682Y-15500484D02*
X13508158Y-15595722D01*
X13508158Y-15595722D02*
X13517682Y-15586198D01*
X13517682Y-15586198D02*
X13536729Y-15576674D01*
X13536729Y-15576674D02*
X13584348Y-15576674D01*
X13584348Y-15576674D02*
X13603396Y-15586198D01*
X13603396Y-15586198D02*
X13612920Y-15595722D01*
X13612920Y-15595722D02*
X13622444Y-15614769D01*
X13622444Y-15614769D02*
X13622444Y-15662388D01*
X13622444Y-15662388D02*
X13612920Y-15681436D01*
X13612920Y-15681436D02*
X13603396Y-15690960D01*
X13603396Y-15690960D02*
X13584348Y-15700484D01*
X13584348Y-15700484D02*
X13536729Y-15700484D01*
X13536729Y-15700484D02*
X13517682Y-15690960D01*
X13517682Y-15690960D02*
X13508158Y-15681436D01*
X13698634Y-15500484D02*
X13698634Y-15538579D01*
X13774825Y-15500484D02*
X13774825Y-15538579D01*
X14070063Y-15776674D02*
X14060539Y-15767150D01*
X14060539Y-15767150D02*
X14041491Y-15738579D01*
X14041491Y-15738579D02*
X14031968Y-15719531D01*
X14031968Y-15719531D02*
X14022444Y-15690960D01*
X14022444Y-15690960D02*
X14012920Y-15643341D01*
X14012920Y-15643341D02*
X14012920Y-15605246D01*
X14012920Y-15605246D02*
X14022444Y-15557627D01*
X14022444Y-15557627D02*
X14031968Y-15529055D01*
X14031968Y-15529055D02*
X14041491Y-15510008D01*
X14041491Y-15510008D02*
X14060539Y-15481436D01*
X14060539Y-15481436D02*
X14070063Y-15471912D01*
X14231968Y-15500484D02*
X14193872Y-15500484D01*
X14193872Y-15500484D02*
X14174825Y-15510008D01*
X14174825Y-15510008D02*
X14165301Y-15519531D01*
X14165301Y-15519531D02*
X14146253Y-15548103D01*
X14146253Y-15548103D02*
X14136729Y-15586198D01*
X14136729Y-15586198D02*
X14136729Y-15662388D01*
X14136729Y-15662388D02*
X14146253Y-15681436D01*
X14146253Y-15681436D02*
X14155777Y-15690960D01*
X14155777Y-15690960D02*
X14174825Y-15700484D01*
X14174825Y-15700484D02*
X14212920Y-15700484D01*
X14212920Y-15700484D02*
X14231968Y-15690960D01*
X14231968Y-15690960D02*
X14241491Y-15681436D01*
X14241491Y-15681436D02*
X14251015Y-15662388D01*
X14251015Y-15662388D02*
X14251015Y-15614769D01*
X14251015Y-15614769D02*
X14241491Y-15595722D01*
X14241491Y-15595722D02*
X14231968Y-15586198D01*
X14231968Y-15586198D02*
X14212920Y-15576674D01*
X14212920Y-15576674D02*
X14174825Y-15576674D01*
X14174825Y-15576674D02*
X14155777Y-15586198D01*
X14155777Y-15586198D02*
X14146253Y-15595722D01*
X14146253Y-15595722D02*
X14136729Y-15614769D01*
X14489110Y-15700484D02*
X14489110Y-15500484D01*
X14574825Y-15700484D02*
X14574825Y-15595722D01*
X14574825Y-15595722D02*
X14565301Y-15576674D01*
X14565301Y-15576674D02*
X14546253Y-15567150D01*
X14546253Y-15567150D02*
X14517682Y-15567150D01*
X14517682Y-15567150D02*
X14498634Y-15576674D01*
X14498634Y-15576674D02*
X14489110Y-15586198D01*
X14698634Y-15700484D02*
X14679587Y-15690960D01*
X14679587Y-15690960D02*
X14670063Y-15681436D01*
X14670063Y-15681436D02*
X14660539Y-15662388D01*
X14660539Y-15662388D02*
X14660539Y-15605246D01*
X14660539Y-15605246D02*
X14670063Y-15586198D01*
X14670063Y-15586198D02*
X14679587Y-15576674D01*
X14679587Y-15576674D02*
X14698634Y-15567150D01*
X14698634Y-15567150D02*
X14727206Y-15567150D01*
X14727206Y-15567150D02*
X14746253Y-15576674D01*
X14746253Y-15576674D02*
X14755777Y-15586198D01*
X14755777Y-15586198D02*
X14765301Y-15605246D01*
X14765301Y-15605246D02*
X14765301Y-15662388D01*
X14765301Y-15662388D02*
X14755777Y-15681436D01*
X14755777Y-15681436D02*
X14746253Y-15690960D01*
X14746253Y-15690960D02*
X14727206Y-15700484D01*
X14727206Y-15700484D02*
X14698634Y-15700484D01*
X14879587Y-15700484D02*
X14860539Y-15690960D01*
X14860539Y-15690960D02*
X14851015Y-15671912D01*
X14851015Y-15671912D02*
X14851015Y-15500484D01*
X15031968Y-15690960D02*
X15012920Y-15700484D01*
X15012920Y-15700484D02*
X14974825Y-15700484D01*
X14974825Y-15700484D02*
X14955777Y-15690960D01*
X14955777Y-15690960D02*
X14946253Y-15671912D01*
X14946253Y-15671912D02*
X14946253Y-15595722D01*
X14946253Y-15595722D02*
X14955777Y-15576674D01*
X14955777Y-15576674D02*
X14974825Y-15567150D01*
X14974825Y-15567150D02*
X15012920Y-15567150D01*
X15012920Y-15567150D02*
X15031968Y-15576674D01*
X15031968Y-15576674D02*
X15041491Y-15595722D01*
X15041491Y-15595722D02*
X15041491Y-15614769D01*
X15041491Y-15614769D02*
X14946253Y-15633817D01*
X15117682Y-15690960D02*
X15136730Y-15700484D01*
X15136730Y-15700484D02*
X15174825Y-15700484D01*
X15174825Y-15700484D02*
X15193872Y-15690960D01*
X15193872Y-15690960D02*
X15203396Y-15671912D01*
X15203396Y-15671912D02*
X15203396Y-15662388D01*
X15203396Y-15662388D02*
X15193872Y-15643341D01*
X15193872Y-15643341D02*
X15174825Y-15633817D01*
X15174825Y-15633817D02*
X15146253Y-15633817D01*
X15146253Y-15633817D02*
X15127206Y-15624293D01*
X15127206Y-15624293D02*
X15117682Y-15605246D01*
X15117682Y-15605246D02*
X15117682Y-15595722D01*
X15117682Y-15595722D02*
X15127206Y-15576674D01*
X15127206Y-15576674D02*
X15146253Y-15567150D01*
X15146253Y-15567150D02*
X15174825Y-15567150D01*
X15174825Y-15567150D02*
X15193872Y-15576674D01*
X15270063Y-15776674D02*
X15279587Y-15767150D01*
X15279587Y-15767150D02*
X15298634Y-15738579D01*
X15298634Y-15738579D02*
X15308158Y-15719531D01*
X15308158Y-15719531D02*
X15317682Y-15690960D01*
X15317682Y-15690960D02*
X15327206Y-15643341D01*
X15327206Y-15643341D02*
X15327206Y-15605246D01*
X15327206Y-15605246D02*
X15317682Y-15557627D01*
X15317682Y-15557627D02*
X15308158Y-15529055D01*
X15308158Y-15529055D02*
X15298634Y-15510008D01*
X15298634Y-15510008D02*
X15279587Y-15481436D01*
X15279587Y-15481436D02*
X15270063Y-15471912D01*
D10*
X10445000Y-15823000D02*
X10445000Y-15923000D01*
X10395000Y-15873000D02*
X10495000Y-15873000D01*
D11*
X10860539Y-15964484D02*
X10746253Y-15964484D01*
X10803396Y-15964484D02*
X10803396Y-15764484D01*
X10803396Y-15764484D02*
X10784348Y-15793055D01*
X10784348Y-15793055D02*
X10765301Y-15812103D01*
X10765301Y-15812103D02*
X10746253Y-15821627D01*
X10946253Y-15945436D02*
X10955777Y-15954960D01*
X10955777Y-15954960D02*
X10946253Y-15964484D01*
X10946253Y-15964484D02*
X10936729Y-15954960D01*
X10936729Y-15954960D02*
X10946253Y-15945436D01*
X10946253Y-15945436D02*
X10946253Y-15964484D01*
X11079586Y-15764484D02*
X11098634Y-15764484D01*
X11098634Y-15764484D02*
X11117682Y-15774008D01*
X11117682Y-15774008D02*
X11127205Y-15783531D01*
X11127205Y-15783531D02*
X11136729Y-15802579D01*
X11136729Y-15802579D02*
X11146253Y-15840674D01*
X11146253Y-15840674D02*
X11146253Y-15888293D01*
X11146253Y-15888293D02*
X11136729Y-15926388D01*
X11136729Y-15926388D02*
X11127205Y-15945436D01*
X11127205Y-15945436D02*
X11117682Y-15954960D01*
X11117682Y-15954960D02*
X11098634Y-15964484D01*
X11098634Y-15964484D02*
X11079586Y-15964484D01*
X11079586Y-15964484D02*
X11060539Y-15954960D01*
X11060539Y-15954960D02*
X11051015Y-15945436D01*
X11051015Y-15945436D02*
X11041491Y-15926388D01*
X11041491Y-15926388D02*
X11031967Y-15888293D01*
X11031967Y-15888293D02*
X11031967Y-15840674D01*
X11031967Y-15840674D02*
X11041491Y-15802579D01*
X11041491Y-15802579D02*
X11051015Y-15783531D01*
X11051015Y-15783531D02*
X11060539Y-15774008D01*
X11060539Y-15774008D02*
X11079586Y-15764484D01*
X11270062Y-15764484D02*
X11289110Y-15764484D01*
X11289110Y-15764484D02*
X11308158Y-15774008D01*
X11308158Y-15774008D02*
X11317682Y-15783531D01*
X11317682Y-15783531D02*
X11327205Y-15802579D01*
X11327205Y-15802579D02*
X11336729Y-15840674D01*
X11336729Y-15840674D02*
X11336729Y-15888293D01*
X11336729Y-15888293D02*
X11327205Y-15926388D01*
X11327205Y-15926388D02*
X11317682Y-15945436D01*
X11317682Y-15945436D02*
X11308158Y-15954960D01*
X11308158Y-15954960D02*
X11289110Y-15964484D01*
X11289110Y-15964484D02*
X11270062Y-15964484D01*
X11270062Y-15964484D02*
X11251015Y-15954960D01*
X11251015Y-15954960D02*
X11241491Y-15945436D01*
X11241491Y-15945436D02*
X11231967Y-15926388D01*
X11231967Y-15926388D02*
X11222443Y-15888293D01*
X11222443Y-15888293D02*
X11222443Y-15840674D01*
X11222443Y-15840674D02*
X11231967Y-15802579D01*
X11231967Y-15802579D02*
X11241491Y-15783531D01*
X11241491Y-15783531D02*
X11251015Y-15774008D01*
X11251015Y-15774008D02*
X11270062Y-15764484D01*
X11460539Y-15764484D02*
X11479586Y-15764484D01*
X11479586Y-15764484D02*
X11498634Y-15774008D01*
X11498634Y-15774008D02*
X11508158Y-15783531D01*
X11508158Y-15783531D02*
X11517682Y-15802579D01*
X11517682Y-15802579D02*
X11527205Y-15840674D01*
X11527205Y-15840674D02*
X11527205Y-15888293D01*
X11527205Y-15888293D02*
X11517682Y-15926388D01*
X11517682Y-15926388D02*
X11508158Y-15945436D01*
X11508158Y-15945436D02*
X11498634Y-15954960D01*
X11498634Y-15954960D02*
X11479586Y-15964484D01*
X11479586Y-15964484D02*
X11460539Y-15964484D01*
X11460539Y-15964484D02*
X11441491Y-15954960D01*
X11441491Y-15954960D02*
X11431967Y-15945436D01*
X11431967Y-15945436D02*
X11422443Y-15926388D01*
X11422443Y-15926388D02*
X11412920Y-15888293D01*
X11412920Y-15888293D02*
X11412920Y-15840674D01*
X11412920Y-15840674D02*
X11422443Y-15802579D01*
X11422443Y-15802579D02*
X11431967Y-15783531D01*
X11431967Y-15783531D02*
X11441491Y-15774008D01*
X11441491Y-15774008D02*
X11460539Y-15764484D01*
X11612920Y-15964484D02*
X11612920Y-15831150D01*
X11612920Y-15850198D02*
X11622443Y-15840674D01*
X11622443Y-15840674D02*
X11641491Y-15831150D01*
X11641491Y-15831150D02*
X11670063Y-15831150D01*
X11670063Y-15831150D02*
X11689110Y-15840674D01*
X11689110Y-15840674D02*
X11698634Y-15859722D01*
X11698634Y-15859722D02*
X11698634Y-15964484D01*
X11698634Y-15859722D02*
X11708158Y-15840674D01*
X11708158Y-15840674D02*
X11727205Y-15831150D01*
X11727205Y-15831150D02*
X11755777Y-15831150D01*
X11755777Y-15831150D02*
X11774824Y-15840674D01*
X11774824Y-15840674D02*
X11784348Y-15859722D01*
X11784348Y-15859722D02*
X11784348Y-15964484D01*
X11879586Y-15964484D02*
X11879586Y-15831150D01*
X11879586Y-15850198D02*
X11889110Y-15840674D01*
X11889110Y-15840674D02*
X11908158Y-15831150D01*
X11908158Y-15831150D02*
X11936729Y-15831150D01*
X11936729Y-15831150D02*
X11955777Y-15840674D01*
X11955777Y-15840674D02*
X11965301Y-15859722D01*
X11965301Y-15859722D02*
X11965301Y-15964484D01*
X11965301Y-15859722D02*
X11974824Y-15840674D01*
X11974824Y-15840674D02*
X11993872Y-15831150D01*
X11993872Y-15831150D02*
X12022443Y-15831150D01*
X12022443Y-15831150D02*
X12041491Y-15840674D01*
X12041491Y-15840674D02*
X12051015Y-15859722D01*
X12051015Y-15859722D02*
X12051015Y-15964484D01*
X12441491Y-15754960D02*
X12270063Y-16012103D01*
X12698634Y-15764484D02*
X12717682Y-15764484D01*
X12717682Y-15764484D02*
X12736729Y-15774008D01*
X12736729Y-15774008D02*
X12746253Y-15783531D01*
X12746253Y-15783531D02*
X12755777Y-15802579D01*
X12755777Y-15802579D02*
X12765301Y-15840674D01*
X12765301Y-15840674D02*
X12765301Y-15888293D01*
X12765301Y-15888293D02*
X12755777Y-15926388D01*
X12755777Y-15926388D02*
X12746253Y-15945436D01*
X12746253Y-15945436D02*
X12736729Y-15954960D01*
X12736729Y-15954960D02*
X12717682Y-15964484D01*
X12717682Y-15964484D02*
X12698634Y-15964484D01*
X12698634Y-15964484D02*
X12679586Y-15954960D01*
X12679586Y-15954960D02*
X12670063Y-15945436D01*
X12670063Y-15945436D02*
X12660539Y-15926388D01*
X12660539Y-15926388D02*
X12651015Y-15888293D01*
X12651015Y-15888293D02*
X12651015Y-15840674D01*
X12651015Y-15840674D02*
X12660539Y-15802579D01*
X12660539Y-15802579D02*
X12670063Y-15783531D01*
X12670063Y-15783531D02*
X12679586Y-15774008D01*
X12679586Y-15774008D02*
X12698634Y-15764484D01*
X12851015Y-15945436D02*
X12860539Y-15954960D01*
X12860539Y-15954960D02*
X12851015Y-15964484D01*
X12851015Y-15964484D02*
X12841491Y-15954960D01*
X12841491Y-15954960D02*
X12851015Y-15945436D01*
X12851015Y-15945436D02*
X12851015Y-15964484D01*
X12984348Y-15764484D02*
X13003396Y-15764484D01*
X13003396Y-15764484D02*
X13022444Y-15774008D01*
X13022444Y-15774008D02*
X13031967Y-15783531D01*
X13031967Y-15783531D02*
X13041491Y-15802579D01*
X13041491Y-15802579D02*
X13051015Y-15840674D01*
X13051015Y-15840674D02*
X13051015Y-15888293D01*
X13051015Y-15888293D02*
X13041491Y-15926388D01*
X13041491Y-15926388D02*
X13031967Y-15945436D01*
X13031967Y-15945436D02*
X13022444Y-15954960D01*
X13022444Y-15954960D02*
X13003396Y-15964484D01*
X13003396Y-15964484D02*
X12984348Y-15964484D01*
X12984348Y-15964484D02*
X12965301Y-15954960D01*
X12965301Y-15954960D02*
X12955777Y-15945436D01*
X12955777Y-15945436D02*
X12946253Y-15926388D01*
X12946253Y-15926388D02*
X12936729Y-15888293D01*
X12936729Y-15888293D02*
X12936729Y-15840674D01*
X12936729Y-15840674D02*
X12946253Y-15802579D01*
X12946253Y-15802579D02*
X12955777Y-15783531D01*
X12955777Y-15783531D02*
X12965301Y-15774008D01*
X12965301Y-15774008D02*
X12984348Y-15764484D01*
X13117682Y-15764484D02*
X13241491Y-15764484D01*
X13241491Y-15764484D02*
X13174825Y-15840674D01*
X13174825Y-15840674D02*
X13203396Y-15840674D01*
X13203396Y-15840674D02*
X13222444Y-15850198D01*
X13222444Y-15850198D02*
X13231967Y-15859722D01*
X13231967Y-15859722D02*
X13241491Y-15878769D01*
X13241491Y-15878769D02*
X13241491Y-15926388D01*
X13241491Y-15926388D02*
X13231967Y-15945436D01*
X13231967Y-15945436D02*
X13222444Y-15954960D01*
X13222444Y-15954960D02*
X13203396Y-15964484D01*
X13203396Y-15964484D02*
X13146253Y-15964484D01*
X13146253Y-15964484D02*
X13127206Y-15954960D01*
X13127206Y-15954960D02*
X13117682Y-15945436D01*
X13336729Y-15964484D02*
X13374825Y-15964484D01*
X13374825Y-15964484D02*
X13393872Y-15954960D01*
X13393872Y-15954960D02*
X13403396Y-15945436D01*
X13403396Y-15945436D02*
X13422444Y-15916865D01*
X13422444Y-15916865D02*
X13431967Y-15878769D01*
X13431967Y-15878769D02*
X13431967Y-15802579D01*
X13431967Y-15802579D02*
X13422444Y-15783531D01*
X13422444Y-15783531D02*
X13412920Y-15774008D01*
X13412920Y-15774008D02*
X13393872Y-15764484D01*
X13393872Y-15764484D02*
X13355777Y-15764484D01*
X13355777Y-15764484D02*
X13336729Y-15774008D01*
X13336729Y-15774008D02*
X13327206Y-15783531D01*
X13327206Y-15783531D02*
X13317682Y-15802579D01*
X13317682Y-15802579D02*
X13317682Y-15850198D01*
X13317682Y-15850198D02*
X13327206Y-15869246D01*
X13327206Y-15869246D02*
X13336729Y-15878769D01*
X13336729Y-15878769D02*
X13355777Y-15888293D01*
X13355777Y-15888293D02*
X13393872Y-15888293D01*
X13393872Y-15888293D02*
X13412920Y-15878769D01*
X13412920Y-15878769D02*
X13422444Y-15869246D01*
X13422444Y-15869246D02*
X13431967Y-15850198D01*
X13603396Y-15831150D02*
X13603396Y-15964484D01*
X13555777Y-15754960D02*
X13508158Y-15897817D01*
X13508158Y-15897817D02*
X13631967Y-15897817D01*
X13698634Y-15764484D02*
X13698634Y-15802579D01*
X13774825Y-15764484D02*
X13774825Y-15802579D01*
X14070063Y-16040674D02*
X14060539Y-16031150D01*
X14060539Y-16031150D02*
X14041491Y-16002579D01*
X14041491Y-16002579D02*
X14031968Y-15983531D01*
X14031968Y-15983531D02*
X14022444Y-15954960D01*
X14022444Y-15954960D02*
X14012920Y-15907341D01*
X14012920Y-15907341D02*
X14012920Y-15869246D01*
X14012920Y-15869246D02*
X14022444Y-15821627D01*
X14022444Y-15821627D02*
X14031968Y-15793055D01*
X14031968Y-15793055D02*
X14041491Y-15774008D01*
X14041491Y-15774008D02*
X14060539Y-15745436D01*
X14060539Y-15745436D02*
X14070063Y-15735912D01*
X14231968Y-15831150D02*
X14231968Y-15964484D01*
X14184348Y-15754960D02*
X14136729Y-15897817D01*
X14136729Y-15897817D02*
X14260539Y-15897817D01*
X14317682Y-15764484D02*
X14451015Y-15764484D01*
X14451015Y-15764484D02*
X14365301Y-15964484D01*
X14679587Y-15964484D02*
X14679587Y-15764484D01*
X14765301Y-15964484D02*
X14765301Y-15859722D01*
X14765301Y-15859722D02*
X14755777Y-15840674D01*
X14755777Y-15840674D02*
X14736730Y-15831150D01*
X14736730Y-15831150D02*
X14708158Y-15831150D01*
X14708158Y-15831150D02*
X14689110Y-15840674D01*
X14689110Y-15840674D02*
X14679587Y-15850198D01*
X14889110Y-15964484D02*
X14870063Y-15954960D01*
X14870063Y-15954960D02*
X14860539Y-15945436D01*
X14860539Y-15945436D02*
X14851015Y-15926388D01*
X14851015Y-15926388D02*
X14851015Y-15869246D01*
X14851015Y-15869246D02*
X14860539Y-15850198D01*
X14860539Y-15850198D02*
X14870063Y-15840674D01*
X14870063Y-15840674D02*
X14889110Y-15831150D01*
X14889110Y-15831150D02*
X14917682Y-15831150D01*
X14917682Y-15831150D02*
X14936730Y-15840674D01*
X14936730Y-15840674D02*
X14946253Y-15850198D01*
X14946253Y-15850198D02*
X14955777Y-15869246D01*
X14955777Y-15869246D02*
X14955777Y-15926388D01*
X14955777Y-15926388D02*
X14946253Y-15945436D01*
X14946253Y-15945436D02*
X14936730Y-15954960D01*
X14936730Y-15954960D02*
X14917682Y-15964484D01*
X14917682Y-15964484D02*
X14889110Y-15964484D01*
X15070063Y-15964484D02*
X15051015Y-15954960D01*
X15051015Y-15954960D02*
X15041491Y-15935912D01*
X15041491Y-15935912D02*
X15041491Y-15764484D01*
X15222444Y-15954960D02*
X15203396Y-15964484D01*
X15203396Y-15964484D02*
X15165301Y-15964484D01*
X15165301Y-15964484D02*
X15146253Y-15954960D01*
X15146253Y-15954960D02*
X15136730Y-15935912D01*
X15136730Y-15935912D02*
X15136730Y-15859722D01*
X15136730Y-15859722D02*
X15146253Y-15840674D01*
X15146253Y-15840674D02*
X15165301Y-15831150D01*
X15165301Y-15831150D02*
X15203396Y-15831150D01*
X15203396Y-15831150D02*
X15222444Y-15840674D01*
X15222444Y-15840674D02*
X15231968Y-15859722D01*
X15231968Y-15859722D02*
X15231968Y-15878769D01*
X15231968Y-15878769D02*
X15136730Y-15897817D01*
X15308158Y-15954960D02*
X15327206Y-15964484D01*
X15327206Y-15964484D02*
X15365301Y-15964484D01*
X15365301Y-15964484D02*
X15384349Y-15954960D01*
X15384349Y-15954960D02*
X15393872Y-15935912D01*
X15393872Y-15935912D02*
X15393872Y-15926388D01*
X15393872Y-15926388D02*
X15384349Y-15907341D01*
X15384349Y-15907341D02*
X15365301Y-15897817D01*
X15365301Y-15897817D02*
X15336730Y-15897817D01*
X15336730Y-15897817D02*
X15317682Y-15888293D01*
X15317682Y-15888293D02*
X15308158Y-15869246D01*
X15308158Y-15869246D02*
X15308158Y-15859722D01*
X15308158Y-15859722D02*
X15317682Y-15840674D01*
X15317682Y-15840674D02*
X15336730Y-15831150D01*
X15336730Y-15831150D02*
X15365301Y-15831150D01*
X15365301Y-15831150D02*
X15384349Y-15840674D01*
X15460539Y-16040674D02*
X15470063Y-16031150D01*
X15470063Y-16031150D02*
X15489111Y-16002579D01*
X15489111Y-16002579D02*
X15498634Y-15983531D01*
X15498634Y-15983531D02*
X15508158Y-15954960D01*
X15508158Y-15954960D02*
X15517682Y-15907341D01*
X15517682Y-15907341D02*
X15517682Y-15869246D01*
X15517682Y-15869246D02*
X15508158Y-15821627D01*
X15508158Y-15821627D02*
X15498634Y-15793055D01*
X15498634Y-15793055D02*
X15489111Y-15774008D01*
X15489111Y-15774008D02*
X15470063Y-15745436D01*
X15470063Y-15745436D02*
X15460539Y-15735912D01*
D14*
X10475962Y-16182962D02*
X10475962Y-16091038D01*
X10384038Y-16091038D01*
X10384038Y-16182962D01*
X10475962Y-16182962D01*
D11*
X10860539Y-16228484D02*
X10746253Y-16228484D01*
X10803396Y-16228484D02*
X10803396Y-16028484D01*
X10803396Y-16028484D02*
X10784348Y-16057055D01*
X10784348Y-16057055D02*
X10765301Y-16076103D01*
X10765301Y-16076103D02*
X10746253Y-16085627D01*
X10946253Y-16209436D02*
X10955777Y-16218960D01*
X10955777Y-16218960D02*
X10946253Y-16228484D01*
X10946253Y-16228484D02*
X10936729Y-16218960D01*
X10936729Y-16218960D02*
X10946253Y-16209436D01*
X10946253Y-16209436D02*
X10946253Y-16228484D01*
X11022444Y-16028484D02*
X11146253Y-16028484D01*
X11146253Y-16028484D02*
X11079586Y-16104674D01*
X11079586Y-16104674D02*
X11108158Y-16104674D01*
X11108158Y-16104674D02*
X11127205Y-16114198D01*
X11127205Y-16114198D02*
X11136729Y-16123722D01*
X11136729Y-16123722D02*
X11146253Y-16142769D01*
X11146253Y-16142769D02*
X11146253Y-16190388D01*
X11146253Y-16190388D02*
X11136729Y-16209436D01*
X11136729Y-16209436D02*
X11127205Y-16218960D01*
X11127205Y-16218960D02*
X11108158Y-16228484D01*
X11108158Y-16228484D02*
X11051015Y-16228484D01*
X11051015Y-16228484D02*
X11031967Y-16218960D01*
X11031967Y-16218960D02*
X11022444Y-16209436D01*
X11270062Y-16028484D02*
X11289110Y-16028484D01*
X11289110Y-16028484D02*
X11308158Y-16038008D01*
X11308158Y-16038008D02*
X11317682Y-16047531D01*
X11317682Y-16047531D02*
X11327205Y-16066579D01*
X11327205Y-16066579D02*
X11336729Y-16104674D01*
X11336729Y-16104674D02*
X11336729Y-16152293D01*
X11336729Y-16152293D02*
X11327205Y-16190388D01*
X11327205Y-16190388D02*
X11317682Y-16209436D01*
X11317682Y-16209436D02*
X11308158Y-16218960D01*
X11308158Y-16218960D02*
X11289110Y-16228484D01*
X11289110Y-16228484D02*
X11270062Y-16228484D01*
X11270062Y-16228484D02*
X11251015Y-16218960D01*
X11251015Y-16218960D02*
X11241491Y-16209436D01*
X11241491Y-16209436D02*
X11231967Y-16190388D01*
X11231967Y-16190388D02*
X11222443Y-16152293D01*
X11222443Y-16152293D02*
X11222443Y-16104674D01*
X11222443Y-16104674D02*
X11231967Y-16066579D01*
X11231967Y-16066579D02*
X11241491Y-16047531D01*
X11241491Y-16047531D02*
X11251015Y-16038008D01*
X11251015Y-16038008D02*
X11270062Y-16028484D01*
X11460539Y-16028484D02*
X11479586Y-16028484D01*
X11479586Y-16028484D02*
X11498634Y-16038008D01*
X11498634Y-16038008D02*
X11508158Y-16047531D01*
X11508158Y-16047531D02*
X11517682Y-16066579D01*
X11517682Y-16066579D02*
X11527205Y-16104674D01*
X11527205Y-16104674D02*
X11527205Y-16152293D01*
X11527205Y-16152293D02*
X11517682Y-16190388D01*
X11517682Y-16190388D02*
X11508158Y-16209436D01*
X11508158Y-16209436D02*
X11498634Y-16218960D01*
X11498634Y-16218960D02*
X11479586Y-16228484D01*
X11479586Y-16228484D02*
X11460539Y-16228484D01*
X11460539Y-16228484D02*
X11441491Y-16218960D01*
X11441491Y-16218960D02*
X11431967Y-16209436D01*
X11431967Y-16209436D02*
X11422443Y-16190388D01*
X11422443Y-16190388D02*
X11412920Y-16152293D01*
X11412920Y-16152293D02*
X11412920Y-16104674D01*
X11412920Y-16104674D02*
X11422443Y-16066579D01*
X11422443Y-16066579D02*
X11431967Y-16047531D01*
X11431967Y-16047531D02*
X11441491Y-16038008D01*
X11441491Y-16038008D02*
X11460539Y-16028484D01*
X11612920Y-16228484D02*
X11612920Y-16095150D01*
X11612920Y-16114198D02*
X11622443Y-16104674D01*
X11622443Y-16104674D02*
X11641491Y-16095150D01*
X11641491Y-16095150D02*
X11670063Y-16095150D01*
X11670063Y-16095150D02*
X11689110Y-16104674D01*
X11689110Y-16104674D02*
X11698634Y-16123722D01*
X11698634Y-16123722D02*
X11698634Y-16228484D01*
X11698634Y-16123722D02*
X11708158Y-16104674D01*
X11708158Y-16104674D02*
X11727205Y-16095150D01*
X11727205Y-16095150D02*
X11755777Y-16095150D01*
X11755777Y-16095150D02*
X11774824Y-16104674D01*
X11774824Y-16104674D02*
X11784348Y-16123722D01*
X11784348Y-16123722D02*
X11784348Y-16228484D01*
X11879586Y-16228484D02*
X11879586Y-16095150D01*
X11879586Y-16114198D02*
X11889110Y-16104674D01*
X11889110Y-16104674D02*
X11908158Y-16095150D01*
X11908158Y-16095150D02*
X11936729Y-16095150D01*
X11936729Y-16095150D02*
X11955777Y-16104674D01*
X11955777Y-16104674D02*
X11965301Y-16123722D01*
X11965301Y-16123722D02*
X11965301Y-16228484D01*
X11965301Y-16123722D02*
X11974824Y-16104674D01*
X11974824Y-16104674D02*
X11993872Y-16095150D01*
X11993872Y-16095150D02*
X12022443Y-16095150D01*
X12022443Y-16095150D02*
X12041491Y-16104674D01*
X12041491Y-16104674D02*
X12051015Y-16123722D01*
X12051015Y-16123722D02*
X12051015Y-16228484D01*
X12441491Y-16018960D02*
X12270063Y-16276103D01*
X12698634Y-16028484D02*
X12717682Y-16028484D01*
X12717682Y-16028484D02*
X12736729Y-16038008D01*
X12736729Y-16038008D02*
X12746253Y-16047531D01*
X12746253Y-16047531D02*
X12755777Y-16066579D01*
X12755777Y-16066579D02*
X12765301Y-16104674D01*
X12765301Y-16104674D02*
X12765301Y-16152293D01*
X12765301Y-16152293D02*
X12755777Y-16190388D01*
X12755777Y-16190388D02*
X12746253Y-16209436D01*
X12746253Y-16209436D02*
X12736729Y-16218960D01*
X12736729Y-16218960D02*
X12717682Y-16228484D01*
X12717682Y-16228484D02*
X12698634Y-16228484D01*
X12698634Y-16228484D02*
X12679586Y-16218960D01*
X12679586Y-16218960D02*
X12670063Y-16209436D01*
X12670063Y-16209436D02*
X12660539Y-16190388D01*
X12660539Y-16190388D02*
X12651015Y-16152293D01*
X12651015Y-16152293D02*
X12651015Y-16104674D01*
X12651015Y-16104674D02*
X12660539Y-16066579D01*
X12660539Y-16066579D02*
X12670063Y-16047531D01*
X12670063Y-16047531D02*
X12679586Y-16038008D01*
X12679586Y-16038008D02*
X12698634Y-16028484D01*
X12851015Y-16209436D02*
X12860539Y-16218960D01*
X12860539Y-16218960D02*
X12851015Y-16228484D01*
X12851015Y-16228484D02*
X12841491Y-16218960D01*
X12841491Y-16218960D02*
X12851015Y-16209436D01*
X12851015Y-16209436D02*
X12851015Y-16228484D01*
X12984348Y-16028484D02*
X13003396Y-16028484D01*
X13003396Y-16028484D02*
X13022444Y-16038008D01*
X13022444Y-16038008D02*
X13031967Y-16047531D01*
X13031967Y-16047531D02*
X13041491Y-16066579D01*
X13041491Y-16066579D02*
X13051015Y-16104674D01*
X13051015Y-16104674D02*
X13051015Y-16152293D01*
X13051015Y-16152293D02*
X13041491Y-16190388D01*
X13041491Y-16190388D02*
X13031967Y-16209436D01*
X13031967Y-16209436D02*
X13022444Y-16218960D01*
X13022444Y-16218960D02*
X13003396Y-16228484D01*
X13003396Y-16228484D02*
X12984348Y-16228484D01*
X12984348Y-16228484D02*
X12965301Y-16218960D01*
X12965301Y-16218960D02*
X12955777Y-16209436D01*
X12955777Y-16209436D02*
X12946253Y-16190388D01*
X12946253Y-16190388D02*
X12936729Y-16152293D01*
X12936729Y-16152293D02*
X12936729Y-16104674D01*
X12936729Y-16104674D02*
X12946253Y-16066579D01*
X12946253Y-16066579D02*
X12955777Y-16047531D01*
X12955777Y-16047531D02*
X12965301Y-16038008D01*
X12965301Y-16038008D02*
X12984348Y-16028484D01*
X13231967Y-16028484D02*
X13136729Y-16028484D01*
X13136729Y-16028484D02*
X13127206Y-16123722D01*
X13127206Y-16123722D02*
X13136729Y-16114198D01*
X13136729Y-16114198D02*
X13155777Y-16104674D01*
X13155777Y-16104674D02*
X13203396Y-16104674D01*
X13203396Y-16104674D02*
X13222444Y-16114198D01*
X13222444Y-16114198D02*
X13231967Y-16123722D01*
X13231967Y-16123722D02*
X13241491Y-16142769D01*
X13241491Y-16142769D02*
X13241491Y-16190388D01*
X13241491Y-16190388D02*
X13231967Y-16209436D01*
X13231967Y-16209436D02*
X13222444Y-16218960D01*
X13222444Y-16218960D02*
X13203396Y-16228484D01*
X13203396Y-16228484D02*
X13155777Y-16228484D01*
X13155777Y-16228484D02*
X13136729Y-16218960D01*
X13136729Y-16218960D02*
X13127206Y-16209436D01*
X13431967Y-16228484D02*
X13317682Y-16228484D01*
X13374825Y-16228484D02*
X13374825Y-16028484D01*
X13374825Y-16028484D02*
X13355777Y-16057055D01*
X13355777Y-16057055D02*
X13336729Y-16076103D01*
X13336729Y-16076103D02*
X13317682Y-16085627D01*
X13508158Y-16047531D02*
X13517682Y-16038008D01*
X13517682Y-16038008D02*
X13536729Y-16028484D01*
X13536729Y-16028484D02*
X13584348Y-16028484D01*
X13584348Y-16028484D02*
X13603396Y-16038008D01*
X13603396Y-16038008D02*
X13612920Y-16047531D01*
X13612920Y-16047531D02*
X13622444Y-16066579D01*
X13622444Y-16066579D02*
X13622444Y-16085627D01*
X13622444Y-16085627D02*
X13612920Y-16114198D01*
X13612920Y-16114198D02*
X13498634Y-16228484D01*
X13498634Y-16228484D02*
X13622444Y-16228484D01*
X13698634Y-16028484D02*
X13698634Y-16066579D01*
X13774825Y-16028484D02*
X13774825Y-16066579D01*
X14070063Y-16304674D02*
X14060539Y-16295150D01*
X14060539Y-16295150D02*
X14041491Y-16266579D01*
X14041491Y-16266579D02*
X14031968Y-16247531D01*
X14031968Y-16247531D02*
X14022444Y-16218960D01*
X14022444Y-16218960D02*
X14012920Y-16171341D01*
X14012920Y-16171341D02*
X14012920Y-16133246D01*
X14012920Y-16133246D02*
X14022444Y-16085627D01*
X14022444Y-16085627D02*
X14031968Y-16057055D01*
X14031968Y-16057055D02*
X14041491Y-16038008D01*
X14041491Y-16038008D02*
X14060539Y-16009436D01*
X14060539Y-16009436D02*
X14070063Y-15999912D01*
X14174825Y-16114198D02*
X14155777Y-16104674D01*
X14155777Y-16104674D02*
X14146253Y-16095150D01*
X14146253Y-16095150D02*
X14136729Y-16076103D01*
X14136729Y-16076103D02*
X14136729Y-16066579D01*
X14136729Y-16066579D02*
X14146253Y-16047531D01*
X14146253Y-16047531D02*
X14155777Y-16038008D01*
X14155777Y-16038008D02*
X14174825Y-16028484D01*
X14174825Y-16028484D02*
X14212920Y-16028484D01*
X14212920Y-16028484D02*
X14231968Y-16038008D01*
X14231968Y-16038008D02*
X14241491Y-16047531D01*
X14241491Y-16047531D02*
X14251015Y-16066579D01*
X14251015Y-16066579D02*
X14251015Y-16076103D01*
X14251015Y-16076103D02*
X14241491Y-16095150D01*
X14241491Y-16095150D02*
X14231968Y-16104674D01*
X14231968Y-16104674D02*
X14212920Y-16114198D01*
X14212920Y-16114198D02*
X14174825Y-16114198D01*
X14174825Y-16114198D02*
X14155777Y-16123722D01*
X14155777Y-16123722D02*
X14146253Y-16133246D01*
X14146253Y-16133246D02*
X14136729Y-16152293D01*
X14136729Y-16152293D02*
X14136729Y-16190388D01*
X14136729Y-16190388D02*
X14146253Y-16209436D01*
X14146253Y-16209436D02*
X14155777Y-16218960D01*
X14155777Y-16218960D02*
X14174825Y-16228484D01*
X14174825Y-16228484D02*
X14212920Y-16228484D01*
X14212920Y-16228484D02*
X14231968Y-16218960D01*
X14231968Y-16218960D02*
X14241491Y-16209436D01*
X14241491Y-16209436D02*
X14251015Y-16190388D01*
X14251015Y-16190388D02*
X14251015Y-16152293D01*
X14251015Y-16152293D02*
X14241491Y-16133246D01*
X14241491Y-16133246D02*
X14231968Y-16123722D01*
X14231968Y-16123722D02*
X14212920Y-16114198D01*
X14489110Y-16228484D02*
X14489110Y-16028484D01*
X14574825Y-16228484D02*
X14574825Y-16123722D01*
X14574825Y-16123722D02*
X14565301Y-16104674D01*
X14565301Y-16104674D02*
X14546253Y-16095150D01*
X14546253Y-16095150D02*
X14517682Y-16095150D01*
X14517682Y-16095150D02*
X14498634Y-16104674D01*
X14498634Y-16104674D02*
X14489110Y-16114198D01*
X14698634Y-16228484D02*
X14679587Y-16218960D01*
X14679587Y-16218960D02*
X14670063Y-16209436D01*
X14670063Y-16209436D02*
X14660539Y-16190388D01*
X14660539Y-16190388D02*
X14660539Y-16133246D01*
X14660539Y-16133246D02*
X14670063Y-16114198D01*
X14670063Y-16114198D02*
X14679587Y-16104674D01*
X14679587Y-16104674D02*
X14698634Y-16095150D01*
X14698634Y-16095150D02*
X14727206Y-16095150D01*
X14727206Y-16095150D02*
X14746253Y-16104674D01*
X14746253Y-16104674D02*
X14755777Y-16114198D01*
X14755777Y-16114198D02*
X14765301Y-16133246D01*
X14765301Y-16133246D02*
X14765301Y-16190388D01*
X14765301Y-16190388D02*
X14755777Y-16209436D01*
X14755777Y-16209436D02*
X14746253Y-16218960D01*
X14746253Y-16218960D02*
X14727206Y-16228484D01*
X14727206Y-16228484D02*
X14698634Y-16228484D01*
X14879587Y-16228484D02*
X14860539Y-16218960D01*
X14860539Y-16218960D02*
X14851015Y-16199912D01*
X14851015Y-16199912D02*
X14851015Y-16028484D01*
X15031968Y-16218960D02*
X15012920Y-16228484D01*
X15012920Y-16228484D02*
X14974825Y-16228484D01*
X14974825Y-16228484D02*
X14955777Y-16218960D01*
X14955777Y-16218960D02*
X14946253Y-16199912D01*
X14946253Y-16199912D02*
X14946253Y-16123722D01*
X14946253Y-16123722D02*
X14955777Y-16104674D01*
X14955777Y-16104674D02*
X14974825Y-16095150D01*
X14974825Y-16095150D02*
X15012920Y-16095150D01*
X15012920Y-16095150D02*
X15031968Y-16104674D01*
X15031968Y-16104674D02*
X15041491Y-16123722D01*
X15041491Y-16123722D02*
X15041491Y-16142769D01*
X15041491Y-16142769D02*
X14946253Y-16161817D01*
X15117682Y-16218960D02*
X15136730Y-16228484D01*
X15136730Y-16228484D02*
X15174825Y-16228484D01*
X15174825Y-16228484D02*
X15193872Y-16218960D01*
X15193872Y-16218960D02*
X15203396Y-16199912D01*
X15203396Y-16199912D02*
X15203396Y-16190388D01*
X15203396Y-16190388D02*
X15193872Y-16171341D01*
X15193872Y-16171341D02*
X15174825Y-16161817D01*
X15174825Y-16161817D02*
X15146253Y-16161817D01*
X15146253Y-16161817D02*
X15127206Y-16152293D01*
X15127206Y-16152293D02*
X15117682Y-16133246D01*
X15117682Y-16133246D02*
X15117682Y-16123722D01*
X15117682Y-16123722D02*
X15127206Y-16104674D01*
X15127206Y-16104674D02*
X15146253Y-16095150D01*
X15146253Y-16095150D02*
X15174825Y-16095150D01*
X15174825Y-16095150D02*
X15193872Y-16104674D01*
X15270063Y-16304674D02*
X15279587Y-16295150D01*
X15279587Y-16295150D02*
X15298634Y-16266579D01*
X15298634Y-16266579D02*
X15308158Y-16247531D01*
X15308158Y-16247531D02*
X15317682Y-16218960D01*
X15317682Y-16218960D02*
X15327206Y-16171341D01*
X15327206Y-16171341D02*
X15327206Y-16133246D01*
X15327206Y-16133246D02*
X15317682Y-16085627D01*
X15317682Y-16085627D02*
X15308158Y-16057055D01*
X15308158Y-16057055D02*
X15298634Y-16038008D01*
X15298634Y-16038008D02*
X15279587Y-16009436D01*
X15279587Y-16009436D02*
X15270063Y-15999912D01*
M02*
