%TF.GenerationSoftware,KiCad,Pcbnew,7.0.8*%
%TF.CreationDate,2024-03-10T19:24:50+01:00*%
%TF.ProjectId,Hacheur 4Q,48616368-6575-4722-9034-512e6b696361,rev?*%
%TF.SameCoordinates,Original*%
%TF.FileFunction,Soldermask,Top*%
%TF.FilePolarity,Negative*%
%FSLAX46Y46*%
G04 Gerber Fmt 4.6, Leading zero omitted, Abs format (unit mm)*
G04 Created by KiCad (PCBNEW 7.0.8) date 2024-03-10 19:24:50*
%MOMM*%
%LPD*%
G01*
G04 APERTURE LIST*
G04 Aperture macros list*
%AMRoundRect*
0 Rectangle with rounded corners*
0 $1 Rounding radius*
0 $2 $3 $4 $5 $6 $7 $8 $9 X,Y pos of 4 corners*
0 Add a 4 corners polygon primitive as box body*
4,1,4,$2,$3,$4,$5,$6,$7,$8,$9,$2,$3,0*
0 Add four circle primitives for the rounded corners*
1,1,$1+$1,$2,$3*
1,1,$1+$1,$4,$5*
1,1,$1+$1,$6,$7*
1,1,$1+$1,$8,$9*
0 Add four rect primitives between the rounded corners*
20,1,$1+$1,$2,$3,$4,$5,0*
20,1,$1+$1,$4,$5,$6,$7,0*
20,1,$1+$1,$6,$7,$8,$9,0*
20,1,$1+$1,$8,$9,$2,$3,0*%
G04 Aperture macros list end*
%ADD10C,3.200000*%
%ADD11R,1.600000X1.600000*%
%ADD12C,1.600000*%
%ADD13RoundRect,0.250000X-1.000000X-0.650000X1.000000X-0.650000X1.000000X0.650000X-1.000000X0.650000X0*%
%ADD14RoundRect,0.249999X-0.450001X-1.425001X0.450001X-1.425001X0.450001X1.425001X-0.450001X1.425001X0*%
%ADD15R,2.600000X2.600000*%
%ADD16C,2.600000*%
%ADD17O,1.600000X1.600000*%
%ADD18R,1.800000X1.800000*%
%ADD19O,1.800000X1.800000*%
G04 APERTURE END LIST*
D10*
%TO.C,H3*%
X111000000Y-141000000D03*
%TD*%
D11*
%TO.C,C2*%
X184500000Y-126500000D03*
D12*
X188000000Y-126500000D03*
%TD*%
D10*
%TO.C,H1*%
X207250000Y-27000000D03*
%TD*%
D13*
%TO.C,D7*%
X199000000Y-79350000D03*
X203000000Y-79350000D03*
%TD*%
%TO.C,D8*%
X199500000Y-86250000D03*
X203500000Y-86250000D03*
%TD*%
%TO.C,D1*%
X198900000Y-40000000D03*
X202900000Y-40000000D03*
%TD*%
%TO.C,D2*%
X198950000Y-46500000D03*
X202950000Y-46500000D03*
%TD*%
%TO.C,D6*%
X199000000Y-72850000D03*
X203000000Y-72850000D03*
%TD*%
D14*
%TO.C,R2*%
X186850000Y-99750000D03*
X192950000Y-99750000D03*
%TD*%
D13*
%TO.C,D5*%
X199000000Y-66300000D03*
X203000000Y-66300000D03*
%TD*%
D15*
%TO.C,J1*%
X119000000Y-95520000D03*
D16*
X119000000Y-100600000D03*
X119000000Y-105680000D03*
X119000000Y-110760000D03*
X119000000Y-115840000D03*
X119000000Y-120920000D03*
X119000000Y-126000000D03*
X119000000Y-131080000D03*
%TD*%
D13*
%TO.C,D4*%
X199000000Y-59700000D03*
X203000000Y-59700000D03*
%TD*%
D14*
%TO.C,R1*%
X186900000Y-105000000D03*
X193000000Y-105000000D03*
%TD*%
D10*
%TO.C,H4*%
X207250000Y-141000000D03*
%TD*%
D13*
%TO.C,D3*%
X199000000Y-53150000D03*
X203000000Y-53150000D03*
%TD*%
D11*
%TO.C,A1*%
X146960000Y-34250000D03*
D17*
X149500000Y-34250000D03*
X152040000Y-34250000D03*
X154580000Y-34250000D03*
X157120000Y-34250000D03*
X159660000Y-34250000D03*
X162200000Y-34250000D03*
X164740000Y-34250000D03*
X169820000Y-34250000D03*
X172360000Y-34250000D03*
X174900000Y-34250000D03*
X177440000Y-34250000D03*
X179980000Y-34250000D03*
X182520000Y-34250000D03*
X182520000Y-82510000D03*
X179980000Y-82510000D03*
X177440000Y-82510000D03*
X174900000Y-82510000D03*
X172360000Y-82510000D03*
X169820000Y-82510000D03*
X167280000Y-82510000D03*
X164740000Y-82510000D03*
X160680000Y-82510000D03*
X158140000Y-82510000D03*
X155600000Y-82510000D03*
X153060000Y-82510000D03*
X150520000Y-82510000D03*
X147980000Y-82510000D03*
X145440000Y-82510000D03*
X142900000Y-82510000D03*
X140360000Y-82510000D03*
X137820000Y-82510000D03*
%TD*%
D10*
%TO.C,H2*%
X111000000Y-27000000D03*
%TD*%
D18*
%TO.C,U1*%
X143990000Y-117580000D03*
D19*
X145260000Y-112500000D03*
X146530000Y-117580000D03*
X147800000Y-112500000D03*
X149070000Y-117580000D03*
X150340000Y-112500000D03*
X151610000Y-117580000D03*
X152880000Y-112500000D03*
X154150000Y-117580000D03*
X155420000Y-112500000D03*
X156690000Y-117580000D03*
X157960000Y-112500000D03*
X159230000Y-117580000D03*
X160500000Y-112500000D03*
X161770000Y-117580000D03*
%TD*%
D11*
%TO.C,C3*%
X185250000Y-140750000D03*
D12*
X188750000Y-140750000D03*
%TD*%
D11*
%TO.C,C1*%
X192000000Y-116750000D03*
D12*
X194000000Y-116750000D03*
%TD*%
M02*
