M48
; DRILL file {KiCad 7.0.8} date Sun Mar 10 19:24:47 2024
; FORMAT={-:-/ absolute / metric / decimal}
; #@! TF.CreationDate,2024-03-10T19:24:47+01:00
; #@! TF.GenerationSoftware,Kicad,Pcbnew,7.0.8
; #@! TF.FileFunction,Plated,1,2,PTH
FMAT,2
METRIC
; #@! TA.AperFunction,Plated,PTH,ViaDrill
T1C0.400
; #@! TA.AperFunction,Plated,PTH,ComponentDrill
T2C0.800
; #@! TA.AperFunction,Plated,PTH,ComponentDrill
T3C1.000
; #@! TA.AperFunction,Plated,PTH,ComponentDrill
T4C1.300
%
G90
G05
T1
X127.0Y-108.0
X132.0Y-127.0
X135.5Y-111.5
X137.5Y-108.25
X142.0Y-101.25
X146.53Y-127.0
X147.75Y-104.75
X148.0Y-120.0
X151.75Y-98.9
X153.0Y-110.25
X154.25Y-125.5
X155.42Y-93.75
X155.42Y-105.75
X156.69Y-127.0
X159.25Y-124.75
X160.52Y-106.02
X163.0Y-100.5
X165.65Y-116.25
X166.75Y-129.75
X167.75Y-96.25
X167.75Y-101.0
X169.75Y-112.0
X173.75Y-133.5
X189.25Y-68.5
X191.5Y-71.0
X195.25Y-87.75
X197.0Y-76.25
X197.75Y-114.75
X199.0Y-70.0
X199.75Y-76.75
X204.5Y-70.25
X205.75Y-92.5
X206.5Y-56.0
X212.25Y-89.25
T2
X184.5Y-126.5
X185.25Y-140.75
X188.0Y-126.5
X188.75Y-140.75
X192.0Y-116.75
X194.0Y-116.75
T3
X137.82Y-82.51
X140.36Y-82.51
X142.9Y-82.51
X143.99Y-117.58
X145.26Y-112.5
X145.44Y-82.51
X146.53Y-117.58
X146.96Y-34.25
X147.8Y-112.5
X147.98Y-82.51
X149.07Y-117.58
X149.5Y-34.25
X150.34Y-112.5
X150.52Y-82.51
X151.61Y-117.58
X152.04Y-34.25
X152.88Y-112.5
X153.06Y-82.51
X154.15Y-117.58
X154.58Y-34.25
X155.42Y-112.5
X155.6Y-82.51
X156.69Y-117.58
X157.12Y-34.25
X157.96Y-112.5
X158.14Y-82.51
X159.23Y-117.58
X159.66Y-34.25
X160.5Y-112.5
X160.68Y-82.51
X161.77Y-117.58
X162.2Y-34.25
X164.74Y-34.25
X164.74Y-82.51
X167.28Y-82.51
X169.82Y-34.25
X169.82Y-82.51
X172.36Y-34.25
X172.36Y-82.51
X174.9Y-34.25
X174.9Y-82.51
X177.44Y-34.25
X177.44Y-82.51
X179.98Y-34.25
X179.98Y-82.51
X182.52Y-34.25
X182.52Y-82.51
T4
X119.0Y-95.52
X119.0Y-100.6
X119.0Y-105.68
X119.0Y-110.76
X119.0Y-115.84
X119.0Y-120.92
X119.0Y-126.0
X119.0Y-131.08
T0
M30
