%TF.GenerationSoftware,KiCad,Pcbnew,7.0.8*%
%TF.CreationDate,2024-03-10T19:24:50+01:00*%
%TF.ProjectId,Hacheur 4Q,48616368-6575-4722-9034-512e6b696361,rev?*%
%TF.SameCoordinates,Original*%
%TF.FileFunction,Legend,Top*%
%TF.FilePolarity,Positive*%
%FSLAX46Y46*%
G04 Gerber Fmt 4.6, Leading zero omitted, Abs format (unit mm)*
G04 Created by KiCad (PCBNEW 7.0.8) date 2024-03-10 19:24:50*
%MOMM*%
%LPD*%
G01*
G04 APERTURE LIST*
%ADD10C,0.200000*%
%ADD11C,0.150000*%
%ADD12C,0.120000*%
G04 APERTURE END LIST*
D10*
X197703006Y-116977219D02*
X197845863Y-117072457D01*
X197845863Y-117072457D02*
X197893482Y-117167695D01*
X197893482Y-117167695D02*
X197941101Y-117358171D01*
X197941101Y-117358171D02*
X197941101Y-117643885D01*
X197941101Y-117643885D02*
X197893482Y-117834361D01*
X197893482Y-117834361D02*
X197845863Y-117929600D01*
X197845863Y-117929600D02*
X197750625Y-118024838D01*
X197750625Y-118024838D02*
X197369673Y-118024838D01*
X197369673Y-118024838D02*
X197369673Y-116024838D01*
X197369673Y-116024838D02*
X197703006Y-116024838D01*
X197703006Y-116024838D02*
X197798244Y-116120076D01*
X197798244Y-116120076D02*
X197845863Y-116215314D01*
X197845863Y-116215314D02*
X197893482Y-116405790D01*
X197893482Y-116405790D02*
X197893482Y-116596266D01*
X197893482Y-116596266D02*
X197845863Y-116786742D01*
X197845863Y-116786742D02*
X197798244Y-116881980D01*
X197798244Y-116881980D02*
X197703006Y-116977219D01*
X197703006Y-116977219D02*
X197369673Y-116977219D01*
X198369673Y-116977219D02*
X198703006Y-116977219D01*
X198845863Y-118024838D02*
X198369673Y-118024838D01*
X198369673Y-118024838D02*
X198369673Y-116024838D01*
X198369673Y-116024838D02*
X198845863Y-116024838D01*
X199274435Y-118024838D02*
X199274435Y-116024838D01*
X199274435Y-116024838D02*
X199845863Y-118024838D01*
X199845863Y-118024838D02*
X199845863Y-116024838D01*
X201036340Y-117453409D02*
X201512530Y-117453409D01*
X200941102Y-118024838D02*
X201274435Y-116024838D01*
X201274435Y-116024838D02*
X201607768Y-118024838D01*
X201941102Y-118024838D02*
X201941102Y-116024838D01*
X201941102Y-116024838D02*
X202274435Y-117453409D01*
X202274435Y-117453409D02*
X202607768Y-116024838D01*
X202607768Y-116024838D02*
X202607768Y-118024838D01*
X203036340Y-117453409D02*
X203512530Y-117453409D01*
X202941102Y-118024838D02*
X203274435Y-116024838D01*
X203274435Y-116024838D02*
X203607768Y-118024838D01*
X204512530Y-118024838D02*
X204179197Y-117072457D01*
X203941102Y-118024838D02*
X203941102Y-116024838D01*
X203941102Y-116024838D02*
X204322054Y-116024838D01*
X204322054Y-116024838D02*
X204417292Y-116120076D01*
X204417292Y-116120076D02*
X204464911Y-116215314D01*
X204464911Y-116215314D02*
X204512530Y-116405790D01*
X204512530Y-116405790D02*
X204512530Y-116691504D01*
X204512530Y-116691504D02*
X204464911Y-116881980D01*
X204464911Y-116881980D02*
X204417292Y-116977219D01*
X204417292Y-116977219D02*
X204322054Y-117072457D01*
X204322054Y-117072457D02*
X203941102Y-117072457D01*
X206274435Y-118024838D02*
X205941102Y-117072457D01*
X205703007Y-118024838D02*
X205703007Y-116024838D01*
X205703007Y-116024838D02*
X206083959Y-116024838D01*
X206083959Y-116024838D02*
X206179197Y-116120076D01*
X206179197Y-116120076D02*
X206226816Y-116215314D01*
X206226816Y-116215314D02*
X206274435Y-116405790D01*
X206274435Y-116405790D02*
X206274435Y-116691504D01*
X206274435Y-116691504D02*
X206226816Y-116881980D01*
X206226816Y-116881980D02*
X206179197Y-116977219D01*
X206179197Y-116977219D02*
X206083959Y-117072457D01*
X206083959Y-117072457D02*
X205703007Y-117072457D01*
X206655388Y-117453409D02*
X207131578Y-117453409D01*
X206560150Y-118024838D02*
X206893483Y-116024838D01*
X206893483Y-116024838D02*
X207226816Y-118024838D01*
X207750626Y-117072457D02*
X207750626Y-118024838D01*
X207417293Y-116024838D02*
X207750626Y-117072457D01*
X207750626Y-117072457D02*
X208083959Y-116024838D01*
X208417293Y-116977219D02*
X208750626Y-116977219D01*
X208893483Y-118024838D02*
X208417293Y-118024838D01*
X208417293Y-118024838D02*
X208417293Y-116024838D01*
X208417293Y-116024838D02*
X208893483Y-116024838D01*
X209322055Y-118024838D02*
X209322055Y-116024838D01*
X209322055Y-116024838D02*
X209893483Y-118024838D01*
X209893483Y-118024838D02*
X209893483Y-116024838D01*
X197703006Y-120197219D02*
X197369673Y-120197219D01*
X197369673Y-121244838D02*
X197369673Y-119244838D01*
X197369673Y-119244838D02*
X197845863Y-119244838D01*
X198179197Y-120673409D02*
X198655387Y-120673409D01*
X198083959Y-121244838D02*
X198417292Y-119244838D01*
X198417292Y-119244838D02*
X198750625Y-121244838D01*
X199655387Y-121244838D02*
X199322054Y-120292457D01*
X199083959Y-121244838D02*
X199083959Y-119244838D01*
X199083959Y-119244838D02*
X199464911Y-119244838D01*
X199464911Y-119244838D02*
X199560149Y-119340076D01*
X199560149Y-119340076D02*
X199607768Y-119435314D01*
X199607768Y-119435314D02*
X199655387Y-119625790D01*
X199655387Y-119625790D02*
X199655387Y-119911504D01*
X199655387Y-119911504D02*
X199607768Y-120101980D01*
X199607768Y-120101980D02*
X199560149Y-120197219D01*
X199560149Y-120197219D02*
X199464911Y-120292457D01*
X199464911Y-120292457D02*
X199083959Y-120292457D01*
X200655387Y-121054361D02*
X200607768Y-121149600D01*
X200607768Y-121149600D02*
X200464911Y-121244838D01*
X200464911Y-121244838D02*
X200369673Y-121244838D01*
X200369673Y-121244838D02*
X200226816Y-121149600D01*
X200226816Y-121149600D02*
X200131578Y-120959123D01*
X200131578Y-120959123D02*
X200083959Y-120768647D01*
X200083959Y-120768647D02*
X200036340Y-120387695D01*
X200036340Y-120387695D02*
X200036340Y-120101980D01*
X200036340Y-120101980D02*
X200083959Y-119721028D01*
X200083959Y-119721028D02*
X200131578Y-119530552D01*
X200131578Y-119530552D02*
X200226816Y-119340076D01*
X200226816Y-119340076D02*
X200369673Y-119244838D01*
X200369673Y-119244838D02*
X200464911Y-119244838D01*
X200464911Y-119244838D02*
X200607768Y-119340076D01*
X200607768Y-119340076D02*
X200655387Y-119435314D01*
X201083959Y-121244838D02*
X201083959Y-119244838D01*
X202274435Y-121149600D02*
X202417292Y-121244838D01*
X202417292Y-121244838D02*
X202655387Y-121244838D01*
X202655387Y-121244838D02*
X202750625Y-121149600D01*
X202750625Y-121149600D02*
X202798244Y-121054361D01*
X202798244Y-121054361D02*
X202845863Y-120863885D01*
X202845863Y-120863885D02*
X202845863Y-120673409D01*
X202845863Y-120673409D02*
X202798244Y-120482933D01*
X202798244Y-120482933D02*
X202750625Y-120387695D01*
X202750625Y-120387695D02*
X202655387Y-120292457D01*
X202655387Y-120292457D02*
X202464911Y-120197219D01*
X202464911Y-120197219D02*
X202369673Y-120101980D01*
X202369673Y-120101980D02*
X202322054Y-120006742D01*
X202322054Y-120006742D02*
X202274435Y-119816266D01*
X202274435Y-119816266D02*
X202274435Y-119625790D01*
X202274435Y-119625790D02*
X202322054Y-119435314D01*
X202322054Y-119435314D02*
X202369673Y-119340076D01*
X202369673Y-119340076D02*
X202464911Y-119244838D01*
X202464911Y-119244838D02*
X202703006Y-119244838D01*
X202703006Y-119244838D02*
X202845863Y-119340076D01*
X203274435Y-120197219D02*
X203607768Y-120197219D01*
X203750625Y-121244838D02*
X203274435Y-121244838D01*
X203274435Y-121244838D02*
X203274435Y-119244838D01*
X203274435Y-119244838D02*
X203750625Y-119244838D01*
X204655387Y-121244838D02*
X204179197Y-121244838D01*
X204179197Y-121244838D02*
X204179197Y-119244838D01*
X204988721Y-121244838D02*
X204988721Y-119244838D01*
X205464911Y-121244838D02*
X205464911Y-119244838D01*
X205464911Y-119244838D02*
X205798244Y-120673409D01*
X205798244Y-120673409D02*
X206131577Y-119244838D01*
X206131577Y-119244838D02*
X206131577Y-121244838D01*
D11*
X194836779Y-126259819D02*
X194836779Y-125259819D01*
X194836779Y-125259819D02*
X195170112Y-125974104D01*
X195170112Y-125974104D02*
X195503445Y-125259819D01*
X195503445Y-125259819D02*
X195503445Y-126259819D01*
X196122493Y-126259819D02*
X196027255Y-126212200D01*
X196027255Y-126212200D02*
X195979636Y-126164580D01*
X195979636Y-126164580D02*
X195932017Y-126069342D01*
X195932017Y-126069342D02*
X195932017Y-125783628D01*
X195932017Y-125783628D02*
X195979636Y-125688390D01*
X195979636Y-125688390D02*
X196027255Y-125640771D01*
X196027255Y-125640771D02*
X196122493Y-125593152D01*
X196122493Y-125593152D02*
X196265350Y-125593152D01*
X196265350Y-125593152D02*
X196360588Y-125640771D01*
X196360588Y-125640771D02*
X196408207Y-125688390D01*
X196408207Y-125688390D02*
X196455826Y-125783628D01*
X196455826Y-125783628D02*
X196455826Y-126069342D01*
X196455826Y-126069342D02*
X196408207Y-126164580D01*
X196408207Y-126164580D02*
X196360588Y-126212200D01*
X196360588Y-126212200D02*
X196265350Y-126259819D01*
X196265350Y-126259819D02*
X196122493Y-126259819D01*
X196741541Y-125593152D02*
X197122493Y-125593152D01*
X196884398Y-125259819D02*
X196884398Y-126116961D01*
X196884398Y-126116961D02*
X196932017Y-126212200D01*
X196932017Y-126212200D02*
X197027255Y-126259819D01*
X197027255Y-126259819D02*
X197122493Y-126259819D01*
X197598684Y-126259819D02*
X197503446Y-126212200D01*
X197503446Y-126212200D02*
X197455827Y-126164580D01*
X197455827Y-126164580D02*
X197408208Y-126069342D01*
X197408208Y-126069342D02*
X197408208Y-125783628D01*
X197408208Y-125783628D02*
X197455827Y-125688390D01*
X197455827Y-125688390D02*
X197503446Y-125640771D01*
X197503446Y-125640771D02*
X197598684Y-125593152D01*
X197598684Y-125593152D02*
X197741541Y-125593152D01*
X197741541Y-125593152D02*
X197836779Y-125640771D01*
X197836779Y-125640771D02*
X197884398Y-125688390D01*
X197884398Y-125688390D02*
X197932017Y-125783628D01*
X197932017Y-125783628D02*
X197932017Y-126069342D01*
X197932017Y-126069342D02*
X197884398Y-126164580D01*
X197884398Y-126164580D02*
X197836779Y-126212200D01*
X197836779Y-126212200D02*
X197741541Y-126259819D01*
X197741541Y-126259819D02*
X197598684Y-126259819D01*
X198360589Y-126259819D02*
X198360589Y-125593152D01*
X198360589Y-125783628D02*
X198408208Y-125688390D01*
X198408208Y-125688390D02*
X198455827Y-125640771D01*
X198455827Y-125640771D02*
X198551065Y-125593152D01*
X198551065Y-125593152D02*
X198646303Y-125593152D01*
X198979637Y-126259819D02*
X198979637Y-125593152D01*
X198979637Y-125259819D02*
X198932018Y-125307438D01*
X198932018Y-125307438D02*
X198979637Y-125355057D01*
X198979637Y-125355057D02*
X199027256Y-125307438D01*
X199027256Y-125307438D02*
X198979637Y-125259819D01*
X198979637Y-125259819D02*
X198979637Y-125355057D01*
X199408208Y-126212200D02*
X199503446Y-126259819D01*
X199503446Y-126259819D02*
X199693922Y-126259819D01*
X199693922Y-126259819D02*
X199789160Y-126212200D01*
X199789160Y-126212200D02*
X199836779Y-126116961D01*
X199836779Y-126116961D02*
X199836779Y-126069342D01*
X199836779Y-126069342D02*
X199789160Y-125974104D01*
X199789160Y-125974104D02*
X199693922Y-125926485D01*
X199693922Y-125926485D02*
X199551065Y-125926485D01*
X199551065Y-125926485D02*
X199455827Y-125878866D01*
X199455827Y-125878866D02*
X199408208Y-125783628D01*
X199408208Y-125783628D02*
X199408208Y-125736009D01*
X199408208Y-125736009D02*
X199455827Y-125640771D01*
X199455827Y-125640771D02*
X199551065Y-125593152D01*
X199551065Y-125593152D02*
X199693922Y-125593152D01*
X199693922Y-125593152D02*
X199789160Y-125640771D01*
X200693922Y-126259819D02*
X200693922Y-125736009D01*
X200693922Y-125736009D02*
X200646303Y-125640771D01*
X200646303Y-125640771D02*
X200551065Y-125593152D01*
X200551065Y-125593152D02*
X200360589Y-125593152D01*
X200360589Y-125593152D02*
X200265351Y-125640771D01*
X200693922Y-126212200D02*
X200598684Y-126259819D01*
X200598684Y-126259819D02*
X200360589Y-126259819D01*
X200360589Y-126259819D02*
X200265351Y-126212200D01*
X200265351Y-126212200D02*
X200217732Y-126116961D01*
X200217732Y-126116961D02*
X200217732Y-126021723D01*
X200217732Y-126021723D02*
X200265351Y-125926485D01*
X200265351Y-125926485D02*
X200360589Y-125878866D01*
X200360589Y-125878866D02*
X200598684Y-125878866D01*
X200598684Y-125878866D02*
X200693922Y-125831247D01*
X201027256Y-125593152D02*
X201408208Y-125593152D01*
X201170113Y-125259819D02*
X201170113Y-126116961D01*
X201170113Y-126116961D02*
X201217732Y-126212200D01*
X201217732Y-126212200D02*
X201312970Y-126259819D01*
X201312970Y-126259819D02*
X201408208Y-126259819D01*
X201741542Y-126259819D02*
X201741542Y-125593152D01*
X201741542Y-125259819D02*
X201693923Y-125307438D01*
X201693923Y-125307438D02*
X201741542Y-125355057D01*
X201741542Y-125355057D02*
X201789161Y-125307438D01*
X201789161Y-125307438D02*
X201741542Y-125259819D01*
X201741542Y-125259819D02*
X201741542Y-125355057D01*
X202360589Y-126259819D02*
X202265351Y-126212200D01*
X202265351Y-126212200D02*
X202217732Y-126164580D01*
X202217732Y-126164580D02*
X202170113Y-126069342D01*
X202170113Y-126069342D02*
X202170113Y-125783628D01*
X202170113Y-125783628D02*
X202217732Y-125688390D01*
X202217732Y-125688390D02*
X202265351Y-125640771D01*
X202265351Y-125640771D02*
X202360589Y-125593152D01*
X202360589Y-125593152D02*
X202503446Y-125593152D01*
X202503446Y-125593152D02*
X202598684Y-125640771D01*
X202598684Y-125640771D02*
X202646303Y-125688390D01*
X202646303Y-125688390D02*
X202693922Y-125783628D01*
X202693922Y-125783628D02*
X202693922Y-126069342D01*
X202693922Y-126069342D02*
X202646303Y-126164580D01*
X202646303Y-126164580D02*
X202598684Y-126212200D01*
X202598684Y-126212200D02*
X202503446Y-126259819D01*
X202503446Y-126259819D02*
X202360589Y-126259819D01*
X203122494Y-125593152D02*
X203122494Y-126259819D01*
X203122494Y-125688390D02*
X203170113Y-125640771D01*
X203170113Y-125640771D02*
X203265351Y-125593152D01*
X203265351Y-125593152D02*
X203408208Y-125593152D01*
X203408208Y-125593152D02*
X203503446Y-125640771D01*
X203503446Y-125640771D02*
X203551065Y-125736009D01*
X203551065Y-125736009D02*
X203551065Y-126259819D01*
X205217732Y-126259819D02*
X205217732Y-125259819D01*
X205217732Y-126212200D02*
X205122494Y-126259819D01*
X205122494Y-126259819D02*
X204932018Y-126259819D01*
X204932018Y-126259819D02*
X204836780Y-126212200D01*
X204836780Y-126212200D02*
X204789161Y-126164580D01*
X204789161Y-126164580D02*
X204741542Y-126069342D01*
X204741542Y-126069342D02*
X204741542Y-125783628D01*
X204741542Y-125783628D02*
X204789161Y-125688390D01*
X204789161Y-125688390D02*
X204836780Y-125640771D01*
X204836780Y-125640771D02*
X204932018Y-125593152D01*
X204932018Y-125593152D02*
X205122494Y-125593152D01*
X205122494Y-125593152D02*
X205217732Y-125640771D01*
X206122494Y-125593152D02*
X206122494Y-126259819D01*
X205693923Y-125593152D02*
X205693923Y-126116961D01*
X205693923Y-126116961D02*
X205741542Y-126212200D01*
X205741542Y-126212200D02*
X205836780Y-126259819D01*
X205836780Y-126259819D02*
X205979637Y-126259819D01*
X205979637Y-126259819D02*
X206074875Y-126212200D01*
X206074875Y-126212200D02*
X206122494Y-126164580D01*
X207789161Y-125593152D02*
X207789161Y-126402676D01*
X207789161Y-126402676D02*
X207741542Y-126497914D01*
X207741542Y-126497914D02*
X207693923Y-126545533D01*
X207693923Y-126545533D02*
X207598685Y-126593152D01*
X207598685Y-126593152D02*
X207455828Y-126593152D01*
X207455828Y-126593152D02*
X207360590Y-126545533D01*
X207789161Y-126212200D02*
X207693923Y-126259819D01*
X207693923Y-126259819D02*
X207503447Y-126259819D01*
X207503447Y-126259819D02*
X207408209Y-126212200D01*
X207408209Y-126212200D02*
X207360590Y-126164580D01*
X207360590Y-126164580D02*
X207312971Y-126069342D01*
X207312971Y-126069342D02*
X207312971Y-125783628D01*
X207312971Y-125783628D02*
X207360590Y-125688390D01*
X207360590Y-125688390D02*
X207408209Y-125640771D01*
X207408209Y-125640771D02*
X207503447Y-125593152D01*
X207503447Y-125593152D02*
X207693923Y-125593152D01*
X207693923Y-125593152D02*
X207789161Y-125640771D01*
X208265352Y-126259819D02*
X208265352Y-125593152D01*
X208265352Y-125783628D02*
X208312971Y-125688390D01*
X208312971Y-125688390D02*
X208360590Y-125640771D01*
X208360590Y-125640771D02*
X208455828Y-125593152D01*
X208455828Y-125593152D02*
X208551066Y-125593152D01*
X209027257Y-126259819D02*
X208932019Y-126212200D01*
X208932019Y-126212200D02*
X208884400Y-126164580D01*
X208884400Y-126164580D02*
X208836781Y-126069342D01*
X208836781Y-126069342D02*
X208836781Y-125783628D01*
X208836781Y-125783628D02*
X208884400Y-125688390D01*
X208884400Y-125688390D02*
X208932019Y-125640771D01*
X208932019Y-125640771D02*
X209027257Y-125593152D01*
X209027257Y-125593152D02*
X209170114Y-125593152D01*
X209170114Y-125593152D02*
X209265352Y-125640771D01*
X209265352Y-125640771D02*
X209312971Y-125688390D01*
X209312971Y-125688390D02*
X209360590Y-125783628D01*
X209360590Y-125783628D02*
X209360590Y-126069342D01*
X209360590Y-126069342D02*
X209312971Y-126164580D01*
X209312971Y-126164580D02*
X209265352Y-126212200D01*
X209265352Y-126212200D02*
X209170114Y-126259819D01*
X209170114Y-126259819D02*
X209027257Y-126259819D01*
X210217733Y-125593152D02*
X210217733Y-126259819D01*
X209789162Y-125593152D02*
X209789162Y-126116961D01*
X209789162Y-126116961D02*
X209836781Y-126212200D01*
X209836781Y-126212200D02*
X209932019Y-126259819D01*
X209932019Y-126259819D02*
X210074876Y-126259819D01*
X210074876Y-126259819D02*
X210170114Y-126212200D01*
X210170114Y-126212200D02*
X210217733Y-126164580D01*
X210693924Y-125593152D02*
X210693924Y-126593152D01*
X210693924Y-125640771D02*
X210789162Y-125593152D01*
X210789162Y-125593152D02*
X210979638Y-125593152D01*
X210979638Y-125593152D02*
X211074876Y-125640771D01*
X211074876Y-125640771D02*
X211122495Y-125688390D01*
X211122495Y-125688390D02*
X211170114Y-125783628D01*
X211170114Y-125783628D02*
X211170114Y-126069342D01*
X211170114Y-126069342D02*
X211122495Y-126164580D01*
X211122495Y-126164580D02*
X211074876Y-126212200D01*
X211074876Y-126212200D02*
X210979638Y-126259819D01*
X210979638Y-126259819D02*
X210789162Y-126259819D01*
X210789162Y-126259819D02*
X210693924Y-126212200D01*
X211979638Y-126212200D02*
X211884400Y-126259819D01*
X211884400Y-126259819D02*
X211693924Y-126259819D01*
X211693924Y-126259819D02*
X211598686Y-126212200D01*
X211598686Y-126212200D02*
X211551067Y-126116961D01*
X211551067Y-126116961D02*
X211551067Y-125736009D01*
X211551067Y-125736009D02*
X211598686Y-125640771D01*
X211598686Y-125640771D02*
X211693924Y-125593152D01*
X211693924Y-125593152D02*
X211884400Y-125593152D01*
X211884400Y-125593152D02*
X211979638Y-125640771D01*
X211979638Y-125640771D02*
X212027257Y-125736009D01*
X212027257Y-125736009D02*
X212027257Y-125831247D01*
X212027257Y-125831247D02*
X211551067Y-125926485D01*
X195217731Y-127822200D02*
X195122493Y-127869819D01*
X195122493Y-127869819D02*
X194932017Y-127869819D01*
X194932017Y-127869819D02*
X194836779Y-127822200D01*
X194836779Y-127822200D02*
X194789160Y-127726961D01*
X194789160Y-127726961D02*
X194789160Y-127346009D01*
X194789160Y-127346009D02*
X194836779Y-127250771D01*
X194836779Y-127250771D02*
X194932017Y-127203152D01*
X194932017Y-127203152D02*
X195122493Y-127203152D01*
X195122493Y-127203152D02*
X195217731Y-127250771D01*
X195217731Y-127250771D02*
X195265350Y-127346009D01*
X195265350Y-127346009D02*
X195265350Y-127441247D01*
X195265350Y-127441247D02*
X194789160Y-127536485D01*
X195122493Y-126822200D02*
X194979636Y-126965057D01*
X195836779Y-127869819D02*
X195741541Y-127822200D01*
X195741541Y-127822200D02*
X195693922Y-127726961D01*
X195693922Y-127726961D02*
X195693922Y-126869819D01*
X196598684Y-127822200D02*
X196503446Y-127869819D01*
X196503446Y-127869819D02*
X196312970Y-127869819D01*
X196312970Y-127869819D02*
X196217732Y-127822200D01*
X196217732Y-127822200D02*
X196170113Y-127726961D01*
X196170113Y-127726961D02*
X196170113Y-127346009D01*
X196170113Y-127346009D02*
X196217732Y-127250771D01*
X196217732Y-127250771D02*
X196312970Y-127203152D01*
X196312970Y-127203152D02*
X196503446Y-127203152D01*
X196503446Y-127203152D02*
X196598684Y-127250771D01*
X196598684Y-127250771D02*
X196646303Y-127346009D01*
X196646303Y-127346009D02*
X196646303Y-127441247D01*
X196646303Y-127441247D02*
X196170113Y-127536485D01*
X197503446Y-127822200D02*
X197408208Y-127869819D01*
X197408208Y-127869819D02*
X197217732Y-127869819D01*
X197217732Y-127869819D02*
X197122494Y-127822200D01*
X197122494Y-127822200D02*
X197074875Y-127774580D01*
X197074875Y-127774580D02*
X197027256Y-127679342D01*
X197027256Y-127679342D02*
X197027256Y-127393628D01*
X197027256Y-127393628D02*
X197074875Y-127298390D01*
X197074875Y-127298390D02*
X197122494Y-127250771D01*
X197122494Y-127250771D02*
X197217732Y-127203152D01*
X197217732Y-127203152D02*
X197408208Y-127203152D01*
X197408208Y-127203152D02*
X197503446Y-127250771D01*
X197789161Y-127203152D02*
X198170113Y-127203152D01*
X197932018Y-126869819D02*
X197932018Y-127726961D01*
X197932018Y-127726961D02*
X197979637Y-127822200D01*
X197979637Y-127822200D02*
X198074875Y-127869819D01*
X198074875Y-127869819D02*
X198170113Y-127869819D01*
X198503447Y-127869819D02*
X198503447Y-127203152D01*
X198503447Y-127393628D02*
X198551066Y-127298390D01*
X198551066Y-127298390D02*
X198598685Y-127250771D01*
X198598685Y-127250771D02*
X198693923Y-127203152D01*
X198693923Y-127203152D02*
X198789161Y-127203152D01*
X199265352Y-127869819D02*
X199170114Y-127822200D01*
X199170114Y-127822200D02*
X199122495Y-127774580D01*
X199122495Y-127774580D02*
X199074876Y-127679342D01*
X199074876Y-127679342D02*
X199074876Y-127393628D01*
X199074876Y-127393628D02*
X199122495Y-127298390D01*
X199122495Y-127298390D02*
X199170114Y-127250771D01*
X199170114Y-127250771D02*
X199265352Y-127203152D01*
X199265352Y-127203152D02*
X199408209Y-127203152D01*
X199408209Y-127203152D02*
X199503447Y-127250771D01*
X199503447Y-127250771D02*
X199551066Y-127298390D01*
X199551066Y-127298390D02*
X199598685Y-127393628D01*
X199598685Y-127393628D02*
X199598685Y-127679342D01*
X199598685Y-127679342D02*
X199551066Y-127774580D01*
X199551066Y-127774580D02*
X199503447Y-127822200D01*
X199503447Y-127822200D02*
X199408209Y-127869819D01*
X199408209Y-127869819D02*
X199265352Y-127869819D01*
X200455828Y-127203152D02*
X200455828Y-128012676D01*
X200455828Y-128012676D02*
X200408209Y-128107914D01*
X200408209Y-128107914D02*
X200360590Y-128155533D01*
X200360590Y-128155533D02*
X200265352Y-128203152D01*
X200265352Y-128203152D02*
X200122495Y-128203152D01*
X200122495Y-128203152D02*
X200027257Y-128155533D01*
X200455828Y-127822200D02*
X200360590Y-127869819D01*
X200360590Y-127869819D02*
X200170114Y-127869819D01*
X200170114Y-127869819D02*
X200074876Y-127822200D01*
X200074876Y-127822200D02*
X200027257Y-127774580D01*
X200027257Y-127774580D02*
X199979638Y-127679342D01*
X199979638Y-127679342D02*
X199979638Y-127393628D01*
X199979638Y-127393628D02*
X200027257Y-127298390D01*
X200027257Y-127298390D02*
X200074876Y-127250771D01*
X200074876Y-127250771D02*
X200170114Y-127203152D01*
X200170114Y-127203152D02*
X200360590Y-127203152D01*
X200360590Y-127203152D02*
X200455828Y-127250771D01*
X201312971Y-127822200D02*
X201217733Y-127869819D01*
X201217733Y-127869819D02*
X201027257Y-127869819D01*
X201027257Y-127869819D02*
X200932019Y-127822200D01*
X200932019Y-127822200D02*
X200884400Y-127726961D01*
X200884400Y-127726961D02*
X200884400Y-127346009D01*
X200884400Y-127346009D02*
X200932019Y-127250771D01*
X200932019Y-127250771D02*
X201027257Y-127203152D01*
X201027257Y-127203152D02*
X201217733Y-127203152D01*
X201217733Y-127203152D02*
X201312971Y-127250771D01*
X201312971Y-127250771D02*
X201360590Y-127346009D01*
X201360590Y-127346009D02*
X201360590Y-127441247D01*
X201360590Y-127441247D02*
X200884400Y-127536485D01*
X201027257Y-126822200D02*
X201170114Y-126965057D01*
X201789162Y-127203152D02*
X201789162Y-127869819D01*
X201789162Y-127298390D02*
X201836781Y-127250771D01*
X201836781Y-127250771D02*
X201932019Y-127203152D01*
X201932019Y-127203152D02*
X202074876Y-127203152D01*
X202074876Y-127203152D02*
X202170114Y-127250771D01*
X202170114Y-127250771D02*
X202217733Y-127346009D01*
X202217733Y-127346009D02*
X202217733Y-127869819D01*
X203074876Y-127822200D02*
X202979638Y-127869819D01*
X202979638Y-127869819D02*
X202789162Y-127869819D01*
X202789162Y-127869819D02*
X202693924Y-127822200D01*
X202693924Y-127822200D02*
X202646305Y-127726961D01*
X202646305Y-127726961D02*
X202646305Y-127346009D01*
X202646305Y-127346009D02*
X202693924Y-127250771D01*
X202693924Y-127250771D02*
X202789162Y-127203152D01*
X202789162Y-127203152D02*
X202979638Y-127203152D01*
X202979638Y-127203152D02*
X203074876Y-127250771D01*
X203074876Y-127250771D02*
X203122495Y-127346009D01*
X203122495Y-127346009D02*
X203122495Y-127441247D01*
X203122495Y-127441247D02*
X202646305Y-127536485D01*
X204741543Y-127869819D02*
X204741543Y-127346009D01*
X204741543Y-127346009D02*
X204693924Y-127250771D01*
X204693924Y-127250771D02*
X204598686Y-127203152D01*
X204598686Y-127203152D02*
X204408210Y-127203152D01*
X204408210Y-127203152D02*
X204312972Y-127250771D01*
X204741543Y-127822200D02*
X204646305Y-127869819D01*
X204646305Y-127869819D02*
X204408210Y-127869819D01*
X204408210Y-127869819D02*
X204312972Y-127822200D01*
X204312972Y-127822200D02*
X204265353Y-127726961D01*
X204265353Y-127726961D02*
X204265353Y-127631723D01*
X204265353Y-127631723D02*
X204312972Y-127536485D01*
X204312972Y-127536485D02*
X204408210Y-127488866D01*
X204408210Y-127488866D02*
X204646305Y-127488866D01*
X204646305Y-127488866D02*
X204741543Y-127441247D01*
X205646305Y-127203152D02*
X205646305Y-127869819D01*
X205217734Y-127203152D02*
X205217734Y-127726961D01*
X205217734Y-127726961D02*
X205265353Y-127822200D01*
X205265353Y-127822200D02*
X205360591Y-127869819D01*
X205360591Y-127869819D02*
X205503448Y-127869819D01*
X205503448Y-127869819D02*
X205598686Y-127822200D01*
X205598686Y-127822200D02*
X205646305Y-127774580D01*
X205979639Y-127203152D02*
X206360591Y-127203152D01*
X206122496Y-126869819D02*
X206122496Y-127726961D01*
X206122496Y-127726961D02*
X206170115Y-127822200D01*
X206170115Y-127822200D02*
X206265353Y-127869819D01*
X206265353Y-127869819D02*
X206360591Y-127869819D01*
X206836782Y-127869819D02*
X206741544Y-127822200D01*
X206741544Y-127822200D02*
X206693925Y-127774580D01*
X206693925Y-127774580D02*
X206646306Y-127679342D01*
X206646306Y-127679342D02*
X206646306Y-127393628D01*
X206646306Y-127393628D02*
X206693925Y-127298390D01*
X206693925Y-127298390D02*
X206741544Y-127250771D01*
X206741544Y-127250771D02*
X206836782Y-127203152D01*
X206836782Y-127203152D02*
X206979639Y-127203152D01*
X206979639Y-127203152D02*
X207074877Y-127250771D01*
X207074877Y-127250771D02*
X207122496Y-127298390D01*
X207122496Y-127298390D02*
X207170115Y-127393628D01*
X207170115Y-127393628D02*
X207170115Y-127679342D01*
X207170115Y-127679342D02*
X207122496Y-127774580D01*
X207122496Y-127774580D02*
X207074877Y-127822200D01*
X207074877Y-127822200D02*
X206979639Y-127869819D01*
X206979639Y-127869819D02*
X206836782Y-127869819D01*
X207598687Y-127203152D02*
X207598687Y-128203152D01*
X207598687Y-127250771D02*
X207693925Y-127203152D01*
X207693925Y-127203152D02*
X207884401Y-127203152D01*
X207884401Y-127203152D02*
X207979639Y-127250771D01*
X207979639Y-127250771D02*
X208027258Y-127298390D01*
X208027258Y-127298390D02*
X208074877Y-127393628D01*
X208074877Y-127393628D02*
X208074877Y-127679342D01*
X208074877Y-127679342D02*
X208027258Y-127774580D01*
X208027258Y-127774580D02*
X207979639Y-127822200D01*
X207979639Y-127822200D02*
X207884401Y-127869819D01*
X207884401Y-127869819D02*
X207693925Y-127869819D01*
X207693925Y-127869819D02*
X207598687Y-127822200D01*
X208646306Y-127869819D02*
X208551068Y-127822200D01*
X208551068Y-127822200D02*
X208503449Y-127774580D01*
X208503449Y-127774580D02*
X208455830Y-127679342D01*
X208455830Y-127679342D02*
X208455830Y-127393628D01*
X208455830Y-127393628D02*
X208503449Y-127298390D01*
X208503449Y-127298390D02*
X208551068Y-127250771D01*
X208551068Y-127250771D02*
X208646306Y-127203152D01*
X208646306Y-127203152D02*
X208789163Y-127203152D01*
X208789163Y-127203152D02*
X208884401Y-127250771D01*
X208884401Y-127250771D02*
X208932020Y-127298390D01*
X208932020Y-127298390D02*
X208979639Y-127393628D01*
X208979639Y-127393628D02*
X208979639Y-127679342D01*
X208979639Y-127679342D02*
X208932020Y-127774580D01*
X208932020Y-127774580D02*
X208884401Y-127822200D01*
X208884401Y-127822200D02*
X208789163Y-127869819D01*
X208789163Y-127869819D02*
X208646306Y-127869819D01*
X209408211Y-127869819D02*
X209408211Y-127203152D01*
X209408211Y-127393628D02*
X209455830Y-127298390D01*
X209455830Y-127298390D02*
X209503449Y-127250771D01*
X209503449Y-127250771D02*
X209598687Y-127203152D01*
X209598687Y-127203152D02*
X209693925Y-127203152D01*
X209884402Y-127203152D02*
X210265354Y-127203152D01*
X210027259Y-126869819D02*
X210027259Y-127726961D01*
X210027259Y-127726961D02*
X210074878Y-127822200D01*
X210074878Y-127822200D02*
X210170116Y-127869819D01*
X210170116Y-127869819D02*
X210265354Y-127869819D01*
X210979640Y-127822200D02*
X210884402Y-127869819D01*
X210884402Y-127869819D02*
X210693926Y-127869819D01*
X210693926Y-127869819D02*
X210598688Y-127822200D01*
X210598688Y-127822200D02*
X210551069Y-127726961D01*
X210551069Y-127726961D02*
X210551069Y-127346009D01*
X210551069Y-127346009D02*
X210598688Y-127250771D01*
X210598688Y-127250771D02*
X210693926Y-127203152D01*
X210693926Y-127203152D02*
X210884402Y-127203152D01*
X210884402Y-127203152D02*
X210979640Y-127250771D01*
X210979640Y-127250771D02*
X211027259Y-127346009D01*
X211027259Y-127346009D02*
X211027259Y-127441247D01*
X211027259Y-127441247D02*
X210551069Y-127536485D01*
X210884402Y-126822200D02*
X210741545Y-126965057D01*
X110238095Y-137254819D02*
X110238095Y-136254819D01*
X110238095Y-136731009D02*
X110809523Y-136731009D01*
X110809523Y-137254819D02*
X110809523Y-136254819D01*
X111190476Y-136254819D02*
X111809523Y-136254819D01*
X111809523Y-136254819D02*
X111476190Y-136635771D01*
X111476190Y-136635771D02*
X111619047Y-136635771D01*
X111619047Y-136635771D02*
X111714285Y-136683390D01*
X111714285Y-136683390D02*
X111761904Y-136731009D01*
X111761904Y-136731009D02*
X111809523Y-136826247D01*
X111809523Y-136826247D02*
X111809523Y-137064342D01*
X111809523Y-137064342D02*
X111761904Y-137159580D01*
X111761904Y-137159580D02*
X111714285Y-137207200D01*
X111714285Y-137207200D02*
X111619047Y-137254819D01*
X111619047Y-137254819D02*
X111333333Y-137254819D01*
X111333333Y-137254819D02*
X111238095Y-137207200D01*
X111238095Y-137207200D02*
X111190476Y-137159580D01*
X186083333Y-121609580D02*
X186035714Y-121657200D01*
X186035714Y-121657200D02*
X185892857Y-121704819D01*
X185892857Y-121704819D02*
X185797619Y-121704819D01*
X185797619Y-121704819D02*
X185654762Y-121657200D01*
X185654762Y-121657200D02*
X185559524Y-121561961D01*
X185559524Y-121561961D02*
X185511905Y-121466723D01*
X185511905Y-121466723D02*
X185464286Y-121276247D01*
X185464286Y-121276247D02*
X185464286Y-121133390D01*
X185464286Y-121133390D02*
X185511905Y-120942914D01*
X185511905Y-120942914D02*
X185559524Y-120847676D01*
X185559524Y-120847676D02*
X185654762Y-120752438D01*
X185654762Y-120752438D02*
X185797619Y-120704819D01*
X185797619Y-120704819D02*
X185892857Y-120704819D01*
X185892857Y-120704819D02*
X186035714Y-120752438D01*
X186035714Y-120752438D02*
X186083333Y-120800057D01*
X186464286Y-120800057D02*
X186511905Y-120752438D01*
X186511905Y-120752438D02*
X186607143Y-120704819D01*
X186607143Y-120704819D02*
X186845238Y-120704819D01*
X186845238Y-120704819D02*
X186940476Y-120752438D01*
X186940476Y-120752438D02*
X186988095Y-120800057D01*
X186988095Y-120800057D02*
X187035714Y-120895295D01*
X187035714Y-120895295D02*
X187035714Y-120990533D01*
X187035714Y-120990533D02*
X186988095Y-121133390D01*
X186988095Y-121133390D02*
X186416667Y-121704819D01*
X186416667Y-121704819D02*
X187035714Y-121704819D01*
X206488095Y-23254819D02*
X206488095Y-22254819D01*
X206488095Y-22731009D02*
X207059523Y-22731009D01*
X207059523Y-23254819D02*
X207059523Y-22254819D01*
X208059523Y-23254819D02*
X207488095Y-23254819D01*
X207773809Y-23254819D02*
X207773809Y-22254819D01*
X207773809Y-22254819D02*
X207678571Y-22397676D01*
X207678571Y-22397676D02*
X207583333Y-22492914D01*
X207583333Y-22492914D02*
X207488095Y-22540533D01*
X200261905Y-77304819D02*
X200261905Y-76304819D01*
X200261905Y-76304819D02*
X200500000Y-76304819D01*
X200500000Y-76304819D02*
X200642857Y-76352438D01*
X200642857Y-76352438D02*
X200738095Y-76447676D01*
X200738095Y-76447676D02*
X200785714Y-76542914D01*
X200785714Y-76542914D02*
X200833333Y-76733390D01*
X200833333Y-76733390D02*
X200833333Y-76876247D01*
X200833333Y-76876247D02*
X200785714Y-77066723D01*
X200785714Y-77066723D02*
X200738095Y-77161961D01*
X200738095Y-77161961D02*
X200642857Y-77257200D01*
X200642857Y-77257200D02*
X200500000Y-77304819D01*
X200500000Y-77304819D02*
X200261905Y-77304819D01*
X201166667Y-76304819D02*
X201833333Y-76304819D01*
X201833333Y-76304819D02*
X201404762Y-77304819D01*
X200761905Y-84204819D02*
X200761905Y-83204819D01*
X200761905Y-83204819D02*
X201000000Y-83204819D01*
X201000000Y-83204819D02*
X201142857Y-83252438D01*
X201142857Y-83252438D02*
X201238095Y-83347676D01*
X201238095Y-83347676D02*
X201285714Y-83442914D01*
X201285714Y-83442914D02*
X201333333Y-83633390D01*
X201333333Y-83633390D02*
X201333333Y-83776247D01*
X201333333Y-83776247D02*
X201285714Y-83966723D01*
X201285714Y-83966723D02*
X201238095Y-84061961D01*
X201238095Y-84061961D02*
X201142857Y-84157200D01*
X201142857Y-84157200D02*
X201000000Y-84204819D01*
X201000000Y-84204819D02*
X200761905Y-84204819D01*
X201904762Y-83633390D02*
X201809524Y-83585771D01*
X201809524Y-83585771D02*
X201761905Y-83538152D01*
X201761905Y-83538152D02*
X201714286Y-83442914D01*
X201714286Y-83442914D02*
X201714286Y-83395295D01*
X201714286Y-83395295D02*
X201761905Y-83300057D01*
X201761905Y-83300057D02*
X201809524Y-83252438D01*
X201809524Y-83252438D02*
X201904762Y-83204819D01*
X201904762Y-83204819D02*
X202095238Y-83204819D01*
X202095238Y-83204819D02*
X202190476Y-83252438D01*
X202190476Y-83252438D02*
X202238095Y-83300057D01*
X202238095Y-83300057D02*
X202285714Y-83395295D01*
X202285714Y-83395295D02*
X202285714Y-83442914D01*
X202285714Y-83442914D02*
X202238095Y-83538152D01*
X202238095Y-83538152D02*
X202190476Y-83585771D01*
X202190476Y-83585771D02*
X202095238Y-83633390D01*
X202095238Y-83633390D02*
X201904762Y-83633390D01*
X201904762Y-83633390D02*
X201809524Y-83681009D01*
X201809524Y-83681009D02*
X201761905Y-83728628D01*
X201761905Y-83728628D02*
X201714286Y-83823866D01*
X201714286Y-83823866D02*
X201714286Y-84014342D01*
X201714286Y-84014342D02*
X201761905Y-84109580D01*
X201761905Y-84109580D02*
X201809524Y-84157200D01*
X201809524Y-84157200D02*
X201904762Y-84204819D01*
X201904762Y-84204819D02*
X202095238Y-84204819D01*
X202095238Y-84204819D02*
X202190476Y-84157200D01*
X202190476Y-84157200D02*
X202238095Y-84109580D01*
X202238095Y-84109580D02*
X202285714Y-84014342D01*
X202285714Y-84014342D02*
X202285714Y-83823866D01*
X202285714Y-83823866D02*
X202238095Y-83728628D01*
X202238095Y-83728628D02*
X202190476Y-83681009D01*
X202190476Y-83681009D02*
X202095238Y-83633390D01*
X200161905Y-37954819D02*
X200161905Y-36954819D01*
X200161905Y-36954819D02*
X200400000Y-36954819D01*
X200400000Y-36954819D02*
X200542857Y-37002438D01*
X200542857Y-37002438D02*
X200638095Y-37097676D01*
X200638095Y-37097676D02*
X200685714Y-37192914D01*
X200685714Y-37192914D02*
X200733333Y-37383390D01*
X200733333Y-37383390D02*
X200733333Y-37526247D01*
X200733333Y-37526247D02*
X200685714Y-37716723D01*
X200685714Y-37716723D02*
X200638095Y-37811961D01*
X200638095Y-37811961D02*
X200542857Y-37907200D01*
X200542857Y-37907200D02*
X200400000Y-37954819D01*
X200400000Y-37954819D02*
X200161905Y-37954819D01*
X201685714Y-37954819D02*
X201114286Y-37954819D01*
X201400000Y-37954819D02*
X201400000Y-36954819D01*
X201400000Y-36954819D02*
X201304762Y-37097676D01*
X201304762Y-37097676D02*
X201209524Y-37192914D01*
X201209524Y-37192914D02*
X201114286Y-37240533D01*
X200211905Y-44454819D02*
X200211905Y-43454819D01*
X200211905Y-43454819D02*
X200450000Y-43454819D01*
X200450000Y-43454819D02*
X200592857Y-43502438D01*
X200592857Y-43502438D02*
X200688095Y-43597676D01*
X200688095Y-43597676D02*
X200735714Y-43692914D01*
X200735714Y-43692914D02*
X200783333Y-43883390D01*
X200783333Y-43883390D02*
X200783333Y-44026247D01*
X200783333Y-44026247D02*
X200735714Y-44216723D01*
X200735714Y-44216723D02*
X200688095Y-44311961D01*
X200688095Y-44311961D02*
X200592857Y-44407200D01*
X200592857Y-44407200D02*
X200450000Y-44454819D01*
X200450000Y-44454819D02*
X200211905Y-44454819D01*
X201164286Y-43550057D02*
X201211905Y-43502438D01*
X201211905Y-43502438D02*
X201307143Y-43454819D01*
X201307143Y-43454819D02*
X201545238Y-43454819D01*
X201545238Y-43454819D02*
X201640476Y-43502438D01*
X201640476Y-43502438D02*
X201688095Y-43550057D01*
X201688095Y-43550057D02*
X201735714Y-43645295D01*
X201735714Y-43645295D02*
X201735714Y-43740533D01*
X201735714Y-43740533D02*
X201688095Y-43883390D01*
X201688095Y-43883390D02*
X201116667Y-44454819D01*
X201116667Y-44454819D02*
X201735714Y-44454819D01*
X200261905Y-70804819D02*
X200261905Y-69804819D01*
X200261905Y-69804819D02*
X200500000Y-69804819D01*
X200500000Y-69804819D02*
X200642857Y-69852438D01*
X200642857Y-69852438D02*
X200738095Y-69947676D01*
X200738095Y-69947676D02*
X200785714Y-70042914D01*
X200785714Y-70042914D02*
X200833333Y-70233390D01*
X200833333Y-70233390D02*
X200833333Y-70376247D01*
X200833333Y-70376247D02*
X200785714Y-70566723D01*
X200785714Y-70566723D02*
X200738095Y-70661961D01*
X200738095Y-70661961D02*
X200642857Y-70757200D01*
X200642857Y-70757200D02*
X200500000Y-70804819D01*
X200500000Y-70804819D02*
X200261905Y-70804819D01*
X201690476Y-69804819D02*
X201500000Y-69804819D01*
X201500000Y-69804819D02*
X201404762Y-69852438D01*
X201404762Y-69852438D02*
X201357143Y-69900057D01*
X201357143Y-69900057D02*
X201261905Y-70042914D01*
X201261905Y-70042914D02*
X201214286Y-70233390D01*
X201214286Y-70233390D02*
X201214286Y-70614342D01*
X201214286Y-70614342D02*
X201261905Y-70709580D01*
X201261905Y-70709580D02*
X201309524Y-70757200D01*
X201309524Y-70757200D02*
X201404762Y-70804819D01*
X201404762Y-70804819D02*
X201595238Y-70804819D01*
X201595238Y-70804819D02*
X201690476Y-70757200D01*
X201690476Y-70757200D02*
X201738095Y-70709580D01*
X201738095Y-70709580D02*
X201785714Y-70614342D01*
X201785714Y-70614342D02*
X201785714Y-70376247D01*
X201785714Y-70376247D02*
X201738095Y-70281009D01*
X201738095Y-70281009D02*
X201690476Y-70233390D01*
X201690476Y-70233390D02*
X201595238Y-70185771D01*
X201595238Y-70185771D02*
X201404762Y-70185771D01*
X201404762Y-70185771D02*
X201309524Y-70233390D01*
X201309524Y-70233390D02*
X201261905Y-70281009D01*
X201261905Y-70281009D02*
X201214286Y-70376247D01*
X189733333Y-97584819D02*
X189400000Y-97108628D01*
X189161905Y-97584819D02*
X189161905Y-96584819D01*
X189161905Y-96584819D02*
X189542857Y-96584819D01*
X189542857Y-96584819D02*
X189638095Y-96632438D01*
X189638095Y-96632438D02*
X189685714Y-96680057D01*
X189685714Y-96680057D02*
X189733333Y-96775295D01*
X189733333Y-96775295D02*
X189733333Y-96918152D01*
X189733333Y-96918152D02*
X189685714Y-97013390D01*
X189685714Y-97013390D02*
X189638095Y-97061009D01*
X189638095Y-97061009D02*
X189542857Y-97108628D01*
X189542857Y-97108628D02*
X189161905Y-97108628D01*
X190114286Y-96680057D02*
X190161905Y-96632438D01*
X190161905Y-96632438D02*
X190257143Y-96584819D01*
X190257143Y-96584819D02*
X190495238Y-96584819D01*
X190495238Y-96584819D02*
X190590476Y-96632438D01*
X190590476Y-96632438D02*
X190638095Y-96680057D01*
X190638095Y-96680057D02*
X190685714Y-96775295D01*
X190685714Y-96775295D02*
X190685714Y-96870533D01*
X190685714Y-96870533D02*
X190638095Y-97013390D01*
X190638095Y-97013390D02*
X190066667Y-97584819D01*
X190066667Y-97584819D02*
X190685714Y-97584819D01*
X200261905Y-64254819D02*
X200261905Y-63254819D01*
X200261905Y-63254819D02*
X200500000Y-63254819D01*
X200500000Y-63254819D02*
X200642857Y-63302438D01*
X200642857Y-63302438D02*
X200738095Y-63397676D01*
X200738095Y-63397676D02*
X200785714Y-63492914D01*
X200785714Y-63492914D02*
X200833333Y-63683390D01*
X200833333Y-63683390D02*
X200833333Y-63826247D01*
X200833333Y-63826247D02*
X200785714Y-64016723D01*
X200785714Y-64016723D02*
X200738095Y-64111961D01*
X200738095Y-64111961D02*
X200642857Y-64207200D01*
X200642857Y-64207200D02*
X200500000Y-64254819D01*
X200500000Y-64254819D02*
X200261905Y-64254819D01*
X201738095Y-63254819D02*
X201261905Y-63254819D01*
X201261905Y-63254819D02*
X201214286Y-63731009D01*
X201214286Y-63731009D02*
X201261905Y-63683390D01*
X201261905Y-63683390D02*
X201357143Y-63635771D01*
X201357143Y-63635771D02*
X201595238Y-63635771D01*
X201595238Y-63635771D02*
X201690476Y-63683390D01*
X201690476Y-63683390D02*
X201738095Y-63731009D01*
X201738095Y-63731009D02*
X201785714Y-63826247D01*
X201785714Y-63826247D02*
X201785714Y-64064342D01*
X201785714Y-64064342D02*
X201738095Y-64159580D01*
X201738095Y-64159580D02*
X201690476Y-64207200D01*
X201690476Y-64207200D02*
X201595238Y-64254819D01*
X201595238Y-64254819D02*
X201357143Y-64254819D01*
X201357143Y-64254819D02*
X201261905Y-64207200D01*
X201261905Y-64207200D02*
X201214286Y-64159580D01*
X124714819Y-113633333D02*
X125429104Y-113633333D01*
X125429104Y-113633333D02*
X125571961Y-113680952D01*
X125571961Y-113680952D02*
X125667200Y-113776190D01*
X125667200Y-113776190D02*
X125714819Y-113919047D01*
X125714819Y-113919047D02*
X125714819Y-114014285D01*
X125714819Y-112633333D02*
X125714819Y-113204761D01*
X125714819Y-112919047D02*
X124714819Y-112919047D01*
X124714819Y-112919047D02*
X124857676Y-113014285D01*
X124857676Y-113014285D02*
X124952914Y-113109523D01*
X124952914Y-113109523D02*
X125000533Y-113204761D01*
X200261905Y-57654819D02*
X200261905Y-56654819D01*
X200261905Y-56654819D02*
X200500000Y-56654819D01*
X200500000Y-56654819D02*
X200642857Y-56702438D01*
X200642857Y-56702438D02*
X200738095Y-56797676D01*
X200738095Y-56797676D02*
X200785714Y-56892914D01*
X200785714Y-56892914D02*
X200833333Y-57083390D01*
X200833333Y-57083390D02*
X200833333Y-57226247D01*
X200833333Y-57226247D02*
X200785714Y-57416723D01*
X200785714Y-57416723D02*
X200738095Y-57511961D01*
X200738095Y-57511961D02*
X200642857Y-57607200D01*
X200642857Y-57607200D02*
X200500000Y-57654819D01*
X200500000Y-57654819D02*
X200261905Y-57654819D01*
X201690476Y-56988152D02*
X201690476Y-57654819D01*
X201452381Y-56607200D02*
X201214286Y-57321485D01*
X201214286Y-57321485D02*
X201833333Y-57321485D01*
X189783333Y-102834819D02*
X189450000Y-102358628D01*
X189211905Y-102834819D02*
X189211905Y-101834819D01*
X189211905Y-101834819D02*
X189592857Y-101834819D01*
X189592857Y-101834819D02*
X189688095Y-101882438D01*
X189688095Y-101882438D02*
X189735714Y-101930057D01*
X189735714Y-101930057D02*
X189783333Y-102025295D01*
X189783333Y-102025295D02*
X189783333Y-102168152D01*
X189783333Y-102168152D02*
X189735714Y-102263390D01*
X189735714Y-102263390D02*
X189688095Y-102311009D01*
X189688095Y-102311009D02*
X189592857Y-102358628D01*
X189592857Y-102358628D02*
X189211905Y-102358628D01*
X190735714Y-102834819D02*
X190164286Y-102834819D01*
X190450000Y-102834819D02*
X190450000Y-101834819D01*
X190450000Y-101834819D02*
X190354762Y-101977676D01*
X190354762Y-101977676D02*
X190259524Y-102072914D01*
X190259524Y-102072914D02*
X190164286Y-102120533D01*
X206488095Y-137254819D02*
X206488095Y-136254819D01*
X206488095Y-136731009D02*
X207059523Y-136731009D01*
X207059523Y-137254819D02*
X207059523Y-136254819D01*
X207964285Y-136588152D02*
X207964285Y-137254819D01*
X207726190Y-136207200D02*
X207488095Y-136921485D01*
X207488095Y-136921485D02*
X208107142Y-136921485D01*
X200211905Y-50904819D02*
X200211905Y-49904819D01*
X200211905Y-49904819D02*
X200450000Y-49904819D01*
X200450000Y-49904819D02*
X200592857Y-49952438D01*
X200592857Y-49952438D02*
X200688095Y-50047676D01*
X200688095Y-50047676D02*
X200735714Y-50142914D01*
X200735714Y-50142914D02*
X200783333Y-50333390D01*
X200783333Y-50333390D02*
X200783333Y-50476247D01*
X200783333Y-50476247D02*
X200735714Y-50666723D01*
X200735714Y-50666723D02*
X200688095Y-50761961D01*
X200688095Y-50761961D02*
X200592857Y-50857200D01*
X200592857Y-50857200D02*
X200450000Y-50904819D01*
X200450000Y-50904819D02*
X200211905Y-50904819D01*
X201116667Y-49904819D02*
X201735714Y-49904819D01*
X201735714Y-49904819D02*
X201402381Y-50285771D01*
X201402381Y-50285771D02*
X201545238Y-50285771D01*
X201545238Y-50285771D02*
X201640476Y-50333390D01*
X201640476Y-50333390D02*
X201688095Y-50381009D01*
X201688095Y-50381009D02*
X201735714Y-50476247D01*
X201735714Y-50476247D02*
X201735714Y-50714342D01*
X201735714Y-50714342D02*
X201688095Y-50809580D01*
X201688095Y-50809580D02*
X201640476Y-50857200D01*
X201640476Y-50857200D02*
X201545238Y-50904819D01*
X201545238Y-50904819D02*
X201259524Y-50904819D01*
X201259524Y-50904819D02*
X201164286Y-50857200D01*
X201164286Y-50857200D02*
X201116667Y-50809580D01*
X147515714Y-30609104D02*
X147991904Y-30609104D01*
X147420476Y-30894819D02*
X147753809Y-29894819D01*
X147753809Y-29894819D02*
X148087142Y-30894819D01*
X148944285Y-30894819D02*
X148372857Y-30894819D01*
X148658571Y-30894819D02*
X148658571Y-29894819D01*
X148658571Y-29894819D02*
X148563333Y-30037676D01*
X148563333Y-30037676D02*
X148468095Y-30132914D01*
X148468095Y-30132914D02*
X148372857Y-30180533D01*
X110238095Y-23254819D02*
X110238095Y-22254819D01*
X110238095Y-22731009D02*
X110809523Y-22731009D01*
X110809523Y-23254819D02*
X110809523Y-22254819D01*
X111238095Y-22350057D02*
X111285714Y-22302438D01*
X111285714Y-22302438D02*
X111380952Y-22254819D01*
X111380952Y-22254819D02*
X111619047Y-22254819D01*
X111619047Y-22254819D02*
X111714285Y-22302438D01*
X111714285Y-22302438D02*
X111761904Y-22350057D01*
X111761904Y-22350057D02*
X111809523Y-22445295D01*
X111809523Y-22445295D02*
X111809523Y-22540533D01*
X111809523Y-22540533D02*
X111761904Y-22683390D01*
X111761904Y-22683390D02*
X111190476Y-23254819D01*
X111190476Y-23254819D02*
X111809523Y-23254819D01*
X152118095Y-106334819D02*
X152118095Y-107144342D01*
X152118095Y-107144342D02*
X152165714Y-107239580D01*
X152165714Y-107239580D02*
X152213333Y-107287200D01*
X152213333Y-107287200D02*
X152308571Y-107334819D01*
X152308571Y-107334819D02*
X152499047Y-107334819D01*
X152499047Y-107334819D02*
X152594285Y-107287200D01*
X152594285Y-107287200D02*
X152641904Y-107239580D01*
X152641904Y-107239580D02*
X152689523Y-107144342D01*
X152689523Y-107144342D02*
X152689523Y-106334819D01*
X153689523Y-107334819D02*
X153118095Y-107334819D01*
X153403809Y-107334819D02*
X153403809Y-106334819D01*
X153403809Y-106334819D02*
X153308571Y-106477676D01*
X153308571Y-106477676D02*
X153213333Y-106572914D01*
X153213333Y-106572914D02*
X153118095Y-106620533D01*
X186833333Y-135859580D02*
X186785714Y-135907200D01*
X186785714Y-135907200D02*
X186642857Y-135954819D01*
X186642857Y-135954819D02*
X186547619Y-135954819D01*
X186547619Y-135954819D02*
X186404762Y-135907200D01*
X186404762Y-135907200D02*
X186309524Y-135811961D01*
X186309524Y-135811961D02*
X186261905Y-135716723D01*
X186261905Y-135716723D02*
X186214286Y-135526247D01*
X186214286Y-135526247D02*
X186214286Y-135383390D01*
X186214286Y-135383390D02*
X186261905Y-135192914D01*
X186261905Y-135192914D02*
X186309524Y-135097676D01*
X186309524Y-135097676D02*
X186404762Y-135002438D01*
X186404762Y-135002438D02*
X186547619Y-134954819D01*
X186547619Y-134954819D02*
X186642857Y-134954819D01*
X186642857Y-134954819D02*
X186785714Y-135002438D01*
X186785714Y-135002438D02*
X186833333Y-135050057D01*
X187166667Y-134954819D02*
X187785714Y-134954819D01*
X187785714Y-134954819D02*
X187452381Y-135335771D01*
X187452381Y-135335771D02*
X187595238Y-135335771D01*
X187595238Y-135335771D02*
X187690476Y-135383390D01*
X187690476Y-135383390D02*
X187738095Y-135431009D01*
X187738095Y-135431009D02*
X187785714Y-135526247D01*
X187785714Y-135526247D02*
X187785714Y-135764342D01*
X187785714Y-135764342D02*
X187738095Y-135859580D01*
X187738095Y-135859580D02*
X187690476Y-135907200D01*
X187690476Y-135907200D02*
X187595238Y-135954819D01*
X187595238Y-135954819D02*
X187309524Y-135954819D01*
X187309524Y-135954819D02*
X187214286Y-135907200D01*
X187214286Y-135907200D02*
X187166667Y-135859580D01*
X195833333Y-114609580D02*
X195785714Y-114657200D01*
X195785714Y-114657200D02*
X195642857Y-114704819D01*
X195642857Y-114704819D02*
X195547619Y-114704819D01*
X195547619Y-114704819D02*
X195404762Y-114657200D01*
X195404762Y-114657200D02*
X195309524Y-114561961D01*
X195309524Y-114561961D02*
X195261905Y-114466723D01*
X195261905Y-114466723D02*
X195214286Y-114276247D01*
X195214286Y-114276247D02*
X195214286Y-114133390D01*
X195214286Y-114133390D02*
X195261905Y-113942914D01*
X195261905Y-113942914D02*
X195309524Y-113847676D01*
X195309524Y-113847676D02*
X195404762Y-113752438D01*
X195404762Y-113752438D02*
X195547619Y-113704819D01*
X195547619Y-113704819D02*
X195642857Y-113704819D01*
X195642857Y-113704819D02*
X195785714Y-113752438D01*
X195785714Y-113752438D02*
X195833333Y-113800057D01*
X196785714Y-114704819D02*
X196214286Y-114704819D01*
X196500000Y-114704819D02*
X196500000Y-113704819D01*
X196500000Y-113704819D02*
X196404762Y-113847676D01*
X196404762Y-113847676D02*
X196309524Y-113942914D01*
X196309524Y-113942914D02*
X196214286Y-113990533D01*
D12*
%TO.C,C2*%
X181840302Y-124185000D02*
X182640302Y-124185000D01*
X182240302Y-123785000D02*
X182240302Y-124585000D01*
X186250000Y-122420000D02*
X186250000Y-130580000D01*
X186290000Y-122420000D02*
X186290000Y-130580000D01*
X186330000Y-122420000D02*
X186330000Y-130580000D01*
X186370000Y-122421000D02*
X186370000Y-130579000D01*
X186410000Y-122423000D02*
X186410000Y-130577000D01*
X186450000Y-122424000D02*
X186450000Y-130576000D01*
X186490000Y-122426000D02*
X186490000Y-130574000D01*
X186530000Y-122429000D02*
X186530000Y-130571000D01*
X186570000Y-122432000D02*
X186570000Y-130568000D01*
X186610000Y-122435000D02*
X186610000Y-130565000D01*
X186650000Y-122439000D02*
X186650000Y-130561000D01*
X186690000Y-122443000D02*
X186690000Y-130557000D01*
X186730000Y-122448000D02*
X186730000Y-130552000D01*
X186770000Y-122452000D02*
X186770000Y-130548000D01*
X186810000Y-122458000D02*
X186810000Y-130542000D01*
X186850000Y-122463000D02*
X186850000Y-130537000D01*
X186890000Y-122470000D02*
X186890000Y-130530000D01*
X186930000Y-122476000D02*
X186930000Y-130524000D01*
X186971000Y-122483000D02*
X186971000Y-125460000D01*
X186971000Y-127540000D02*
X186971000Y-130517000D01*
X187011000Y-122490000D02*
X187011000Y-125460000D01*
X187011000Y-127540000D02*
X187011000Y-130510000D01*
X187051000Y-122498000D02*
X187051000Y-125460000D01*
X187051000Y-127540000D02*
X187051000Y-130502000D01*
X187091000Y-122506000D02*
X187091000Y-125460000D01*
X187091000Y-127540000D02*
X187091000Y-130494000D01*
X187131000Y-122515000D02*
X187131000Y-125460000D01*
X187131000Y-127540000D02*
X187131000Y-130485000D01*
X187171000Y-122524000D02*
X187171000Y-125460000D01*
X187171000Y-127540000D02*
X187171000Y-130476000D01*
X187211000Y-122533000D02*
X187211000Y-125460000D01*
X187211000Y-127540000D02*
X187211000Y-130467000D01*
X187251000Y-122543000D02*
X187251000Y-125460000D01*
X187251000Y-127540000D02*
X187251000Y-130457000D01*
X187291000Y-122553000D02*
X187291000Y-125460000D01*
X187291000Y-127540000D02*
X187291000Y-130447000D01*
X187331000Y-122564000D02*
X187331000Y-125460000D01*
X187331000Y-127540000D02*
X187331000Y-130436000D01*
X187371000Y-122575000D02*
X187371000Y-125460000D01*
X187371000Y-127540000D02*
X187371000Y-130425000D01*
X187411000Y-122586000D02*
X187411000Y-125460000D01*
X187411000Y-127540000D02*
X187411000Y-130414000D01*
X187451000Y-122598000D02*
X187451000Y-125460000D01*
X187451000Y-127540000D02*
X187451000Y-130402000D01*
X187491000Y-122611000D02*
X187491000Y-125460000D01*
X187491000Y-127540000D02*
X187491000Y-130389000D01*
X187531000Y-122623000D02*
X187531000Y-125460000D01*
X187531000Y-127540000D02*
X187531000Y-130377000D01*
X187571000Y-122637000D02*
X187571000Y-125460000D01*
X187571000Y-127540000D02*
X187571000Y-130363000D01*
X187611000Y-122650000D02*
X187611000Y-125460000D01*
X187611000Y-127540000D02*
X187611000Y-130350000D01*
X187651000Y-122665000D02*
X187651000Y-125460000D01*
X187651000Y-127540000D02*
X187651000Y-130335000D01*
X187691000Y-122679000D02*
X187691000Y-125460000D01*
X187691000Y-127540000D02*
X187691000Y-130321000D01*
X187731000Y-122695000D02*
X187731000Y-125460000D01*
X187731000Y-127540000D02*
X187731000Y-130305000D01*
X187771000Y-122710000D02*
X187771000Y-125460000D01*
X187771000Y-127540000D02*
X187771000Y-130290000D01*
X187811000Y-122726000D02*
X187811000Y-125460000D01*
X187811000Y-127540000D02*
X187811000Y-130274000D01*
X187851000Y-122743000D02*
X187851000Y-125460000D01*
X187851000Y-127540000D02*
X187851000Y-130257000D01*
X187891000Y-122760000D02*
X187891000Y-125460000D01*
X187891000Y-127540000D02*
X187891000Y-130240000D01*
X187931000Y-122778000D02*
X187931000Y-125460000D01*
X187931000Y-127540000D02*
X187931000Y-130222000D01*
X187971000Y-122796000D02*
X187971000Y-125460000D01*
X187971000Y-127540000D02*
X187971000Y-130204000D01*
X188011000Y-122814000D02*
X188011000Y-125460000D01*
X188011000Y-127540000D02*
X188011000Y-130186000D01*
X188051000Y-122834000D02*
X188051000Y-125460000D01*
X188051000Y-127540000D02*
X188051000Y-130166000D01*
X188091000Y-122853000D02*
X188091000Y-125460000D01*
X188091000Y-127540000D02*
X188091000Y-130147000D01*
X188131000Y-122873000D02*
X188131000Y-125460000D01*
X188131000Y-127540000D02*
X188131000Y-130127000D01*
X188171000Y-122894000D02*
X188171000Y-125460000D01*
X188171000Y-127540000D02*
X188171000Y-130106000D01*
X188211000Y-122916000D02*
X188211000Y-125460000D01*
X188211000Y-127540000D02*
X188211000Y-130084000D01*
X188251000Y-122938000D02*
X188251000Y-125460000D01*
X188251000Y-127540000D02*
X188251000Y-130062000D01*
X188291000Y-122960000D02*
X188291000Y-125460000D01*
X188291000Y-127540000D02*
X188291000Y-130040000D01*
X188331000Y-122983000D02*
X188331000Y-125460000D01*
X188331000Y-127540000D02*
X188331000Y-130017000D01*
X188371000Y-123007000D02*
X188371000Y-125460000D01*
X188371000Y-127540000D02*
X188371000Y-129993000D01*
X188411000Y-123031000D02*
X188411000Y-125460000D01*
X188411000Y-127540000D02*
X188411000Y-129969000D01*
X188451000Y-123056000D02*
X188451000Y-125460000D01*
X188451000Y-127540000D02*
X188451000Y-129944000D01*
X188491000Y-123082000D02*
X188491000Y-125460000D01*
X188491000Y-127540000D02*
X188491000Y-129918000D01*
X188531000Y-123108000D02*
X188531000Y-125460000D01*
X188531000Y-127540000D02*
X188531000Y-129892000D01*
X188571000Y-123135000D02*
X188571000Y-125460000D01*
X188571000Y-127540000D02*
X188571000Y-129865000D01*
X188611000Y-123162000D02*
X188611000Y-125460000D01*
X188611000Y-127540000D02*
X188611000Y-129838000D01*
X188651000Y-123191000D02*
X188651000Y-125460000D01*
X188651000Y-127540000D02*
X188651000Y-129809000D01*
X188691000Y-123220000D02*
X188691000Y-125460000D01*
X188691000Y-127540000D02*
X188691000Y-129780000D01*
X188731000Y-123250000D02*
X188731000Y-125460000D01*
X188731000Y-127540000D02*
X188731000Y-129750000D01*
X188771000Y-123280000D02*
X188771000Y-125460000D01*
X188771000Y-127540000D02*
X188771000Y-129720000D01*
X188811000Y-123311000D02*
X188811000Y-125460000D01*
X188811000Y-127540000D02*
X188811000Y-129689000D01*
X188851000Y-123344000D02*
X188851000Y-125460000D01*
X188851000Y-127540000D02*
X188851000Y-129656000D01*
X188891000Y-123376000D02*
X188891000Y-125460000D01*
X188891000Y-127540000D02*
X188891000Y-129624000D01*
X188931000Y-123410000D02*
X188931000Y-125460000D01*
X188931000Y-127540000D02*
X188931000Y-129590000D01*
X188971000Y-123445000D02*
X188971000Y-125460000D01*
X188971000Y-127540000D02*
X188971000Y-129555000D01*
X189011000Y-123481000D02*
X189011000Y-125460000D01*
X189011000Y-127540000D02*
X189011000Y-129519000D01*
X189051000Y-123517000D02*
X189051000Y-129483000D01*
X189091000Y-123555000D02*
X189091000Y-129445000D01*
X189131000Y-123593000D02*
X189131000Y-129407000D01*
X189171000Y-123633000D02*
X189171000Y-129367000D01*
X189211000Y-123674000D02*
X189211000Y-129326000D01*
X189251000Y-123716000D02*
X189251000Y-129284000D01*
X189291000Y-123759000D02*
X189291000Y-129241000D01*
X189331000Y-123803000D02*
X189331000Y-129197000D01*
X189371000Y-123849000D02*
X189371000Y-129151000D01*
X189411000Y-123896000D02*
X189411000Y-129104000D01*
X189451000Y-123944000D02*
X189451000Y-129056000D01*
X189491000Y-123995000D02*
X189491000Y-129005000D01*
X189531000Y-124046000D02*
X189531000Y-128954000D01*
X189571000Y-124100000D02*
X189571000Y-128900000D01*
X189611000Y-124155000D02*
X189611000Y-128845000D01*
X189651000Y-124213000D02*
X189651000Y-128787000D01*
X189691000Y-124272000D02*
X189691000Y-128728000D01*
X189731000Y-124334000D02*
X189731000Y-128666000D01*
X189771000Y-124398000D02*
X189771000Y-128602000D01*
X189811000Y-124466000D02*
X189811000Y-128534000D01*
X189851000Y-124536000D02*
X189851000Y-128464000D01*
X189891000Y-124610000D02*
X189891000Y-128390000D01*
X189931000Y-124687000D02*
X189931000Y-128313000D01*
X189971000Y-124769000D02*
X189971000Y-128231000D01*
X190011000Y-124855000D02*
X190011000Y-128145000D01*
X190051000Y-124948000D02*
X190051000Y-128052000D01*
X190091000Y-125047000D02*
X190091000Y-127953000D01*
X190131000Y-125154000D02*
X190131000Y-127846000D01*
X190171000Y-125271000D02*
X190171000Y-127729000D01*
X190211000Y-125402000D02*
X190211000Y-127598000D01*
X190251000Y-125552000D02*
X190251000Y-127448000D01*
X190291000Y-125732000D02*
X190291000Y-127268000D01*
X190331000Y-125967000D02*
X190331000Y-127033000D01*
X190370000Y-126500000D02*
G75*
G03*
X190370000Y-126500000I-4120000J0D01*
G01*
%TO.C,D7*%
X197490000Y-77700000D02*
X197490000Y-81000000D01*
X197490000Y-77700000D02*
X203000000Y-77700000D01*
X197490000Y-81000000D02*
X203000000Y-81000000D01*
%TO.C,D8*%
X197990000Y-84600000D02*
X197990000Y-87900000D01*
X197990000Y-84600000D02*
X203500000Y-84600000D01*
X197990000Y-87900000D02*
X203500000Y-87900000D01*
%TO.C,D1*%
X197390000Y-38350000D02*
X197390000Y-41650000D01*
X197390000Y-38350000D02*
X202900000Y-38350000D01*
X197390000Y-41650000D02*
X202900000Y-41650000D01*
%TO.C,D2*%
X197440000Y-44850000D02*
X197440000Y-48150000D01*
X197440000Y-44850000D02*
X202950000Y-44850000D01*
X197440000Y-48150000D02*
X202950000Y-48150000D01*
%TO.C,D6*%
X197490000Y-71200000D02*
X197490000Y-74500000D01*
X197490000Y-71200000D02*
X203000000Y-71200000D01*
X197490000Y-74500000D02*
X203000000Y-74500000D01*
%TO.C,R2*%
X187722936Y-98040000D02*
X192077064Y-98040000D01*
X187722936Y-101460000D02*
X192077064Y-101460000D01*
%TO.C,D5*%
X197490000Y-64650000D02*
X197490000Y-67950000D01*
X197490000Y-64650000D02*
X203000000Y-64650000D01*
X197490000Y-67950000D02*
X203000000Y-67950000D01*
%TO.C,J1*%
X114840000Y-92680000D02*
X114100000Y-92680000D01*
X114100000Y-92680000D02*
X114100000Y-93180000D01*
X124261000Y-92920000D02*
X114340000Y-92920000D01*
X124261000Y-92920000D02*
X124261000Y-133680000D01*
X121301000Y-92920000D02*
X121301000Y-133680000D01*
X116400000Y-92920000D02*
X116400000Y-133680000D01*
X114900000Y-92920000D02*
X114900000Y-133680000D01*
X114340000Y-92920000D02*
X114340000Y-133680000D01*
X117977000Y-99373000D02*
X117931000Y-99326000D01*
X117761000Y-99566000D02*
X117726000Y-99531000D01*
X120275000Y-101670000D02*
X120239000Y-101635000D01*
X120069000Y-101875000D02*
X120023000Y-101828000D01*
X117977000Y-104453000D02*
X117931000Y-104406000D01*
X117761000Y-104646000D02*
X117726000Y-104611000D01*
X120275000Y-106750000D02*
X120239000Y-106715000D01*
X120069000Y-106955000D02*
X120023000Y-106908000D01*
X117977000Y-109533000D02*
X117931000Y-109486000D01*
X117761000Y-109726000D02*
X117726000Y-109691000D01*
X120275000Y-111830000D02*
X120239000Y-111795000D01*
X120069000Y-112035000D02*
X120023000Y-111988000D01*
X117977000Y-114613000D02*
X117931000Y-114566000D01*
X117761000Y-114806000D02*
X117726000Y-114771000D01*
X120275000Y-116910000D02*
X120239000Y-116875000D01*
X120069000Y-117115000D02*
X120023000Y-117068000D01*
X117977000Y-119693000D02*
X117931000Y-119646000D01*
X117761000Y-119886000D02*
X117726000Y-119851000D01*
X120275000Y-121990000D02*
X120239000Y-121955000D01*
X120069000Y-122195000D02*
X120023000Y-122148000D01*
X117977000Y-124773000D02*
X117931000Y-124726000D01*
X117761000Y-124966000D02*
X117726000Y-124931000D01*
X120275000Y-127070000D02*
X120239000Y-127035000D01*
X120069000Y-127275000D02*
X120023000Y-127228000D01*
X117977000Y-129853000D02*
X117931000Y-129806000D01*
X117761000Y-130046000D02*
X117726000Y-130011000D01*
X120275000Y-132150000D02*
X120239000Y-132115000D01*
X120069000Y-132355000D02*
X120023000Y-132308000D01*
X124261000Y-133680000D02*
X114340000Y-133680000D01*
X119683999Y-93985001D02*
G75*
G03*
X118316958Y-93984574I-684000J-1534992D01*
G01*
X120534999Y-96203999D02*
G75*
G03*
X120535426Y-94836958I-1534992J684000D01*
G01*
X117465001Y-94836000D02*
G75*
G03*
X117319748Y-95548805I1535000J-683999D01*
G01*
X117320001Y-95520000D02*
G75*
G03*
X117465245Y-96203318I1679999J0D01*
G01*
X118316000Y-97055000D02*
G75*
G03*
X119683042Y-97055426I684000J1535000D01*
G01*
X120680000Y-100600000D02*
G75*
G03*
X120680000Y-100600000I-1680000J0D01*
G01*
X120680000Y-105680000D02*
G75*
G03*
X120680000Y-105680000I-1680000J0D01*
G01*
X120680000Y-110760000D02*
G75*
G03*
X120680000Y-110760000I-1680000J0D01*
G01*
X120680000Y-115840000D02*
G75*
G03*
X120680000Y-115840000I-1680000J0D01*
G01*
X120680000Y-120920000D02*
G75*
G03*
X120680000Y-120920000I-1680000J0D01*
G01*
X120680000Y-126000000D02*
G75*
G03*
X120680000Y-126000000I-1680000J0D01*
G01*
X120680000Y-131080000D02*
G75*
G03*
X120680000Y-131080000I-1680000J0D01*
G01*
%TO.C,D4*%
X197490000Y-58050000D02*
X197490000Y-61350000D01*
X197490000Y-58050000D02*
X203000000Y-58050000D01*
X197490000Y-61350000D02*
X203000000Y-61350000D01*
%TO.C,R1*%
X187772936Y-103290000D02*
X192127064Y-103290000D01*
X187772936Y-106710000D02*
X192127064Y-106710000D01*
%TO.C,D3*%
X197490000Y-51500000D02*
X197490000Y-54800000D01*
X197490000Y-51500000D02*
X203000000Y-51500000D01*
X197490000Y-54800000D02*
X203000000Y-54800000D01*
%TO.C,A1*%
X112540000Y-63970000D02*
X112540000Y-75650000D01*
X112540000Y-75650000D02*
X118890000Y-75650000D01*
X116990000Y-34760000D02*
X116990000Y-43900000D01*
X116990000Y-43900000D02*
X118890000Y-43900000D01*
X118890000Y-31580000D02*
X118890000Y-34760000D01*
X118890000Y-34760000D02*
X116990000Y-34760000D01*
X118890000Y-43900000D02*
X118890000Y-63970000D01*
X118890000Y-63970000D02*
X112540000Y-63970000D01*
X118890000Y-75650000D02*
X118890000Y-85180000D01*
X118890000Y-85180000D02*
X183540000Y-85180000D01*
X183540000Y-85180000D02*
X185190000Y-83530000D01*
X185190000Y-31580000D02*
X118890000Y-31580000D01*
X185190000Y-34250000D02*
X185190000Y-31580000D01*
X185190000Y-72100000D02*
X187730000Y-69560000D01*
X185190000Y-83530000D02*
X185190000Y-72100000D01*
X187730000Y-36790000D02*
X185190000Y-34250000D01*
X187730000Y-69560000D02*
X187730000Y-36790000D01*
%TO.C,U1*%
X142660000Y-107880000D02*
X142660000Y-113121000D01*
X142660000Y-107880000D02*
X163100000Y-107880000D01*
X142660000Y-109720000D02*
X163100000Y-109720000D01*
X142660000Y-113121000D02*
X144336000Y-113121000D01*
X143990000Y-113121000D02*
X143990000Y-116530000D01*
X146185000Y-113121000D02*
X146876000Y-113121000D01*
X146530000Y-113121000D02*
X146530000Y-116515000D01*
X148725000Y-113121000D02*
X149416000Y-113121000D01*
X149070000Y-113121000D02*
X149070000Y-116515000D01*
X151031000Y-107880000D02*
X151031000Y-109720000D01*
X151265000Y-113121000D02*
X151956000Y-113121000D01*
X151610000Y-113121000D02*
X151610000Y-116515000D01*
X153805000Y-113121000D02*
X154496000Y-113121000D01*
X154150000Y-113121000D02*
X154150000Y-116515000D01*
X154730000Y-107880000D02*
X154730000Y-109720000D01*
X156345000Y-113121000D02*
X157036000Y-113121000D01*
X156690000Y-113121000D02*
X156690000Y-116515000D01*
X158885000Y-113121000D02*
X159576000Y-113121000D01*
X159230000Y-113121000D02*
X159230000Y-116515000D01*
X161425000Y-113121000D02*
X163100000Y-113121000D01*
X161770000Y-113121000D02*
X161770000Y-116515000D01*
X163100000Y-107880000D02*
X163100000Y-113121000D01*
%TO.C,C3*%
X182590302Y-138435000D02*
X183390302Y-138435000D01*
X182990302Y-138035000D02*
X182990302Y-138835000D01*
X187000000Y-136670000D02*
X187000000Y-144830000D01*
X187040000Y-136670000D02*
X187040000Y-144830000D01*
X187080000Y-136670000D02*
X187080000Y-144830000D01*
X187120000Y-136671000D02*
X187120000Y-144829000D01*
X187160000Y-136673000D02*
X187160000Y-144827000D01*
X187200000Y-136674000D02*
X187200000Y-144826000D01*
X187240000Y-136676000D02*
X187240000Y-144824000D01*
X187280000Y-136679000D02*
X187280000Y-144821000D01*
X187320000Y-136682000D02*
X187320000Y-144818000D01*
X187360000Y-136685000D02*
X187360000Y-144815000D01*
X187400000Y-136689000D02*
X187400000Y-144811000D01*
X187440000Y-136693000D02*
X187440000Y-144807000D01*
X187480000Y-136698000D02*
X187480000Y-144802000D01*
X187520000Y-136702000D02*
X187520000Y-144798000D01*
X187560000Y-136708000D02*
X187560000Y-144792000D01*
X187600000Y-136713000D02*
X187600000Y-144787000D01*
X187640000Y-136720000D02*
X187640000Y-144780000D01*
X187680000Y-136726000D02*
X187680000Y-144774000D01*
X187721000Y-136733000D02*
X187721000Y-139710000D01*
X187721000Y-141790000D02*
X187721000Y-144767000D01*
X187761000Y-136740000D02*
X187761000Y-139710000D01*
X187761000Y-141790000D02*
X187761000Y-144760000D01*
X187801000Y-136748000D02*
X187801000Y-139710000D01*
X187801000Y-141790000D02*
X187801000Y-144752000D01*
X187841000Y-136756000D02*
X187841000Y-139710000D01*
X187841000Y-141790000D02*
X187841000Y-144744000D01*
X187881000Y-136765000D02*
X187881000Y-139710000D01*
X187881000Y-141790000D02*
X187881000Y-144735000D01*
X187921000Y-136774000D02*
X187921000Y-139710000D01*
X187921000Y-141790000D02*
X187921000Y-144726000D01*
X187961000Y-136783000D02*
X187961000Y-139710000D01*
X187961000Y-141790000D02*
X187961000Y-144717000D01*
X188001000Y-136793000D02*
X188001000Y-139710000D01*
X188001000Y-141790000D02*
X188001000Y-144707000D01*
X188041000Y-136803000D02*
X188041000Y-139710000D01*
X188041000Y-141790000D02*
X188041000Y-144697000D01*
X188081000Y-136814000D02*
X188081000Y-139710000D01*
X188081000Y-141790000D02*
X188081000Y-144686000D01*
X188121000Y-136825000D02*
X188121000Y-139710000D01*
X188121000Y-141790000D02*
X188121000Y-144675000D01*
X188161000Y-136836000D02*
X188161000Y-139710000D01*
X188161000Y-141790000D02*
X188161000Y-144664000D01*
X188201000Y-136848000D02*
X188201000Y-139710000D01*
X188201000Y-141790000D02*
X188201000Y-144652000D01*
X188241000Y-136861000D02*
X188241000Y-139710000D01*
X188241000Y-141790000D02*
X188241000Y-144639000D01*
X188281000Y-136873000D02*
X188281000Y-139710000D01*
X188281000Y-141790000D02*
X188281000Y-144627000D01*
X188321000Y-136887000D02*
X188321000Y-139710000D01*
X188321000Y-141790000D02*
X188321000Y-144613000D01*
X188361000Y-136900000D02*
X188361000Y-139710000D01*
X188361000Y-141790000D02*
X188361000Y-144600000D01*
X188401000Y-136915000D02*
X188401000Y-139710000D01*
X188401000Y-141790000D02*
X188401000Y-144585000D01*
X188441000Y-136929000D02*
X188441000Y-139710000D01*
X188441000Y-141790000D02*
X188441000Y-144571000D01*
X188481000Y-136945000D02*
X188481000Y-139710000D01*
X188481000Y-141790000D02*
X188481000Y-144555000D01*
X188521000Y-136960000D02*
X188521000Y-139710000D01*
X188521000Y-141790000D02*
X188521000Y-144540000D01*
X188561000Y-136976000D02*
X188561000Y-139710000D01*
X188561000Y-141790000D02*
X188561000Y-144524000D01*
X188601000Y-136993000D02*
X188601000Y-139710000D01*
X188601000Y-141790000D02*
X188601000Y-144507000D01*
X188641000Y-137010000D02*
X188641000Y-139710000D01*
X188641000Y-141790000D02*
X188641000Y-144490000D01*
X188681000Y-137028000D02*
X188681000Y-139710000D01*
X188681000Y-141790000D02*
X188681000Y-144472000D01*
X188721000Y-137046000D02*
X188721000Y-139710000D01*
X188721000Y-141790000D02*
X188721000Y-144454000D01*
X188761000Y-137064000D02*
X188761000Y-139710000D01*
X188761000Y-141790000D02*
X188761000Y-144436000D01*
X188801000Y-137084000D02*
X188801000Y-139710000D01*
X188801000Y-141790000D02*
X188801000Y-144416000D01*
X188841000Y-137103000D02*
X188841000Y-139710000D01*
X188841000Y-141790000D02*
X188841000Y-144397000D01*
X188881000Y-137123000D02*
X188881000Y-139710000D01*
X188881000Y-141790000D02*
X188881000Y-144377000D01*
X188921000Y-137144000D02*
X188921000Y-139710000D01*
X188921000Y-141790000D02*
X188921000Y-144356000D01*
X188961000Y-137166000D02*
X188961000Y-139710000D01*
X188961000Y-141790000D02*
X188961000Y-144334000D01*
X189001000Y-137188000D02*
X189001000Y-139710000D01*
X189001000Y-141790000D02*
X189001000Y-144312000D01*
X189041000Y-137210000D02*
X189041000Y-139710000D01*
X189041000Y-141790000D02*
X189041000Y-144290000D01*
X189081000Y-137233000D02*
X189081000Y-139710000D01*
X189081000Y-141790000D02*
X189081000Y-144267000D01*
X189121000Y-137257000D02*
X189121000Y-139710000D01*
X189121000Y-141790000D02*
X189121000Y-144243000D01*
X189161000Y-137281000D02*
X189161000Y-139710000D01*
X189161000Y-141790000D02*
X189161000Y-144219000D01*
X189201000Y-137306000D02*
X189201000Y-139710000D01*
X189201000Y-141790000D02*
X189201000Y-144194000D01*
X189241000Y-137332000D02*
X189241000Y-139710000D01*
X189241000Y-141790000D02*
X189241000Y-144168000D01*
X189281000Y-137358000D02*
X189281000Y-139710000D01*
X189281000Y-141790000D02*
X189281000Y-144142000D01*
X189321000Y-137385000D02*
X189321000Y-139710000D01*
X189321000Y-141790000D02*
X189321000Y-144115000D01*
X189361000Y-137412000D02*
X189361000Y-139710000D01*
X189361000Y-141790000D02*
X189361000Y-144088000D01*
X189401000Y-137441000D02*
X189401000Y-139710000D01*
X189401000Y-141790000D02*
X189401000Y-144059000D01*
X189441000Y-137470000D02*
X189441000Y-139710000D01*
X189441000Y-141790000D02*
X189441000Y-144030000D01*
X189481000Y-137500000D02*
X189481000Y-139710000D01*
X189481000Y-141790000D02*
X189481000Y-144000000D01*
X189521000Y-137530000D02*
X189521000Y-139710000D01*
X189521000Y-141790000D02*
X189521000Y-143970000D01*
X189561000Y-137561000D02*
X189561000Y-139710000D01*
X189561000Y-141790000D02*
X189561000Y-143939000D01*
X189601000Y-137594000D02*
X189601000Y-139710000D01*
X189601000Y-141790000D02*
X189601000Y-143906000D01*
X189641000Y-137626000D02*
X189641000Y-139710000D01*
X189641000Y-141790000D02*
X189641000Y-143874000D01*
X189681000Y-137660000D02*
X189681000Y-139710000D01*
X189681000Y-141790000D02*
X189681000Y-143840000D01*
X189721000Y-137695000D02*
X189721000Y-139710000D01*
X189721000Y-141790000D02*
X189721000Y-143805000D01*
X189761000Y-137731000D02*
X189761000Y-139710000D01*
X189761000Y-141790000D02*
X189761000Y-143769000D01*
X189801000Y-137767000D02*
X189801000Y-143733000D01*
X189841000Y-137805000D02*
X189841000Y-143695000D01*
X189881000Y-137843000D02*
X189881000Y-143657000D01*
X189921000Y-137883000D02*
X189921000Y-143617000D01*
X189961000Y-137924000D02*
X189961000Y-143576000D01*
X190001000Y-137966000D02*
X190001000Y-143534000D01*
X190041000Y-138009000D02*
X190041000Y-143491000D01*
X190081000Y-138053000D02*
X190081000Y-143447000D01*
X190121000Y-138099000D02*
X190121000Y-143401000D01*
X190161000Y-138146000D02*
X190161000Y-143354000D01*
X190201000Y-138194000D02*
X190201000Y-143306000D01*
X190241000Y-138245000D02*
X190241000Y-143255000D01*
X190281000Y-138296000D02*
X190281000Y-143204000D01*
X190321000Y-138350000D02*
X190321000Y-143150000D01*
X190361000Y-138405000D02*
X190361000Y-143095000D01*
X190401000Y-138463000D02*
X190401000Y-143037000D01*
X190441000Y-138522000D02*
X190441000Y-142978000D01*
X190481000Y-138584000D02*
X190481000Y-142916000D01*
X190521000Y-138648000D02*
X190521000Y-142852000D01*
X190561000Y-138716000D02*
X190561000Y-142784000D01*
X190601000Y-138786000D02*
X190601000Y-142714000D01*
X190641000Y-138860000D02*
X190641000Y-142640000D01*
X190681000Y-138937000D02*
X190681000Y-142563000D01*
X190721000Y-139019000D02*
X190721000Y-142481000D01*
X190761000Y-139105000D02*
X190761000Y-142395000D01*
X190801000Y-139198000D02*
X190801000Y-142302000D01*
X190841000Y-139297000D02*
X190841000Y-142203000D01*
X190881000Y-139404000D02*
X190881000Y-142096000D01*
X190921000Y-139521000D02*
X190921000Y-141979000D01*
X190961000Y-139652000D02*
X190961000Y-141848000D01*
X191001000Y-139802000D02*
X191001000Y-141698000D01*
X191041000Y-139982000D02*
X191041000Y-141518000D01*
X191081000Y-140217000D02*
X191081000Y-141283000D01*
X191120000Y-140750000D02*
G75*
G03*
X191120000Y-140750000I-4120000J0D01*
G01*
%TO.C,C1*%
X190195225Y-115275000D02*
X190695225Y-115275000D01*
X190445225Y-115025000D02*
X190445225Y-115525000D01*
X193000000Y-114170000D02*
X193000000Y-115710000D01*
X193000000Y-117790000D02*
X193000000Y-119330000D01*
X193040000Y-114170000D02*
X193040000Y-115710000D01*
X193040000Y-117790000D02*
X193040000Y-119330000D01*
X193080000Y-114171000D02*
X193080000Y-115710000D01*
X193080000Y-117790000D02*
X193080000Y-119329000D01*
X193120000Y-114172000D02*
X193120000Y-115710000D01*
X193120000Y-117790000D02*
X193120000Y-119328000D01*
X193160000Y-114174000D02*
X193160000Y-115710000D01*
X193160000Y-117790000D02*
X193160000Y-119326000D01*
X193200000Y-114177000D02*
X193200000Y-115710000D01*
X193200000Y-117790000D02*
X193200000Y-119323000D01*
X193240000Y-114181000D02*
X193240000Y-115710000D01*
X193240000Y-117790000D02*
X193240000Y-119319000D01*
X193280000Y-114185000D02*
X193280000Y-115710000D01*
X193280000Y-117790000D02*
X193280000Y-119315000D01*
X193320000Y-114189000D02*
X193320000Y-115710000D01*
X193320000Y-117790000D02*
X193320000Y-119311000D01*
X193360000Y-114194000D02*
X193360000Y-115710000D01*
X193360000Y-117790000D02*
X193360000Y-119306000D01*
X193400000Y-114200000D02*
X193400000Y-115710000D01*
X193400000Y-117790000D02*
X193400000Y-119300000D01*
X193440000Y-114207000D02*
X193440000Y-115710000D01*
X193440000Y-117790000D02*
X193440000Y-119293000D01*
X193480000Y-114214000D02*
X193480000Y-115710000D01*
X193480000Y-117790000D02*
X193480000Y-119286000D01*
X193520000Y-114222000D02*
X193520000Y-115710000D01*
X193520000Y-117790000D02*
X193520000Y-119278000D01*
X193560000Y-114230000D02*
X193560000Y-115710000D01*
X193560000Y-117790000D02*
X193560000Y-119270000D01*
X193600000Y-114239000D02*
X193600000Y-115710000D01*
X193600000Y-117790000D02*
X193600000Y-119261000D01*
X193640000Y-114249000D02*
X193640000Y-115710000D01*
X193640000Y-117790000D02*
X193640000Y-119251000D01*
X193680000Y-114259000D02*
X193680000Y-115710000D01*
X193680000Y-117790000D02*
X193680000Y-119241000D01*
X193721000Y-114270000D02*
X193721000Y-115710000D01*
X193721000Y-117790000D02*
X193721000Y-119230000D01*
X193761000Y-114282000D02*
X193761000Y-115710000D01*
X193761000Y-117790000D02*
X193761000Y-119218000D01*
X193801000Y-114295000D02*
X193801000Y-115710000D01*
X193801000Y-117790000D02*
X193801000Y-119205000D01*
X193841000Y-114308000D02*
X193841000Y-115710000D01*
X193841000Y-117790000D02*
X193841000Y-119192000D01*
X193881000Y-114322000D02*
X193881000Y-115710000D01*
X193881000Y-117790000D02*
X193881000Y-119178000D01*
X193921000Y-114336000D02*
X193921000Y-115710000D01*
X193921000Y-117790000D02*
X193921000Y-119164000D01*
X193961000Y-114352000D02*
X193961000Y-115710000D01*
X193961000Y-117790000D02*
X193961000Y-119148000D01*
X194001000Y-114368000D02*
X194001000Y-115710000D01*
X194001000Y-117790000D02*
X194001000Y-119132000D01*
X194041000Y-114385000D02*
X194041000Y-115710000D01*
X194041000Y-117790000D02*
X194041000Y-119115000D01*
X194081000Y-114402000D02*
X194081000Y-115710000D01*
X194081000Y-117790000D02*
X194081000Y-119098000D01*
X194121000Y-114421000D02*
X194121000Y-115710000D01*
X194121000Y-117790000D02*
X194121000Y-119079000D01*
X194161000Y-114440000D02*
X194161000Y-115710000D01*
X194161000Y-117790000D02*
X194161000Y-119060000D01*
X194201000Y-114460000D02*
X194201000Y-115710000D01*
X194201000Y-117790000D02*
X194201000Y-119040000D01*
X194241000Y-114482000D02*
X194241000Y-115710000D01*
X194241000Y-117790000D02*
X194241000Y-119018000D01*
X194281000Y-114503000D02*
X194281000Y-115710000D01*
X194281000Y-117790000D02*
X194281000Y-118997000D01*
X194321000Y-114526000D02*
X194321000Y-115710000D01*
X194321000Y-117790000D02*
X194321000Y-118974000D01*
X194361000Y-114550000D02*
X194361000Y-115710000D01*
X194361000Y-117790000D02*
X194361000Y-118950000D01*
X194401000Y-114575000D02*
X194401000Y-115710000D01*
X194401000Y-117790000D02*
X194401000Y-118925000D01*
X194441000Y-114601000D02*
X194441000Y-115710000D01*
X194441000Y-117790000D02*
X194441000Y-118899000D01*
X194481000Y-114628000D02*
X194481000Y-115710000D01*
X194481000Y-117790000D02*
X194481000Y-118872000D01*
X194521000Y-114655000D02*
X194521000Y-115710000D01*
X194521000Y-117790000D02*
X194521000Y-118845000D01*
X194561000Y-114685000D02*
X194561000Y-115710000D01*
X194561000Y-117790000D02*
X194561000Y-118815000D01*
X194601000Y-114715000D02*
X194601000Y-115710000D01*
X194601000Y-117790000D02*
X194601000Y-118785000D01*
X194641000Y-114746000D02*
X194641000Y-115710000D01*
X194641000Y-117790000D02*
X194641000Y-118754000D01*
X194681000Y-114779000D02*
X194681000Y-115710000D01*
X194681000Y-117790000D02*
X194681000Y-118721000D01*
X194721000Y-114813000D02*
X194721000Y-115710000D01*
X194721000Y-117790000D02*
X194721000Y-118687000D01*
X194761000Y-114849000D02*
X194761000Y-115710000D01*
X194761000Y-117790000D02*
X194761000Y-118651000D01*
X194801000Y-114886000D02*
X194801000Y-115710000D01*
X194801000Y-117790000D02*
X194801000Y-118614000D01*
X194841000Y-114924000D02*
X194841000Y-115710000D01*
X194841000Y-117790000D02*
X194841000Y-118576000D01*
X194881000Y-114965000D02*
X194881000Y-115710000D01*
X194881000Y-117790000D02*
X194881000Y-118535000D01*
X194921000Y-115007000D02*
X194921000Y-115710000D01*
X194921000Y-117790000D02*
X194921000Y-118493000D01*
X194961000Y-115051000D02*
X194961000Y-115710000D01*
X194961000Y-117790000D02*
X194961000Y-118449000D01*
X195001000Y-115097000D02*
X195001000Y-115710000D01*
X195001000Y-117790000D02*
X195001000Y-118403000D01*
X195041000Y-115145000D02*
X195041000Y-118355000D01*
X195081000Y-115196000D02*
X195081000Y-118304000D01*
X195121000Y-115250000D02*
X195121000Y-118250000D01*
X195161000Y-115307000D02*
X195161000Y-118193000D01*
X195201000Y-115367000D02*
X195201000Y-118133000D01*
X195241000Y-115431000D02*
X195241000Y-118069000D01*
X195281000Y-115499000D02*
X195281000Y-118001000D01*
X195321000Y-115572000D02*
X195321000Y-117928000D01*
X195361000Y-115652000D02*
X195361000Y-117848000D01*
X195401000Y-115739000D02*
X195401000Y-117761000D01*
X195441000Y-115835000D02*
X195441000Y-117665000D01*
X195481000Y-115945000D02*
X195481000Y-117555000D01*
X195521000Y-116073000D02*
X195521000Y-117427000D01*
X195561000Y-116232000D02*
X195561000Y-117268000D01*
X195601000Y-116466000D02*
X195601000Y-117034000D01*
X195620000Y-116750000D02*
G75*
G03*
X195620000Y-116750000I-2620000J0D01*
G01*
%TD*%
M02*
