%TF.GenerationSoftware,KiCad,Pcbnew,7.0.8*%
%TF.CreationDate,2024-03-05T18:55:30+01:00*%
%TF.ProjectId,Hacheur 4Q,48616368-6575-4722-9034-512e6b696361,rev?*%
%TF.SameCoordinates,Original*%
%TF.FileFunction,Drillmap*%
%TF.FilePolarity,Positive*%
%FSLAX45Y45*%
G04 Gerber Fmt 4.5, Leading zero omitted, Abs format (unit mm)*
G04 Created by KiCad (PCBNEW 7.0.8) date 2024-03-05 18:55:30*
%MOMM*%
%LPD*%
G01*
G04 APERTURE LIST*
%ADD10C,0.100000*%
%ADD11C,0.200000*%
%ADD12C,0.320000*%
G04 APERTURE END LIST*
D10*
X10500000Y-2100000D02*
X21325000Y-2100000D01*
X18400000Y-3575000D02*
X16825000Y-3575000D01*
X16825000Y-3275000D01*
X18400000Y-3275000D01*
X18400000Y-3575000D01*
X18400000Y-8400000D02*
X17350000Y-8400000D01*
X17350000Y-8100000D01*
X18400000Y-8100000D01*
X18400000Y-8400000D01*
X21325000Y-14700000D02*
X10500000Y-14700000D01*
X10500000Y-14700000D02*
X10500000Y-2100000D01*
X21325000Y-2100000D02*
X21325000Y-14700000D01*
D11*
D12*
X10940000Y-2540000D02*
X11260000Y-2860000D01*
X11260000Y-2540000D02*
X10940000Y-2860000D01*
X10940000Y-13940000D02*
X11260000Y-14260000D01*
X11260000Y-13940000D02*
X10940000Y-14260000D01*
X20565000Y-2540000D02*
X20885000Y-2860000D01*
X20885000Y-2540000D02*
X20565000Y-2860000D01*
X20565000Y-13940000D02*
X20885000Y-14260000D01*
X20885000Y-13940000D02*
X20565000Y-14260000D01*
D11*
X10755777Y-15016484D02*
X10755777Y-14816484D01*
X10755777Y-14816484D02*
X10803396Y-14816484D01*
X10803396Y-14816484D02*
X10831967Y-14826008D01*
X10831967Y-14826008D02*
X10851015Y-14845055D01*
X10851015Y-14845055D02*
X10860539Y-14864103D01*
X10860539Y-14864103D02*
X10870063Y-14902198D01*
X10870063Y-14902198D02*
X10870063Y-14930769D01*
X10870063Y-14930769D02*
X10860539Y-14968865D01*
X10860539Y-14968865D02*
X10851015Y-14987912D01*
X10851015Y-14987912D02*
X10831967Y-15006960D01*
X10831967Y-15006960D02*
X10803396Y-15016484D01*
X10803396Y-15016484D02*
X10755777Y-15016484D01*
X10955777Y-15016484D02*
X10955777Y-14883150D01*
X10955777Y-14921246D02*
X10965301Y-14902198D01*
X10965301Y-14902198D02*
X10974824Y-14892674D01*
X10974824Y-14892674D02*
X10993872Y-14883150D01*
X10993872Y-14883150D02*
X11012920Y-14883150D01*
X11079586Y-15016484D02*
X11079586Y-14883150D01*
X11079586Y-14816484D02*
X11070063Y-14826008D01*
X11070063Y-14826008D02*
X11079586Y-14835531D01*
X11079586Y-14835531D02*
X11089110Y-14826008D01*
X11089110Y-14826008D02*
X11079586Y-14816484D01*
X11079586Y-14816484D02*
X11079586Y-14835531D01*
X11203396Y-15016484D02*
X11184348Y-15006960D01*
X11184348Y-15006960D02*
X11174824Y-14987912D01*
X11174824Y-14987912D02*
X11174824Y-14816484D01*
X11308158Y-15016484D02*
X11289110Y-15006960D01*
X11289110Y-15006960D02*
X11279586Y-14987912D01*
X11279586Y-14987912D02*
X11279586Y-14816484D01*
X11536729Y-15016484D02*
X11536729Y-14816484D01*
X11536729Y-14816484D02*
X11603396Y-14959341D01*
X11603396Y-14959341D02*
X11670062Y-14816484D01*
X11670062Y-14816484D02*
X11670062Y-15016484D01*
X11851015Y-15016484D02*
X11851015Y-14911722D01*
X11851015Y-14911722D02*
X11841491Y-14892674D01*
X11841491Y-14892674D02*
X11822443Y-14883150D01*
X11822443Y-14883150D02*
X11784348Y-14883150D01*
X11784348Y-14883150D02*
X11765301Y-14892674D01*
X11851015Y-15006960D02*
X11831967Y-15016484D01*
X11831967Y-15016484D02*
X11784348Y-15016484D01*
X11784348Y-15016484D02*
X11765301Y-15006960D01*
X11765301Y-15006960D02*
X11755777Y-14987912D01*
X11755777Y-14987912D02*
X11755777Y-14968865D01*
X11755777Y-14968865D02*
X11765301Y-14949817D01*
X11765301Y-14949817D02*
X11784348Y-14940293D01*
X11784348Y-14940293D02*
X11831967Y-14940293D01*
X11831967Y-14940293D02*
X11851015Y-14930769D01*
X11946253Y-14883150D02*
X11946253Y-15083150D01*
X11946253Y-14892674D02*
X11965301Y-14883150D01*
X11965301Y-14883150D02*
X12003396Y-14883150D01*
X12003396Y-14883150D02*
X12022443Y-14892674D01*
X12022443Y-14892674D02*
X12031967Y-14902198D01*
X12031967Y-14902198D02*
X12041491Y-14921246D01*
X12041491Y-14921246D02*
X12041491Y-14978388D01*
X12041491Y-14978388D02*
X12031967Y-14997436D01*
X12031967Y-14997436D02*
X12022443Y-15006960D01*
X12022443Y-15006960D02*
X12003396Y-15016484D01*
X12003396Y-15016484D02*
X11965301Y-15016484D01*
X11965301Y-15016484D02*
X11946253Y-15006960D01*
X12127205Y-14997436D02*
X12136729Y-15006960D01*
X12136729Y-15006960D02*
X12127205Y-15016484D01*
X12127205Y-15016484D02*
X12117682Y-15006960D01*
X12117682Y-15006960D02*
X12127205Y-14997436D01*
X12127205Y-14997436D02*
X12127205Y-15016484D01*
X12127205Y-14892674D02*
X12136729Y-14902198D01*
X12136729Y-14902198D02*
X12127205Y-14911722D01*
X12127205Y-14911722D02*
X12117682Y-14902198D01*
X12117682Y-14902198D02*
X12127205Y-14892674D01*
X12127205Y-14892674D02*
X12127205Y-14911722D01*
X10295000Y-15245000D02*
X10495000Y-15445000D01*
X10495000Y-15245000D02*
X10295000Y-15445000D01*
X10736729Y-15236484D02*
X10860539Y-15236484D01*
X10860539Y-15236484D02*
X10793872Y-15312674D01*
X10793872Y-15312674D02*
X10822444Y-15312674D01*
X10822444Y-15312674D02*
X10841491Y-15322198D01*
X10841491Y-15322198D02*
X10851015Y-15331722D01*
X10851015Y-15331722D02*
X10860539Y-15350769D01*
X10860539Y-15350769D02*
X10860539Y-15398388D01*
X10860539Y-15398388D02*
X10851015Y-15417436D01*
X10851015Y-15417436D02*
X10841491Y-15426960D01*
X10841491Y-15426960D02*
X10822444Y-15436484D01*
X10822444Y-15436484D02*
X10765301Y-15436484D01*
X10765301Y-15436484D02*
X10746253Y-15426960D01*
X10746253Y-15426960D02*
X10736729Y-15417436D01*
X10946253Y-15417436D02*
X10955777Y-15426960D01*
X10955777Y-15426960D02*
X10946253Y-15436484D01*
X10946253Y-15436484D02*
X10936729Y-15426960D01*
X10936729Y-15426960D02*
X10946253Y-15417436D01*
X10946253Y-15417436D02*
X10946253Y-15436484D01*
X11031967Y-15255531D02*
X11041491Y-15246008D01*
X11041491Y-15246008D02*
X11060539Y-15236484D01*
X11060539Y-15236484D02*
X11108158Y-15236484D01*
X11108158Y-15236484D02*
X11127205Y-15246008D01*
X11127205Y-15246008D02*
X11136729Y-15255531D01*
X11136729Y-15255531D02*
X11146253Y-15274579D01*
X11146253Y-15274579D02*
X11146253Y-15293627D01*
X11146253Y-15293627D02*
X11136729Y-15322198D01*
X11136729Y-15322198D02*
X11022444Y-15436484D01*
X11022444Y-15436484D02*
X11146253Y-15436484D01*
X11270062Y-15236484D02*
X11289110Y-15236484D01*
X11289110Y-15236484D02*
X11308158Y-15246008D01*
X11308158Y-15246008D02*
X11317682Y-15255531D01*
X11317682Y-15255531D02*
X11327205Y-15274579D01*
X11327205Y-15274579D02*
X11336729Y-15312674D01*
X11336729Y-15312674D02*
X11336729Y-15360293D01*
X11336729Y-15360293D02*
X11327205Y-15398388D01*
X11327205Y-15398388D02*
X11317682Y-15417436D01*
X11317682Y-15417436D02*
X11308158Y-15426960D01*
X11308158Y-15426960D02*
X11289110Y-15436484D01*
X11289110Y-15436484D02*
X11270062Y-15436484D01*
X11270062Y-15436484D02*
X11251015Y-15426960D01*
X11251015Y-15426960D02*
X11241491Y-15417436D01*
X11241491Y-15417436D02*
X11231967Y-15398388D01*
X11231967Y-15398388D02*
X11222443Y-15360293D01*
X11222443Y-15360293D02*
X11222443Y-15312674D01*
X11222443Y-15312674D02*
X11231967Y-15274579D01*
X11231967Y-15274579D02*
X11241491Y-15255531D01*
X11241491Y-15255531D02*
X11251015Y-15246008D01*
X11251015Y-15246008D02*
X11270062Y-15236484D01*
X11460539Y-15236484D02*
X11479586Y-15236484D01*
X11479586Y-15236484D02*
X11498634Y-15246008D01*
X11498634Y-15246008D02*
X11508158Y-15255531D01*
X11508158Y-15255531D02*
X11517682Y-15274579D01*
X11517682Y-15274579D02*
X11527205Y-15312674D01*
X11527205Y-15312674D02*
X11527205Y-15360293D01*
X11527205Y-15360293D02*
X11517682Y-15398388D01*
X11517682Y-15398388D02*
X11508158Y-15417436D01*
X11508158Y-15417436D02*
X11498634Y-15426960D01*
X11498634Y-15426960D02*
X11479586Y-15436484D01*
X11479586Y-15436484D02*
X11460539Y-15436484D01*
X11460539Y-15436484D02*
X11441491Y-15426960D01*
X11441491Y-15426960D02*
X11431967Y-15417436D01*
X11431967Y-15417436D02*
X11422443Y-15398388D01*
X11422443Y-15398388D02*
X11412920Y-15360293D01*
X11412920Y-15360293D02*
X11412920Y-15312674D01*
X11412920Y-15312674D02*
X11422443Y-15274579D01*
X11422443Y-15274579D02*
X11431967Y-15255531D01*
X11431967Y-15255531D02*
X11441491Y-15246008D01*
X11441491Y-15246008D02*
X11460539Y-15236484D01*
X11612920Y-15436484D02*
X11612920Y-15303150D01*
X11612920Y-15322198D02*
X11622443Y-15312674D01*
X11622443Y-15312674D02*
X11641491Y-15303150D01*
X11641491Y-15303150D02*
X11670063Y-15303150D01*
X11670063Y-15303150D02*
X11689110Y-15312674D01*
X11689110Y-15312674D02*
X11698634Y-15331722D01*
X11698634Y-15331722D02*
X11698634Y-15436484D01*
X11698634Y-15331722D02*
X11708158Y-15312674D01*
X11708158Y-15312674D02*
X11727205Y-15303150D01*
X11727205Y-15303150D02*
X11755777Y-15303150D01*
X11755777Y-15303150D02*
X11774824Y-15312674D01*
X11774824Y-15312674D02*
X11784348Y-15331722D01*
X11784348Y-15331722D02*
X11784348Y-15436484D01*
X11879586Y-15436484D02*
X11879586Y-15303150D01*
X11879586Y-15322198D02*
X11889110Y-15312674D01*
X11889110Y-15312674D02*
X11908158Y-15303150D01*
X11908158Y-15303150D02*
X11936729Y-15303150D01*
X11936729Y-15303150D02*
X11955777Y-15312674D01*
X11955777Y-15312674D02*
X11965301Y-15331722D01*
X11965301Y-15331722D02*
X11965301Y-15436484D01*
X11965301Y-15331722D02*
X11974824Y-15312674D01*
X11974824Y-15312674D02*
X11993872Y-15303150D01*
X11993872Y-15303150D02*
X12022443Y-15303150D01*
X12022443Y-15303150D02*
X12041491Y-15312674D01*
X12041491Y-15312674D02*
X12051015Y-15331722D01*
X12051015Y-15331722D02*
X12051015Y-15436484D01*
X12441491Y-15226960D02*
X12270063Y-15484103D01*
X12698634Y-15236484D02*
X12717682Y-15236484D01*
X12717682Y-15236484D02*
X12736729Y-15246008D01*
X12736729Y-15246008D02*
X12746253Y-15255531D01*
X12746253Y-15255531D02*
X12755777Y-15274579D01*
X12755777Y-15274579D02*
X12765301Y-15312674D01*
X12765301Y-15312674D02*
X12765301Y-15360293D01*
X12765301Y-15360293D02*
X12755777Y-15398388D01*
X12755777Y-15398388D02*
X12746253Y-15417436D01*
X12746253Y-15417436D02*
X12736729Y-15426960D01*
X12736729Y-15426960D02*
X12717682Y-15436484D01*
X12717682Y-15436484D02*
X12698634Y-15436484D01*
X12698634Y-15436484D02*
X12679586Y-15426960D01*
X12679586Y-15426960D02*
X12670063Y-15417436D01*
X12670063Y-15417436D02*
X12660539Y-15398388D01*
X12660539Y-15398388D02*
X12651015Y-15360293D01*
X12651015Y-15360293D02*
X12651015Y-15312674D01*
X12651015Y-15312674D02*
X12660539Y-15274579D01*
X12660539Y-15274579D02*
X12670063Y-15255531D01*
X12670063Y-15255531D02*
X12679586Y-15246008D01*
X12679586Y-15246008D02*
X12698634Y-15236484D01*
X12851015Y-15417436D02*
X12860539Y-15426960D01*
X12860539Y-15426960D02*
X12851015Y-15436484D01*
X12851015Y-15436484D02*
X12841491Y-15426960D01*
X12841491Y-15426960D02*
X12851015Y-15417436D01*
X12851015Y-15417436D02*
X12851015Y-15436484D01*
X13051015Y-15436484D02*
X12936729Y-15436484D01*
X12993872Y-15436484D02*
X12993872Y-15236484D01*
X12993872Y-15236484D02*
X12974825Y-15265055D01*
X12974825Y-15265055D02*
X12955777Y-15284103D01*
X12955777Y-15284103D02*
X12936729Y-15293627D01*
X13127206Y-15255531D02*
X13136729Y-15246008D01*
X13136729Y-15246008D02*
X13155777Y-15236484D01*
X13155777Y-15236484D02*
X13203396Y-15236484D01*
X13203396Y-15236484D02*
X13222444Y-15246008D01*
X13222444Y-15246008D02*
X13231967Y-15255531D01*
X13231967Y-15255531D02*
X13241491Y-15274579D01*
X13241491Y-15274579D02*
X13241491Y-15293627D01*
X13241491Y-15293627D02*
X13231967Y-15322198D01*
X13231967Y-15322198D02*
X13117682Y-15436484D01*
X13117682Y-15436484D02*
X13241491Y-15436484D01*
X13412920Y-15236484D02*
X13374825Y-15236484D01*
X13374825Y-15236484D02*
X13355777Y-15246008D01*
X13355777Y-15246008D02*
X13346253Y-15255531D01*
X13346253Y-15255531D02*
X13327206Y-15284103D01*
X13327206Y-15284103D02*
X13317682Y-15322198D01*
X13317682Y-15322198D02*
X13317682Y-15398388D01*
X13317682Y-15398388D02*
X13327206Y-15417436D01*
X13327206Y-15417436D02*
X13336729Y-15426960D01*
X13336729Y-15426960D02*
X13355777Y-15436484D01*
X13355777Y-15436484D02*
X13393872Y-15436484D01*
X13393872Y-15436484D02*
X13412920Y-15426960D01*
X13412920Y-15426960D02*
X13422444Y-15417436D01*
X13422444Y-15417436D02*
X13431967Y-15398388D01*
X13431967Y-15398388D02*
X13431967Y-15350769D01*
X13431967Y-15350769D02*
X13422444Y-15331722D01*
X13422444Y-15331722D02*
X13412920Y-15322198D01*
X13412920Y-15322198D02*
X13393872Y-15312674D01*
X13393872Y-15312674D02*
X13355777Y-15312674D01*
X13355777Y-15312674D02*
X13336729Y-15322198D01*
X13336729Y-15322198D02*
X13327206Y-15331722D01*
X13327206Y-15331722D02*
X13317682Y-15350769D01*
X13555777Y-15236484D02*
X13574825Y-15236484D01*
X13574825Y-15236484D02*
X13593872Y-15246008D01*
X13593872Y-15246008D02*
X13603396Y-15255531D01*
X13603396Y-15255531D02*
X13612920Y-15274579D01*
X13612920Y-15274579D02*
X13622444Y-15312674D01*
X13622444Y-15312674D02*
X13622444Y-15360293D01*
X13622444Y-15360293D02*
X13612920Y-15398388D01*
X13612920Y-15398388D02*
X13603396Y-15417436D01*
X13603396Y-15417436D02*
X13593872Y-15426960D01*
X13593872Y-15426960D02*
X13574825Y-15436484D01*
X13574825Y-15436484D02*
X13555777Y-15436484D01*
X13555777Y-15436484D02*
X13536729Y-15426960D01*
X13536729Y-15426960D02*
X13527206Y-15417436D01*
X13527206Y-15417436D02*
X13517682Y-15398388D01*
X13517682Y-15398388D02*
X13508158Y-15360293D01*
X13508158Y-15360293D02*
X13508158Y-15312674D01*
X13508158Y-15312674D02*
X13517682Y-15274579D01*
X13517682Y-15274579D02*
X13527206Y-15255531D01*
X13527206Y-15255531D02*
X13536729Y-15246008D01*
X13536729Y-15246008D02*
X13555777Y-15236484D01*
X13698634Y-15236484D02*
X13698634Y-15274579D01*
X13774825Y-15236484D02*
X13774825Y-15274579D01*
X14070063Y-15512674D02*
X14060539Y-15503150D01*
X14060539Y-15503150D02*
X14041491Y-15474579D01*
X14041491Y-15474579D02*
X14031968Y-15455531D01*
X14031968Y-15455531D02*
X14022444Y-15426960D01*
X14022444Y-15426960D02*
X14012920Y-15379341D01*
X14012920Y-15379341D02*
X14012920Y-15341246D01*
X14012920Y-15341246D02*
X14022444Y-15293627D01*
X14022444Y-15293627D02*
X14031968Y-15265055D01*
X14031968Y-15265055D02*
X14041491Y-15246008D01*
X14041491Y-15246008D02*
X14060539Y-15217436D01*
X14060539Y-15217436D02*
X14070063Y-15207912D01*
X14231968Y-15303150D02*
X14231968Y-15436484D01*
X14184348Y-15226960D02*
X14136729Y-15369817D01*
X14136729Y-15369817D02*
X14260539Y-15369817D01*
X14489110Y-15436484D02*
X14489110Y-15236484D01*
X14574825Y-15436484D02*
X14574825Y-15331722D01*
X14574825Y-15331722D02*
X14565301Y-15312674D01*
X14565301Y-15312674D02*
X14546253Y-15303150D01*
X14546253Y-15303150D02*
X14517682Y-15303150D01*
X14517682Y-15303150D02*
X14498634Y-15312674D01*
X14498634Y-15312674D02*
X14489110Y-15322198D01*
X14698634Y-15436484D02*
X14679587Y-15426960D01*
X14679587Y-15426960D02*
X14670063Y-15417436D01*
X14670063Y-15417436D02*
X14660539Y-15398388D01*
X14660539Y-15398388D02*
X14660539Y-15341246D01*
X14660539Y-15341246D02*
X14670063Y-15322198D01*
X14670063Y-15322198D02*
X14679587Y-15312674D01*
X14679587Y-15312674D02*
X14698634Y-15303150D01*
X14698634Y-15303150D02*
X14727206Y-15303150D01*
X14727206Y-15303150D02*
X14746253Y-15312674D01*
X14746253Y-15312674D02*
X14755777Y-15322198D01*
X14755777Y-15322198D02*
X14765301Y-15341246D01*
X14765301Y-15341246D02*
X14765301Y-15398388D01*
X14765301Y-15398388D02*
X14755777Y-15417436D01*
X14755777Y-15417436D02*
X14746253Y-15426960D01*
X14746253Y-15426960D02*
X14727206Y-15436484D01*
X14727206Y-15436484D02*
X14698634Y-15436484D01*
X14879587Y-15436484D02*
X14860539Y-15426960D01*
X14860539Y-15426960D02*
X14851015Y-15407912D01*
X14851015Y-15407912D02*
X14851015Y-15236484D01*
X15031968Y-15426960D02*
X15012920Y-15436484D01*
X15012920Y-15436484D02*
X14974825Y-15436484D01*
X14974825Y-15436484D02*
X14955777Y-15426960D01*
X14955777Y-15426960D02*
X14946253Y-15407912D01*
X14946253Y-15407912D02*
X14946253Y-15331722D01*
X14946253Y-15331722D02*
X14955777Y-15312674D01*
X14955777Y-15312674D02*
X14974825Y-15303150D01*
X14974825Y-15303150D02*
X15012920Y-15303150D01*
X15012920Y-15303150D02*
X15031968Y-15312674D01*
X15031968Y-15312674D02*
X15041491Y-15331722D01*
X15041491Y-15331722D02*
X15041491Y-15350769D01*
X15041491Y-15350769D02*
X14946253Y-15369817D01*
X15117682Y-15426960D02*
X15136730Y-15436484D01*
X15136730Y-15436484D02*
X15174825Y-15436484D01*
X15174825Y-15436484D02*
X15193872Y-15426960D01*
X15193872Y-15426960D02*
X15203396Y-15407912D01*
X15203396Y-15407912D02*
X15203396Y-15398388D01*
X15203396Y-15398388D02*
X15193872Y-15379341D01*
X15193872Y-15379341D02*
X15174825Y-15369817D01*
X15174825Y-15369817D02*
X15146253Y-15369817D01*
X15146253Y-15369817D02*
X15127206Y-15360293D01*
X15127206Y-15360293D02*
X15117682Y-15341246D01*
X15117682Y-15341246D02*
X15117682Y-15331722D01*
X15117682Y-15331722D02*
X15127206Y-15312674D01*
X15127206Y-15312674D02*
X15146253Y-15303150D01*
X15146253Y-15303150D02*
X15174825Y-15303150D01*
X15174825Y-15303150D02*
X15193872Y-15312674D01*
X15270063Y-15512674D02*
X15279587Y-15503150D01*
X15279587Y-15503150D02*
X15298634Y-15474579D01*
X15298634Y-15474579D02*
X15308158Y-15455531D01*
X15308158Y-15455531D02*
X15317682Y-15426960D01*
X15317682Y-15426960D02*
X15327206Y-15379341D01*
X15327206Y-15379341D02*
X15327206Y-15341246D01*
X15327206Y-15341246D02*
X15317682Y-15293627D01*
X15317682Y-15293627D02*
X15308158Y-15265055D01*
X15308158Y-15265055D02*
X15298634Y-15246008D01*
X15298634Y-15246008D02*
X15279587Y-15217436D01*
X15279587Y-15217436D02*
X15270063Y-15207912D01*
X15631968Y-15512674D02*
X15622444Y-15503150D01*
X15622444Y-15503150D02*
X15603396Y-15474579D01*
X15603396Y-15474579D02*
X15593872Y-15455531D01*
X15593872Y-15455531D02*
X15584349Y-15426960D01*
X15584349Y-15426960D02*
X15574825Y-15379341D01*
X15574825Y-15379341D02*
X15574825Y-15341246D01*
X15574825Y-15341246D02*
X15584349Y-15293627D01*
X15584349Y-15293627D02*
X15593872Y-15265055D01*
X15593872Y-15265055D02*
X15603396Y-15246008D01*
X15603396Y-15246008D02*
X15622444Y-15217436D01*
X15622444Y-15217436D02*
X15631968Y-15207912D01*
X15708158Y-15303150D02*
X15708158Y-15436484D01*
X15708158Y-15322198D02*
X15717682Y-15312674D01*
X15717682Y-15312674D02*
X15736730Y-15303150D01*
X15736730Y-15303150D02*
X15765301Y-15303150D01*
X15765301Y-15303150D02*
X15784349Y-15312674D01*
X15784349Y-15312674D02*
X15793872Y-15331722D01*
X15793872Y-15331722D02*
X15793872Y-15436484D01*
X15917682Y-15436484D02*
X15898634Y-15426960D01*
X15898634Y-15426960D02*
X15889111Y-15417436D01*
X15889111Y-15417436D02*
X15879587Y-15398388D01*
X15879587Y-15398388D02*
X15879587Y-15341246D01*
X15879587Y-15341246D02*
X15889111Y-15322198D01*
X15889111Y-15322198D02*
X15898634Y-15312674D01*
X15898634Y-15312674D02*
X15917682Y-15303150D01*
X15917682Y-15303150D02*
X15946253Y-15303150D01*
X15946253Y-15303150D02*
X15965301Y-15312674D01*
X15965301Y-15312674D02*
X15974825Y-15322198D01*
X15974825Y-15322198D02*
X15984349Y-15341246D01*
X15984349Y-15341246D02*
X15984349Y-15398388D01*
X15984349Y-15398388D02*
X15974825Y-15417436D01*
X15974825Y-15417436D02*
X15965301Y-15426960D01*
X15965301Y-15426960D02*
X15946253Y-15436484D01*
X15946253Y-15436484D02*
X15917682Y-15436484D01*
X16041492Y-15303150D02*
X16117682Y-15303150D01*
X16070063Y-15236484D02*
X16070063Y-15407912D01*
X16070063Y-15407912D02*
X16079587Y-15426960D01*
X16079587Y-15426960D02*
X16098634Y-15436484D01*
X16098634Y-15436484D02*
X16117682Y-15436484D01*
X16336730Y-15303150D02*
X16336730Y-15503150D01*
X16336730Y-15312674D02*
X16355777Y-15303150D01*
X16355777Y-15303150D02*
X16393873Y-15303150D01*
X16393873Y-15303150D02*
X16412920Y-15312674D01*
X16412920Y-15312674D02*
X16422444Y-15322198D01*
X16422444Y-15322198D02*
X16431968Y-15341246D01*
X16431968Y-15341246D02*
X16431968Y-15398388D01*
X16431968Y-15398388D02*
X16422444Y-15417436D01*
X16422444Y-15417436D02*
X16412920Y-15426960D01*
X16412920Y-15426960D02*
X16393873Y-15436484D01*
X16393873Y-15436484D02*
X16355777Y-15436484D01*
X16355777Y-15436484D02*
X16336730Y-15426960D01*
X16546253Y-15436484D02*
X16527206Y-15426960D01*
X16527206Y-15426960D02*
X16517682Y-15407912D01*
X16517682Y-15407912D02*
X16517682Y-15236484D01*
X16708158Y-15436484D02*
X16708158Y-15331722D01*
X16708158Y-15331722D02*
X16698634Y-15312674D01*
X16698634Y-15312674D02*
X16679587Y-15303150D01*
X16679587Y-15303150D02*
X16641492Y-15303150D01*
X16641492Y-15303150D02*
X16622444Y-15312674D01*
X16708158Y-15426960D02*
X16689111Y-15436484D01*
X16689111Y-15436484D02*
X16641492Y-15436484D01*
X16641492Y-15436484D02*
X16622444Y-15426960D01*
X16622444Y-15426960D02*
X16612920Y-15407912D01*
X16612920Y-15407912D02*
X16612920Y-15388865D01*
X16612920Y-15388865D02*
X16622444Y-15369817D01*
X16622444Y-15369817D02*
X16641492Y-15360293D01*
X16641492Y-15360293D02*
X16689111Y-15360293D01*
X16689111Y-15360293D02*
X16708158Y-15350769D01*
X16774825Y-15303150D02*
X16851015Y-15303150D01*
X16803396Y-15236484D02*
X16803396Y-15407912D01*
X16803396Y-15407912D02*
X16812920Y-15426960D01*
X16812920Y-15426960D02*
X16831968Y-15436484D01*
X16831968Y-15436484D02*
X16851015Y-15436484D01*
X16993873Y-15426960D02*
X16974825Y-15436484D01*
X16974825Y-15436484D02*
X16936730Y-15436484D01*
X16936730Y-15436484D02*
X16917682Y-15426960D01*
X16917682Y-15426960D02*
X16908158Y-15407912D01*
X16908158Y-15407912D02*
X16908158Y-15331722D01*
X16908158Y-15331722D02*
X16917682Y-15312674D01*
X16917682Y-15312674D02*
X16936730Y-15303150D01*
X16936730Y-15303150D02*
X16974825Y-15303150D01*
X16974825Y-15303150D02*
X16993873Y-15312674D01*
X16993873Y-15312674D02*
X17003396Y-15331722D01*
X17003396Y-15331722D02*
X17003396Y-15350769D01*
X17003396Y-15350769D02*
X16908158Y-15369817D01*
X17174825Y-15436484D02*
X17174825Y-15236484D01*
X17174825Y-15426960D02*
X17155777Y-15436484D01*
X17155777Y-15436484D02*
X17117682Y-15436484D01*
X17117682Y-15436484D02*
X17098635Y-15426960D01*
X17098635Y-15426960D02*
X17089111Y-15417436D01*
X17089111Y-15417436D02*
X17079587Y-15398388D01*
X17079587Y-15398388D02*
X17079587Y-15341246D01*
X17079587Y-15341246D02*
X17089111Y-15322198D01*
X17089111Y-15322198D02*
X17098635Y-15312674D01*
X17098635Y-15312674D02*
X17117682Y-15303150D01*
X17117682Y-15303150D02*
X17155777Y-15303150D01*
X17155777Y-15303150D02*
X17174825Y-15312674D01*
X17251016Y-15512674D02*
X17260539Y-15503150D01*
X17260539Y-15503150D02*
X17279587Y-15474579D01*
X17279587Y-15474579D02*
X17289111Y-15455531D01*
X17289111Y-15455531D02*
X17298635Y-15426960D01*
X17298635Y-15426960D02*
X17308158Y-15379341D01*
X17308158Y-15379341D02*
X17308158Y-15341246D01*
X17308158Y-15341246D02*
X17298635Y-15293627D01*
X17298635Y-15293627D02*
X17289111Y-15265055D01*
X17289111Y-15265055D02*
X17279587Y-15246008D01*
X17279587Y-15246008D02*
X17260539Y-15217436D01*
X17260539Y-15217436D02*
X17251016Y-15207912D01*
M02*
